<?xml version="1.0" standalone="no"?>
<!DOCTYPE svg PUBLIC "-//W3C//DTD SVG 1.1//EN" "http://www.w3.org/Graphics/SVG/1.1/DTD/svg11.dtd" >
<svg>
<metadata>
Created by FontForge 20090622 at Fri Sep  9 08:35:29 2016
 By deploy user
Copyright (c) 2014 by www.moslemebrahimi.com. All rights reserved.
</metadata>
<defs>
<font id="IRANSans-lightEX" horiz-adv-x="0" >
  <font-face 
    font-family="IRAN Sans Expanded Light"
    font-weight="300"
    font-stretch="expanded"
    units-per-em="2048"
    panose-1="2 11 6 6 3 8 4 2 2 4"
    ascent="1638"
    descent="-410"
    x-height="1062"
    cap-height="1466"
    bbox="-713 -1255 3906.39 2316"
    underline-thickness="102"
    underline-position="-103"
    unicode-range="U+0020-U+FEFC"
  />
<missing-glyph horiz-adv-x="1229" 
d="M74 -1v1881h1076v-1881h-1076zM254 179h716v1521h-716v-1521z" />
    <glyph glyph-name="uniFDF2" unicode="&#x627;&#xfedf;&#xfee0;&#xfeea;" horiz-adv-x="2400" arabic-form="isolated" 
d="M1695 1130q12 -64 13 -70q17 -93 20 -108q18 -102 22 -134q16 -110 22 -148l18 -150q8 -101 10 -140q2 -72 -1 -120q-3 -51 -14 -88q-32 -93 -110 -142q-79 -48 -198 -48q-94 0 -171 47q-76 47 -129 129q-18 -33 -50 -71q-49 -54 -111 -79q-64 -26 -140 -26h-10
q-34 0 -66 8q-31 5 -74 24q-31 14 -72 46q-33 28 -59 73q-44 -23 -97 -35q-49 -14 -116 -14q-12 0 -42 2q-14 1 -42 5q-58 10 -106 42q-49 32 -77 81q-31 52 -35 107q-5 56 15 110q16 43 49 82q33 38 78 79q51 42 94 70q45 31 95 60q61 36 83 46l35 18.5l22 11.5q4 48 9 84
q3 30 3 34l149 -18v-3q-1 -3 -1.5 -8.5t-0.5 -12.5q-3 -22 -6 -64q-1 -8 -8 -96q-5 -56 -6 -118q-3 -61 -3 -130q0 -75 4 -135q3 -48 15 -83q14 -33 31 -55q16 -20 39 -35q20 -12 39 -18q26 -6 35 -6q10 -2 22 -2h3q88 0 141 56q22 24 36 54q15 30 24 63q6 22 14 66
q1 6 3 28.5l3 33.5q-1 5 -1 16v16v599h151v-547v-29q2 -20 0 -51q4 -54 20 -112q18 -55 46 -98q28 -42 70 -69q43 -26 95 -26q47 0 82 10q33 12 49 26q16 13 24 29q4 8 10 23q9 27 9 84q0 56 -6 130q-7 92 -17 162q-9 88 -24 176q-9 63 -28 174l-29 156zM320 240
q45 -7 74 -4q32 0 64 8q30 7 50 16q18 7 38 20l-3 20q-1 7 -1 21q-5 87 -5 155q0 76 3 146q-33 -18 -99 -58l-93 -64q-44 -34 -72 -64q-30 -31 -40 -56q-8 -21 -6 -45q2 -25 15 -44q25 -43 75 -51zM1152 1530q5 19 2 43q0 23 -5 51q-6 34 -10 50q-3 12 -11 38l74 48
q0 -2 1.5 -6l4 -10.5t4.5 -13.5q8 -28 15 -59q8 -35 9 -75q2 -42 -7 -78zM1088 1148h-6q-34 2 -52 8q-23 6 -39 16q-11 6 -27 20q-10 12 -16 22q-18 31 -20 64q-2 37 4 66q4 30 14 54q3 6 6 13.5t5 12t3 6.5l77 -37q-7 -15 -12 -31q-6 -18 -9 -37q-4 -17 -4 -37q2 -19 8 -29
q5 -8 20 -16q10 -5 32 -9q24 0 34 3q17 4 26 16q14 15 21 37q8 23 9 46q3 26 2 46q0 27 -1 36q30 4 38 5l27 3q12 2 12 -1q8 -63 18 -99q10 -35 23 -54q12 -16 23 -21q12 -4 22 -3q41 3 54 31q13 27 8 65q-4 37 -23 76q-17 38 -39 64l71 49l23 -36q18 -30 32 -63
q16 -38 22 -74q8 -36 -3 -73q-10 -32 -28 -57q-16 -24 -37 -38q-18 -14 -42 -22q-22 -6 -43 -6q-24 0 -53 10q-30 9 -56 41q-24 -34 -53 -49q-31 -18 -71 -18zM2166 1491q1 -8 7 -117l9 -179l9 -219q3 -81 7 -238q2 -162 2 -238q0 -128 -4 -216q-5 -100 -12 -173
q-9 -75 -24 -109l-138 41q9 23 15 77t9 132q2 56 4 174q0 132 -2 203q0 69 -4 221q-4 150 -8 224q-1 19 -9 214q-4 86 -11 193z" />
    <glyph glyph-name="uniFDFC" unicode="&#x631;&#xfef3;&#xfe8e;&#x644;" horiz-adv-x="2821" arabic-form="isolated" 
d="M2129 -769l-65 136l1 1q1 0 3 1t4.5 2t6.5 3l8 4q19 9 57 32q39 23 80 51q39 26 92 69q56 49 90 86q45 45 80 100q36 56 56 115q21 62 21 128q0 33 -9 73q-9 43 -24 86q-11 37 -32 91q-18 47 -36 87q-3 6 -15.5 34l-18.5 42q-6 11 -28 55l135 70l19 -39q18 -35 35 -74
l42 -98q20 -49 40 -111q18 -56 30 -113q12 -55 12 -103q0 -111 -41 -210q-42 -97 -105 -177q-64 -81 -137 -142q-67 -57 -139 -106q-61 -41 -111 -67q-47 -25 -51 -26zM1768 76q0 30 22 54q23 22 55 22h68q53 -1 114 1q42 1 71 11q25 9 40 28q13 22 23 52q5 16 5 54
q-4 52 -9 78q-8 47 -19 93q-8 33 -26 99q-14 51 -30 99l-31 88l140 53l21 -60q17 -46 32 -95l34 -117q20 -86 26 -124q12 -62 12 -116q3 -53 -10 -95q-21 -70 -56 -109q-32 -38 -79 -60q-48 -21 -99 -25q-58 -5 -112 -5h-110h-5q-31 0 -55 21q-22 22 -22 53zM1871 153h12
v-151h-12h-21q-12 0 -48 2q-28 3 -62 12q-32 8 -69 26q-33 16 -68 46q-59 55 -89 132q-30 80 -30 183q0 93 -2 145q0 52 -4 160q-1 83 -6 166l-6 160q-3 80 -6 143q-5 69 -6 117q-4 64 -4 78q-2 19 -2 30l150 16q0 -1 3 -52l3.5 -65t3.5 -69q4 -74 9 -188l9 -219
q4 -113 6 -222q3 -110 3 -200q0 -67 17 -120q16 -51 51 -81q24 -22 53 -33q22 -8 55 -14q25 -4 60 -2zM736 -610q-154 0 -276 62q-121 63 -188 177q-33 57 -52 131q-21 76 -16 181q6 105 46 234q42 137 131 292l132 -75q-56 -98 -99 -206q-38 -104 -52 -186q-14 -90 -4 -162
q11 -77 44 -133q46 -77 134 -121q86 -43 200 -43q126 0 225 38q94 36 163 99q66 65 98 140q33 80 33 160q0 19 -2 135q-1 33 -5 197l-7 232q-9 238 -9 246q-2 89 -8 234q0 11 -7 198q-1 24 -2.5 72t-2.5 67q0 15 -0.5 28.5t-1.5 19.5v6l150 7q2 -9 3 -66q1 -21 2.5 -72.5
t2.5 -71.5q0 -3 8 -199q2 -41 4.5 -119.5t3.5 -113.5q1 -40 3.5 -120.5t4.5 -121.5l6 -230l5 -194q2 -112 2 -134q0 -68 -19 -142q-22 -74 -58 -136q-37 -65 -94 -122q-58 -58 -132 -98q-74 -42 -166 -66q-90 -24 -200 -24zM1936 -274l-133 -133l-137 135l135 136z
M2249 -274l-135 -133l-137 135l137 136z" />
    <glyph glyph-name="uniFEF5" unicode="&#xfedf;&#xfe82;" horiz-adv-x="1253" arabic-form="isolated" 
d="M1075 1473q1 -4 3 -35q3 -32 6 -79q4 -44 9 -109q9 -120 9 -130q4 -44 10 -136q7 -102 8 -134q5 -65 6 -118q2 -74 2 -92q0 -52 -4 -108q-3 -61 -23 -133q-19 -67 -63 -145q-47 -76 -124 -142q-80 -68 -204 -126q-125 -57 -304 -93l-31 147q110 23 191 52q79 26 145 62
q-8 36 -19 74q-18 61 -38 116q-25 72 -63 161q-41 95 -96 209l-105 216l-88 184l-62 130l-12.5 26t-8.5 18l-2 5l136 65q0 -2 11 -24q7 -16 29 -62l45 -93l56 -118l66 -135l70 -146q92 -189 140 -318q54 -143 73 -214q52 52 77 102q27 49 40 103q14 51 15 99q2 62 2 88
q0 18 -2 90q-1 54 -6 119q-1 8 -4 57t-5 76q-1 21 -2.5 44t-3.5 51l-3 43q-1 10 -4.5 57t-4.5 71q-2 22 -5 58t-4 50q-5 46 -6 75q0 8 -0.5 15t-0.5 10l-1 4zM392 1481q-36 0 -60 5l-57 9q-43 9 -66 11q-28 4 -50 -3t-41 -29q-20 -24 -39 -65l-136 62q37 83 85 125
q45 39 94 53q48 13 96 7q37 -4 86 -13l46 -9q20 -4 42 -4q36 0 72 14q33 13 60 32q26 16 42 32q11 9 17 15l109 -104q-2 -2 -26 -23q-20 -18 -64 -48q-46 -27 -94 -46q-53 -21 -116 -21z" />
    <glyph glyph-name="uniFEF6" unicode="&#xfee0;&#xfe82;" horiz-adv-x="1285" arabic-form="final" 
d="M1024 478q0 -18 6 -49q4 -31 18 -67q11 -35 32 -75q19 -36 50 -69q26 -27 68 -50q41 -19 90 -19v-149q-58 0 -112 17q-48 16 -93 46q-40 27 -75 67q-34 40 -55 80q-31 -58 -83 -116q-53 -58 -130 -108q-74 -49 -185 -94q-108 -42 -252 -72l-29 149q99 19 190 49
q89 32 145 63q-2 10 -9 37l-10 38q-30 93 -38 116q-31 84 -64 160q-33 81 -95 209l-105 216l-88 185l-62 128q-22 48 -24 50l138 65l2 -5q2 -5 8.5 -18l12.5 -26l61 -130l88 -184l105 -215q93 -193 139 -317q46 -120 72 -214q52 50 78 101q27 49 41 103q13 51 15 98
q2 64 2 89q0 17 -2 91q-1 53 -6 118q-6 84 -8 134q-4 50 -10 138l-5.5 67.5t-4.5 60.5q-1 10 -4 49.5t-4 58.5q-4 44 -6 74l-3 29l150 13q2 -9 3 -46q2 -36 6 -90q3 -58 6 -124q6 -89 8 -144q1 -8 9 -150q3 -45 7 -145l7 -127q1 -11 2.5 -46.5t2.5 -49.5zM261 1383
q-36 0 -60 5q-8 1 -17.5 2.5l-21.5 3.5l-18 3q-43 9 -66 11q-28 4 -50 -3t-41 -29q-20 -24 -39 -65l-136 62q36 80 84 125q50 40 96 53q47 13 95 7q37 -4 86 -13l46 -9q20 -4 42 -4q36 0 72 14q31 12 61 32q24 15 42 32q10 9 16 15l109 -104q-2 -2 -26 -23q-20 -18 -64 -48
q-46 -27 -93 -46q-54 -21 -117 -21z" />
    <glyph glyph-name="uniFEF7" unicode="&#xfedf;&#xfe84;" horiz-adv-x="1164" arabic-form="isolated" 
d="M973 1473q1 -4 3 -35q3 -32 6 -79q4 -44 9 -109q9 -120 9 -130q4 -44 10 -136q7 -102 8 -134q5 -65 6 -118q2 -74 2 -92q0 -52 -4 -108q-3 -61 -23 -133q-19 -67 -63 -145q-47 -76 -124 -142q-80 -68 -204 -126q-125 -57 -304 -93l-31 147q110 23 191 52q79 26 145 62
q-8 36 -19 74q-18 61 -38 116q-25 72 -63 161q-41 95 -96 209l-105 216l-88 184l-62 130l-12.5 26t-8.5 18l-2 5l136 65q0 -2 11 -24q7 -16 29 -62l45 -93l56 -118l66 -135l70 -146q92 -189 140 -318q54 -143 73 -214q52 52 77 102q27 49 40 103q14 51 15 99q2 62 2 88
q0 18 -2 90q-1 54 -6 119q-1 8 -4 57t-5 76q-1 21 -2.5 44t-3.5 51l-3 43q-1 10 -4.5 57t-4.5 71q-2 22 -5 58t-4 50q-5 46 -6 75q0 8 -0.5 15t-0.5 10l-1 4zM73 1394l-45 88q21 12 52 26q27 15 85 40q-9 4 -17 12q-5 4 -12 11q-38 34 -54 81q-16 46 -2 91q48 154 204 154
q36 0 65 -11q29 -8 55 -23q25 -14 40 -25q13 -9 18 -14l-66 -76q-14 11 -18 13q-14 10 -26 16q-22 10 -34 13q-17 6 -34 6q-21 0 -34 -4q-18 -3 -30 -12q-14 -9 -26 -26q-11 -16 -19 -42q-3 -11 3 -31q6 -21 25 -38q6 -5 19 -13q10 -7 28 -13q14 -6 38 -9q22 -4 52 -1
q7 0 10 1h10q33 7 44 10q18 5 51 17l36 -94q-38 -16 -74 -24q-39 -8 -66 -11q-28 -5 -59 -16q-53 -20 -75 -30q-31 -12 -77 -34q-38 -17 -67 -32z" />
    <glyph glyph-name="uniFEF8" unicode="&#xfee0;&#xfe84;" horiz-adv-x="1270" arabic-form="final" 
d="M1024 478q0 -18 6 -49q4 -31 18 -67q11 -35 32 -75q19 -36 50 -69q26 -27 68 -50q41 -19 90 -19v-149q-58 0 -112 17q-48 16 -93 46q-40 27 -75 67q-34 40 -55 80q-31 -58 -83 -116q-53 -58 -130 -108q-74 -49 -185 -94q-108 -42 -252 -72l-29 149q99 19 190 49
q89 32 145 63q-2 10 -9 37l-10 38q-30 93 -38 116q-31 84 -64 160q-33 81 -95 209l-105 216l-88 185l-62 128q-22 48 -24 50l138 65l2 -5q2 -5 8.5 -18l12.5 -26l61 -130l88 -184l105 -215q93 -193 139 -317q46 -120 72 -214q52 50 78 101q27 49 41 103q13 51 15 98
q2 64 2 89q0 17 -2 91q-1 53 -6 118q-6 84 -8 134q-4 50 -10 138l-5.5 67.5t-4.5 60.5q-1 10 -4 49.5t-4 58.5q-4 44 -6 74l-3 29l150 13q2 -9 3 -46q2 -36 6 -90q3 -58 6 -124q6 -89 8 -144q1 -8 9 -150q3 -45 7 -145l7 -127q1 -11 2.5 -46.5t2.5 -49.5zM78 1314l-45 88
q9 5 51 26q38 19 86 40q-9 4 -17 12q-5 4 -12 11q-37 33 -55 81q-15 47 -1 91q48 154 204 154q36 0 65 -11q29 -8 55 -23t39 -25q14 -9 19 -14l-66 -76q-1 0 -7 5t-10 8q-19 12 -28 16q-19 9 -32 13q-18 6 -35 6q-19 0 -35 -4q-15 -3 -30 -12q-16 -12 -24 -26
q-12 -15 -20 -42q-3 -11 3 -31q6 -21 25 -38q2 -1 18 -13q8 -5 28 -13q19 -6 40 -9q20 -4 51 -1q7 0 10 1h10q33 7 44 10q18 5 51 17l36 -94q-38 -16 -74 -24q-39 -8 -66 -11q-27 -5 -60 -16q-59 -23 -74 -30q-31 -12 -77 -34q-38 -17 -67 -32z" />
    <glyph glyph-name="uniFEF9" unicode="&#xfedf;&#xfe88;" horiz-adv-x="1202" arabic-form="isolated" 
d="M973 1473q1 -4 3 -35q3 -32 6 -79q4 -44 9 -109q9 -120 9 -130q4 -44 10 -136q7 -102 8 -134q5 -65 6 -118q2 -74 2 -92q0 -52 -4 -108q-3 -61 -23 -133q-19 -67 -63 -145q-47 -76 -124 -142q-80 -68 -204 -126q-125 -57 -304 -93l-31 147q110 23 191 52q79 26 145 62
q-8 36 -19 74q-18 61 -38 116q-25 72 -63 161q-41 95 -96 209l-105 216l-88 184l-62 130l-12.5 26t-8.5 18l-2 5l136 65q0 -2 11 -24q7 -16 29 -62l45 -93l56 -118l66 -135l70 -146q92 -189 140 -318q54 -143 73 -214q52 52 77 102q27 49 40 103q14 51 15 99q2 62 2 88
q0 18 -2 90q-1 54 -6 119q-1 8 -4 57t-5 76q-1 21 -2.5 44t-3.5 51l-3 43q-1 10 -4.5 57t-4.5 71q-2 22 -5 58t-4 50q-5 46 -6 75q0 8 -0.5 15t-0.5 10l-1 4zM735 -503l-45 88q18 10 52 27q29 15 85 39q-7 3 -17 11l-12 12q-39 35 -54 82q-16 44 -2 90q48 154 204 154
q30 0 65 -10q38 -15 55 -24q20 -11 40 -24q15 -12 18 -15l-66 -76q-14 11 -18 13q-14 10 -26 16q-22 10 -34 14q-18 5 -34 5q-19 0 -34 -3q-19 -5 -30 -13q-12 -7 -26 -25q-13 -22 -19 -43q-3 -11 3 -31q6 -21 25 -38q6 -5 19 -13q10 -7 28 -13q10 -4 38 -10q24 -3 52 0h10
q3 1 10 1q33 7 44 10q18 5 51 17l36 -94q-38 -16 -74 -24q-39 -8 -66 -11q-30 -6 -59 -17q-16 -5 -75 -28l-77 -34q-49 -23 -67 -33z" />
    <glyph glyph-name="uniFEFA" unicode="&#xfee0;&#xfe88;" horiz-adv-x="1287" arabic-form="final" 
d="M1024 478q0 -18 6 -49q4 -31 18 -67q11 -35 32 -75q19 -36 50 -69q26 -27 68 -50q41 -19 90 -19v-149q-58 0 -112 17q-48 16 -93 46q-40 27 -75 67q-34 40 -55 80q-31 -58 -83 -116q-53 -58 -130 -108q-74 -49 -185 -94q-108 -42 -252 -72l-29 149q99 19 190 49
q89 32 145 63q-2 10 -9 37l-10 38q-30 93 -38 116q-31 84 -64 160q-33 81 -95 209l-105 216l-88 185l-62 128q-22 48 -24 50l138 65l2 -5q2 -5 8.5 -18l12.5 -26l61 -130l88 -184l105 -215q93 -193 139 -317q46 -120 72 -214q52 50 78 101q27 49 41 103q13 51 15 98
q2 64 2 89q0 17 -2 91q-1 53 -6 118q-6 84 -8 134q-4 50 -10 138l-5.5 67.5t-4.5 60.5q-1 10 -4 49.5t-4 58.5q-4 44 -6 74l-3 29l150 13q2 -9 3 -46q2 -36 6 -90q3 -58 6 -124q6 -89 8 -144q1 -8 9 -150q3 -45 7 -145l7 -127q1 -11 2.5 -46.5t2.5 -49.5zM724 -584l-45 88
q9 5 51 26q38 19 86 40q-9 4 -17 12q-5 4 -12 11q-37 33 -55 81q-15 47 -1 91q48 154 204 154q36 0 65 -11q29 -8 55 -23t39 -25q14 -9 19 -14l-66 -76q-1 0 -7 5t-10 8q-19 12 -28 16q-19 9 -32 13q-18 6 -35 6q-19 0 -35 -4q-15 -3 -30 -12q-16 -12 -24 -26
q-12 -15 -20 -42q-3 -11 3 -31q6 -21 25 -38q2 -1 18 -13q8 -5 28 -13q19 -6 40 -9q20 -4 51 -1q7 0 10 1h10q33 7 44 10q18 5 51 17l36 -94q-38 -16 -74 -24q-39 -8 -66 -11q-27 -5 -60 -16q-59 -23 -74 -30q-31 -12 -77 -34q-38 -17 -67 -32z" />
    <glyph glyph-name="uniFEFB" unicode="&#xfedf;&#xfe8e;" horiz-adv-x="1200" arabic-form="isolated" 
d="M973 1473q1 -4 3 -35q3 -32 6 -79q4 -44 9 -109q9 -120 9 -130q4 -44 10 -136q7 -102 8 -134q5 -65 6 -118q2 -74 2 -92q0 -52 -4 -108q-3 -61 -23 -133q-19 -67 -63 -145q-47 -76 -124 -142q-80 -68 -204 -126q-125 -57 -304 -93l-31 147q110 23 191 52q79 26 145 62
q-8 36 -19 74q-18 61 -38 116q-25 72 -63 161q-41 95 -96 209l-105 216l-88 184l-62 130l-12.5 26t-8.5 18l-2 5l136 65q0 -2 11 -24q7 -16 29 -62l45 -93l56 -118l66 -135l70 -146q92 -189 140 -318q54 -143 73 -214q52 52 77 102q27 49 40 103q14 51 15 99q2 62 2 88
q0 18 -2 90q-1 54 -6 119q-1 8 -4 57t-5 76q-1 21 -2.5 44t-3.5 51l-3 43q-1 10 -4.5 57t-4.5 71q-2 22 -5 58t-4 50q-5 46 -6 75q0 8 -0.5 15t-0.5 10l-1 4z" />
    <glyph glyph-name="uniFEFC" unicode="&#xfee0;&#xfe8e;" horiz-adv-x="1271" arabic-form="final" 
d="M1024 478q0 -18 6 -49q4 -31 18 -67q11 -35 32 -75q19 -36 50 -69q26 -27 68 -50q41 -19 90 -19v-149q-58 0 -112 17q-48 16 -93 46q-40 27 -75 67q-34 40 -55 80q-31 -58 -83 -116q-53 -58 -130 -108q-74 -49 -185 -94q-108 -42 -252 -72l-29 149q99 19 190 49
q89 32 145 63q-2 10 -9 37l-10 38q-30 93 -38 116q-31 84 -64 160q-33 81 -95 209l-105 216l-88 185l-62 128q-22 48 -24 50l138 65l2 -5q2 -5 8.5 -18l12.5 -26l61 -130l88 -184l105 -215q93 -193 139 -317q46 -120 72 -214q52 50 78 101q27 49 41 103q13 51 15 98
q2 64 2 89q0 17 -2 91q-1 53 -6 118q-6 84 -8 134q-4 50 -10 138l-5.5 67.5t-4.5 60.5q-1 10 -4 49.5t-4 58.5q-4 44 -6 74l-3 29l150 13q2 -9 3 -46q2 -36 6 -90q3 -58 6 -124q6 -89 8 -144q1 -8 9 -150q3 -45 7 -145l7 -127q1 -11 2.5 -46.5t2.5 -49.5z" />
    <glyph glyph-name="uni06440671.isol" unicode="&#xfedf;&#xfb51;" horiz-adv-x="1155" 
d="M973 1473q1 -4 3 -35q3 -32 6 -79q4 -44 9 -109q9 -120 9 -130q4 -44 10 -136q7 -102 8 -134q5 -65 6 -118q2 -74 2 -92q0 -52 -4 -108q-3 -61 -23 -133q-19 -67 -63 -145q-47 -76 -124 -142q-80 -68 -204 -126q-125 -57 -304 -93l-31 147q110 23 191 52q79 26 145 62
q-8 36 -19 74q-18 61 -38 116q-25 72 -63 161q-41 95 -96 209l-105 216l-88 184l-62 130l-12.5 26t-8.5 18l-2 5l136 65q0 -2 11 -24q7 -16 29 -62l45 -93l56 -118l66 -135l70 -146q92 -189 140 -318q54 -143 73 -214q52 52 77 102q27 49 40 103q14 51 15 99q2 62 2 88
q0 18 -2 90q-1 54 -6 119q-1 8 -4 57t-5 76q-1 21 -2.5 44t-3.5 51l-3 43q-1 10 -4.5 57t-4.5 71q-2 22 -5 58t-4 50q-5 46 -6 75q0 8 -0.5 15t-0.5 10l-1 4zM127 1506q18 -2 55 -4q33 0 61 4q33 5 59 12q30 9 49 25q23 23 26 52q0 10 -5 22q-4 7 -11 14q-19 21 -38 22
q-21 2 -36 -1q-53 -9 -93 -49q-27 -27 -43 -53q-19 -32 -24 -44zM-104 1473l-16 61q26 13 47 20q3 1 41 12q22 3 36 1q16 -3 28 -9q16 -9 21 -14q7 -5 17 -17q15 27 30 51q18 34 54 68q21 21 58 42q36 17 64 21q39 8 70 -1q34 -11 57 -35q18 -20 25 -39q9 -21 6 -44
q-2 -56 -47 -94q-17 -15 -45 -26q-22 -9 -51 -16q-30 -7 -54 -8q-36 -2 -52 -2q-19 0 -47 2q-22 2 -29 3q-23 3 -45 12q-13 7 -23 15q-9 6 -24 25q-14 11 -35 8q-18 -3 -40 -11q-28 -13 -46 -25z" />
    <glyph glyph-name="uni06440671.fina" unicode="&#xfee0;&#xfb51;" horiz-adv-x="1285" 
d="M1024 478q0 -18 6 -49q4 -31 18 -67q11 -35 32 -75q19 -36 50 -69q26 -27 68 -50q41 -19 90 -19v-149q-58 0 -112 17q-48 16 -93 46q-40 27 -75 67q-34 40 -55 80q-31 -58 -83 -116q-53 -58 -130 -108q-74 -49 -185 -94q-108 -42 -252 -72l-29 149q99 19 190 49
q89 32 145 63q-2 10 -9 37l-10 38q-30 93 -38 116q-31 84 -64 160q-33 81 -95 209l-105 216l-88 185l-62 128q-22 48 -24 50l138 65l2 -5q2 -5 8.5 -18l12.5 -26l61 -130l88 -184l105 -215q93 -193 139 -317q46 -120 72 -214q52 50 78 101q27 49 41 103q13 51 15 98
q2 64 2 89q0 17 -2 91q-1 53 -6 118q-6 84 -8 134q-4 50 -10 138l-5.5 67.5t-4.5 60.5q-1 10 -4 49.5t-4 58.5q-4 44 -6 74l-3 29l150 13q2 -9 3 -46q2 -36 6 -90q3 -58 6 -124q6 -89 8 -144q1 -8 9 -150q3 -45 7 -145l7 -127q1 -11 2.5 -46.5t2.5 -49.5zM93 1439
q24 -3 55 -3q30 -1 61 3q35 5 59 13q29 7 49 24q23 23 26 52q0 10 -5 22q-4 7 -11 14q-19 21 -38 22q-21 2 -36 -1q-53 -9 -93 -49q-28 -28 -43 -54q-17 -28 -24 -43zM-138 1406l-16 61q26 13 47 20q21 8 41 11q17 5 36 2q17 -3 28 -10q14 -6 21 -13q7 -5 17 -17l30 52
q21 35 54 67q26 26 58 41q30 17 64 22q40 8 70 -2q34 -9 57 -34q18 -20 25 -39q9 -21 6 -44q-2 -56 -47 -94q-17 -15 -45 -26q-22 -9 -51 -16q-30 -7 -54 -8q-36 -2 -52 -2q-19 0 -47 2q-22 2 -29 3q-23 3 -45 12q-11 6 -23 14q-9 8 -24 26q-14 11 -35 8q-18 -3 -40 -11
q-28 -13 -46 -25z" />
    <glyph glyph-name="uni0621" unicode="&#x621;" horiz-adv-x="1264" arabic-form="isolated" 
d="M992 225q-43 -11 -74 -21q-37 -10 -62 -18l-60 -18l-64 -17q-96 -28 -184 -64q-94 -39 -183 -84l-68 133q20 11 30 16q4 3 47 24q16 8 60 28l68 29q-3 2 -12 9l-13 10q-11 8 -19 16q-59 55 -80 124q-23 67 -3 134q72 231 305 231q52 0 99 -15q53 -19 83 -35
q39 -21 59 -37q26 -19 28 -21l-99 -115q-10 9 -26 20q-17 13 -41 24q-23 12 -49 20q-27 9 -54 9q-29 0 -54 -7q-27 -8 -48 -22t-38 -39q-16 -23 -22 -58q-4 -17 4 -48q8 -26 38 -56q10 -9 27 -21q18 -12 42 -20q28 -10 59 -14q37 -5 76 -1q50 5 83 14q41 11 89 30z" />
    <glyph glyph-name="uni0622" unicode="&#x622;" horiz-adv-x="678" arabic-form="isolated" 
d="M408 1453q1 -8 7 -117l9 -179l9 -219q3 -81 7 -238q2 -162 2 -238q0 -128 -4 -216q-5 -100 -12 -173q-9 -75 -24 -109l-138 41q9 23 15 77t9 132q2 56 4 174q0 132 -2 203q0 69 -4 221q-4 150 -8 224q-1 19 -9 214q-4 86 -11 193zM390 1579q-36 0 -60 5q-8 1 -17.5 2.5
l-21.5 3.5l-18 3q-43 9 -66 11q-28 4 -50 -3t-41 -29q-20 -24 -39 -65l-136 62q37 83 85 125q45 39 94 53q48 13 96 7q37 -4 86 -13l46 -9q20 -4 42 -4q36 0 72 14q33 13 60 32q26 16 42 32q11 9 17 15l109 -104q-2 -2 -26 -23q-20 -18 -64 -48q-46 -27 -94 -46
q-52 -21 -116 -21z" />
    <glyph glyph-name="uni0623" unicode="&#x623;" horiz-adv-x="613" arabic-form="isolated" 
d="M366 1453q1 -8 7 -117l9 -179l9 -219q3 -81 7 -238q2 -162 2 -238q0 -128 -4 -216q-5 -100 -12 -173q-9 -75 -24 -109l-138 41q9 23 15 77t9 132q2 56 4 174q0 132 -2 203q0 69 -4 221q-4 150 -8 224q-1 19 -9 214q-4 86 -11 193zM115 1515l-45 88q18 10 52 27
q29 15 85 39q-7 3 -17 11l-12 12q-39 35 -54 82q-16 44 -2 90q48 154 204 154q30 0 65 -10q38 -15 55 -24q20 -11 40 -24q15 -12 18 -15l-66 -76l-18 13q-14 10 -26 16q-22 10 -34 14q-18 5 -34 5q-19 0 -34 -3q-19 -5 -30 -13q-12 -7 -26 -25q-13 -22 -19 -43q-3 -11 3 -31
q6 -21 25 -38q6 -5 19 -13q10 -7 28 -13q10 -4 38 -10q24 -3 52 0h10q3 1 10 1q33 7 44 10q18 5 51 17l36 -94q-38 -16 -74 -24q-39 -8 -66 -11q-30 -6 -59 -17q-17 -5 -75 -28l-77 -34q-49 -23 -67 -33z" />
    <glyph glyph-name="uni0624" unicode="&#x624;" horiz-adv-x="984" arabic-form="isolated" 
d="M302 -652l-46 145q20 7 38 14q34 13 85 39q46 25 108 68q56 39 109 98q53 56 90 130q37 72 48 164q-12 -1 -39 -1h-44h-143q-100 0 -169 30q-67 29 -112 77q-41 44 -62 106q-19 57 -19 116q0 52 12 104q10 47 34 104q27 55 54 92q33 45 70 76q38 32 84 52q44 19 94 19
q84 0 146 -37q62 -38 104 -97q43 -59 70 -135q26 -70 44 -153q14 -70 22 -149q7 -81 8 -124v-3q3 -103 -20 -185q-20 -80 -61 -154q-40 -70 -91 -126q-51 -55 -106 -100q-62 -48 -107 -74q-50 -31 -96 -52q-12 -6 -71 -32l-16.5 -5.5t-12.5 -4.5zM494 629q-36 0 -70 -27
q-34 -24 -64 -68q-27 -39 -46 -94q-17 -56 -17 -106q0 -27 7 -56q8 -32 29 -58q22 -27 64 -46q42 -18 111 -18h143h81q-3 47 -10 90q-6 49 -18 104q-10 47 -28 102q-19 54 -44 90q-24 38 -59 63q-35 24 -79 24zM701 1039q-82 -32 -150 -37q-17 -3 -64 -18q-70 -28 -79 -32
q-45 -18 -83 -36l-72 -35l-49 95l11.5 6t21 10.5l23.5 11.5q40 20 91 41l-19 13q-4 6 -13 12q-42 37 -57 88q-16 48 -2 96q51 165 218 165q35 0 70 -11q19 -6 60 -24l20 -12t22 -14q11 -10 20 -16l-71 -82q-8 8 -19 14q-8 6 -28 18q-27 11 -36 14q-19 6 -38 6q-22 0 -37 -4
q-19 -3 -31 -13q-15 -11 -27 -27q-12 -18 -21 -46q-5 -14 3 -34q8 -21 27 -40q12 -10 19 -14q14 -9 30 -14q16 -7 42 -10q20 -4 55 -2q8 2 11 2q7 0 10 1q48 6 102 28z" />
    <glyph glyph-name="uni0625" unicode="&#x625;" horiz-adv-x="592" arabic-form="isolated" 
d="M346 1453q1 -8 7 -117l9 -179l9 -219q3 -81 7 -238q2 -162 2 -238q0 -128 -4 -216q-5 -100 -12 -173q-9 -75 -24 -109l-138 41q9 23 15 77t9 132q2 56 4 174q0 132 -2 203q0 69 -4 221q-4 150 -8 224q-1 19 -9 214q-4 86 -11 193zM109 -624l-45 88q21 12 52 26
q27 15 85 40q-9 4 -17 12q-5 4 -12 11q-38 34 -54 81q-16 46 -2 91q48 154 204 154q36 0 65 -11q29 -8 55 -23q25 -14 40 -25q13 -9 18 -14l-66 -76l-18 13q-14 10 -26 16q-22 10 -34 13q-16 6 -34 6q-21 0 -34 -4q-18 -3 -30 -12q-14 -9 -26 -26q-11 -16 -19 -42
q-3 -11 3 -31q6 -21 25 -38q6 -5 19 -13q10 -7 28 -13q14 -6 38 -9q22 -4 52 -1q7 0 10 1h10q33 7 44 10q18 5 51 17l36 -94q-38 -16 -74 -24q-39 -8 -66 -11q-28 -5 -59 -16q-53 -20 -75 -30q-31 -12 -77 -34q-38 -17 -67 -32z" />
    <glyph glyph-name="uni0626" unicode="&#x626;" horiz-adv-x="1777" arabic-form="isolated" 
d="M778 -624q-186 0 -314 55q-131 56 -205 167q-216 320 66 1015l140 -56q-78 -194 -111 -337q-34 -143 -37 -250q-3 -103 17 -175q18 -66 49 -113q52 -77 151 -118q99 -39 244 -39q109 0 196 16q93 16 168 43q80 29 134 62q58 32 101 70q41 38 63 72q21 36 21 65
q2 21 -7 33q-6 14 -28 24q-16 10 -56 20q-52 10 -95 17q-40 5 -75 13q-36 5 -80 20q-34 11 -77 32q-39 22 -67 50q-31 31 -48 71q-20 41 -25 99q-5 66 17 131q21 67 60 129q37 62 90 118q51 55 106 94q68 49 134 75t124 33t106 3q47 -4 84 -14q38 -9 57 -19l11.5 -5.5
t8.5 -4t4 -1.5l-73 -131l37 66l-37 -68l-32 14q-32 11 -80 14q-48 1 -116 -14q-68 -19 -140 -71q-48 -34 -87 -76q-38 -41 -69 -89q-29 -51 -43 -90q-15 -45 -12 -82q3 -39 19 -62q15 -23 45 -40q26 -13 75 -26q62 -12 107 -19q58 -11 105 -21q56 -12 102 -38q44 -24 78 -70
q30 -46 29 -118q-2 -57 -31 -113q-29 -57 -82 -109q-50 -50 -129 -99q-70 -43 -167 -80q-95 -35 -200 -53q-103 -20 -226 -20zM1024 724q-82 -32 -150 -37q-30 -5 -64 -19q-20 -6 -80 -30l-82 -37l-72 -35l-49 95l55 28q59 28 92 41q-16 11 -18 14q-4 2 -8.5 6t-5.5 5
q-41 36 -58 88q-15 49 -1 96q51 165 218 165q35 0 71 -11q37 -12 58 -25q26 -12 42 -26l14 -10l7 -5l-71 -82q-6 6 -18 15q-25 14 -30 16q-14 9 -35 15q-20 6 -38 6q-21 0 -37 -3q-20 -5 -32 -14q-15 -12 -26 -28q-12 -16 -21 -45q-5 -14 3 -34q8 -21 27 -40q12 -10 19 -14
q12 -7 30 -15q15 -5 42 -10q21 -3 55 -1q8 2 11 2q7 0 10 1q48 6 102 28z" />
    <glyph glyph-name="uni0627" unicode="&#x627;" horiz-adv-x="573" arabic-form="isolated" 
d="M356 1452q1 -12 7 -118q4 -73 9 -178l9 -219q3 -83 7 -239q2 -160 2 -237q0 -128 -4 -216q-5 -100 -12 -173q-9 -75 -24 -109l-138 41q9 23 15 76q6 56 9 132q2 56 4 174q0 133 -2 204q0 70 -4 220t-8 224q-1 21 -9 215q-4 86 -11 193z" />
    <glyph glyph-name="uni0628" unicode="&#x628;" horiz-adv-x="2074" arabic-form="isolated" 
d="M1780 813q23 -39 44 -85q22 -43 44 -96q26 -66 36 -98q17 -49 28 -95q10 -40 10 -79q1 -38 -12 -72q-14 -35 -41 -65t-76 -59q-50 -30 -121 -54q-74 -24 -150 -41q-69 -16 -163 -31q-94 -13 -161 -20q-78 -9 -144 -12q-57 -4 -108 -4q-57 0 -96 1q-70 2 -124 8
q-72 8 -140 22q-72 15 -142 42q-69 27 -128 69q-62 46 -100 104q-138 211 11 573l138 -58q-59 -144 -65 -251q-5 -110 43 -181q30 -44 77 -75q47 -30 103 -50q63 -22 117 -30q58 -11 118 -16q57 -5 106 -6q33 -1 82 -1q73 0 178 7q115 11 175 21q92 15 162 31q80 17 139 36
q67 21 107 40q43 20 63 39q-3 47 -18 103q-13 53 -36 109q-24 58 -48 107q-23 49 -51 95zM1189 -317l-136 -136l-136 137l135 135z" />
    <glyph glyph-name="uni0629" unicode="&#x629;" horiz-adv-x="1020" arabic-form="isolated" 
d="M530 1q-67 0 -136 20q-66 19 -120 59q-54 39 -87 96t-33 132q0 72 18 139q15 60 43 125q24 53 55 104q33 51 54 80q-7 2 -16 5q-2 1 -5 1q-1 1 -2 1l40 146l31 -9q38 -13 68 -26q42 -16 92 -42q48 -22 104 -60q47 -30 102 -79q53 -49 88 -101q39 -54 62 -122
q24 -69 24 -148q0 -57 -16 -112q-15 -56 -57 -104q-43 -47 -117 -76q-75 -29 -192 -29zM469 694q-13 -16 -43 -57q-26 -34 -55 -89q-23 -43 -47 -112q-19 -66 -19 -128q0 -41 23 -72q21 -29 56 -49t74 -27q39 -9 72 -9q64 0 107 9q44 9 71 30q27 19 40 52q13 32 13 80
q0 69 -27 126q-27 58 -70 104q-42 46 -94 82q-56 37 -101 60zM431 1270l-134 -133l-137 135l135 136zM774 1270l-135 -133l-136 135l136 136z" />
    <glyph glyph-name="uni062A" unicode="&#x62a;" horiz-adv-x="2059" arabic-form="isolated" 
d="M1772 813q23 -39 44 -85q22 -43 44 -96q26 -66 36 -98q17 -49 28 -95q10 -40 10 -79q1 -38 -12 -72q-14 -35 -41 -65t-76 -59q-50 -30 -121 -54q-74 -24 -150 -41q-69 -16 -163 -31q-94 -13 -161 -20q-78 -9 -144 -12q-57 -4 -108 -4q-57 0 -96 1q-70 2 -124 8
q-72 8 -140 22q-72 15 -142 42q-69 27 -128 69q-62 46 -100 104q-138 211 11 573l138 -58q-59 -144 -65 -251q-5 -110 43 -181q30 -44 77 -75q47 -30 103 -50q63 -22 117 -30q58 -11 118 -16q57 -5 106 -6q33 -1 82 -1q73 0 178 7q115 11 175 21q92 15 162 31q80 17 139 36
q67 21 107 40q43 20 63 39q-3 47 -18 103q-13 53 -36 109q-24 58 -48 107q-23 49 -51 95zM991 802l-134 -133l-137 135l135 136zM1334 802l-135 -133l-136 135l136 136z" />
    <glyph glyph-name="uni062B" unicode="&#x62b;" horiz-adv-x="2049" arabic-form="isolated" 
d="M1784 813q23 -39 44 -85q22 -43 44 -96q26 -66 36 -98q17 -49 28 -95q10 -40 10 -79q1 -38 -12 -72q-14 -35 -41 -65t-76 -59q-50 -30 -121 -54q-74 -24 -150 -41q-69 -16 -163 -31q-94 -13 -161 -20q-78 -9 -144 -12q-57 -4 -108 -4q-57 0 -96 1q-70 2 -124 8
q-72 8 -140 22q-72 15 -142 42q-69 27 -128 69q-62 46 -100 104q-138 211 11 573l138 -58q-59 -144 -65 -251q-5 -110 43 -181q30 -44 77 -75q47 -30 103 -50q63 -22 117 -30q58 -11 118 -16q57 -5 106 -6q33 -1 82 -1q73 0 178 7q115 11 175 21q92 15 162 31q80 17 139 36
q67 21 107 40q43 20 63 39q-3 47 -18 103q-13 53 -36 109q-24 58 -48 107q-23 49 -51 95zM1002 812l-127 -129l-130 130l129 128zM1184 1085l-127 -129l-129 130l128 128zM1230 683l-127 130l126 128l130 -129z" />
    <glyph glyph-name="uni062C" unicode="&#x62c;" horiz-adv-x="1577" arabic-form="isolated" 
d="M1447 -488l66 -136q-136 -65 -283 -100q-144 -33 -284 -33q-128 0 -246 29q-118 31 -209 88q-131 83 -199 209q-67 129 -67 293q0 115 37 204q37 92 100 164t148 128q92 58 179 94q89 39 192 68q90 26 190 46q-76 29 -139 60l-112 55q-66 34 -110 53q-48 21 -91 21
q-39 0 -87 -17q-45 -16 -79 -44q-33 -28 -57 -58q-27 -35 -42 -58q-18 -27 -26 -44l-9 -18l-137 64l2 3q1 3 4.5 9.5l6.5 12.5q14 27 34 57q21 32 54 73q32 39 74 74q55 46 124 71q71 27 138 27q38 0 67 -7q39 -9 66 -20q22 -8 66 -28l71 -36l105 -53q55 -27 130 -55
q71 -26 164 -52q86 -24 204 -43l-10 -150q-2 0 -50 -3q-32 -1 -128 -10q-68 -8 -177 -26q-96 -18 -203 -48q-98 -28 -202 -73q-97 -43 -176 -107q-77 -62 -124 -144q-47 -85 -47 -190q0 -125 49 -220q50 -94 147 -155q81 -51 183 -73q105 -24 220 -21t236 33q119 29 237 86z
M1056 -121l-136 -136l-136 137l135 135z" />
    <glyph glyph-name="uni062D" unicode="&#x62d;" horiz-adv-x="1642" arabic-form="isolated" 
d="M1441 -492l66 -136q-136 -65 -283 -100q-144 -33 -284 -33q-128 0 -246 29q-118 31 -209 88q-131 83 -199 209q-67 129 -67 293q0 115 37 204q37 92 100 164t148 128q92 58 179 94q89 39 192 68q90 26 190 46q-76 29 -139 60l-112 55q-66 34 -110 53q-48 21 -91 21
q-39 0 -87 -17q-45 -16 -79 -44q-33 -28 -57 -58q-27 -35 -42 -58q-18 -27 -26 -44l-9 -18l-137 64l2 3q1 3 4.5 9.5l6.5 12.5q14 27 34 57q21 32 54 73q32 39 74 74q55 46 124 71q71 27 138 27q38 0 67 -7q39 -9 66 -20q22 -8 66 -28l71 -36q16 -9 105 -53q55 -27 130 -55
q71 -26 164 -52q86 -24 204 -43l-10 -150q-2 0 -50 -3q-32 -1 -128 -10q-68 -8 -177 -26q-96 -18 -203 -48q-98 -28 -202 -73q-97 -43 -176 -107q-77 -62 -124 -144q-47 -85 -47 -190q0 -125 49 -220q50 -94 147 -155q81 -51 183 -73q105 -24 220 -21t236 33q119 29 237 86z
" />
    <glyph glyph-name="uni062E" unicode="&#x62e;" horiz-adv-x="1592" arabic-form="isolated" 
d="M1441 -495l66 -136q-138 -66 -283 -99q-142 -34 -284 -34q-130 0 -246 30q-116 29 -209 87q-131 83 -199 209q-67 129 -67 293q0 113 37 205q38 92 100 164q65 73 148 126q80 52 179 96q99 41 192 68q95 26 190 45q-69 26 -139 59l-112 56q-60 31 -110 54q-49 20 -91 20
q-39 0 -87 -17q-45 -16 -79 -44q-33 -28 -57 -58l-42 -57q-19 -32 -26 -45l-9 -18l-137 64l2 3q1 3 4.5 9.5l6.5 12.5q14 27 34 57q21 32 54 73q32 39 74 74q54 45 124 72q72 26 138 26q38 0 67 -7q37 -8 66 -19q44 -18 66 -30q23 -10 71 -35l105 -53q55 -27 130 -55
q71 -26 164 -52q86 -24 204 -43l-10 -150h-6q-5 -1 -17.5 -1.5t-26.5 -0.5q-47 -3 -128 -12q-72 -7 -177 -26q-87 -14 -203 -46q-102 -30 -202 -74q-96 -43 -176 -106q-79 -65 -124 -146q-47 -82 -47 -189q0 -127 49 -219q48 -94 147 -156q80 -50 183 -74q107 -23 220 -20
q115 3 236 33q119 29 237 86zM700 1248l-136 -136l-136 137l135 135z" />
    <glyph glyph-name="uni062F" unicode="&#x62f;" horiz-adv-x="1095" arabic-form="isolated" 
d="M525 1q-90 0 -165 18q-80 20 -128 41q-47 19 -84 40q-30 20 -33 21l87 122l24 -14q30 -17 66 -31q46 -19 102 -32q62 -14 131 -14q160 0 249 50q88 51 88 145q0 84 -31 161q-31 75 -77 144q-52 73 -101 122q-44 46 -101 96q-37 31 -79 61l-11.5 8l-9 6.5l-6.5 4.5t-4 3
l-2 1l81 126l43 -30q31 -20 94 -73q54 -47 116 -113q59 -60 116 -146q54 -85 87 -174q35 -94 35 -197q0 -9 -4 -55q-7 -40 -22 -72q-14 -35 -48 -77q-29 -36 -86 -71q-58 -32 -134 -51q-82 -20 -193 -20z" />
    <glyph glyph-name="uni0630" unicode="&#x630;" horiz-adv-x="1140" arabic-form="isolated" 
d="M525 1q-90 0 -165 18q-80 20 -128 41q-47 19 -84 40q-30 20 -33 21l87 122l24 -14q30 -17 66 -31q46 -19 102 -32q62 -14 131 -14q160 0 249 50q88 51 88 145q0 84 -31 161q-31 75 -77 144q-52 73 -101 122q-44 46 -101 96q-37 31 -79 61l-11.5 8l-9 6.5l-6.5 4.5t-4 3
l-2 1l81 126l43 -30q31 -20 94 -73q54 -47 116 -113q59 -60 116 -146q54 -85 87 -174q35 -94 35 -197q0 -9 -4 -55q-7 -40 -22 -72q-14 -35 -48 -77q-29 -36 -86 -71q-58 -32 -134 -51q-82 -20 -193 -20zM635 1404l-136 -136l-136 137l135 135z" />
    <glyph glyph-name="uni0631" unicode="&#x631;" horiz-adv-x="944" arabic-form="isolated" 
d="M199 -620l-65 137l1 1q1 0 3 1t4.5 2t6.5 3l8 4q19 9 57 32q39 23 80 51q39 26 92 69q56 49 90 86q45 45 80 100q36 56 56 115q21 62 21 128q0 33 -9 73q-9 43 -24 86q-12 40 -32 90l-36 88l-34 75q-18 34 -28 56l135 70l19 -39q18 -35 35 -74l42 -99q20 -49 40 -111
q17 -54 30 -112q12 -56 12 -103q0 -111 -41 -210q-42 -97 -105 -177q-63 -81 -137 -143q-78 -65 -139 -105q-59 -41 -111 -68z" />
    <glyph glyph-name="uni0632" unicode="&#x632;" horiz-adv-x="944" arabic-form="isolated" 
d="M199 -620l-65 137l1 1q1 0 3 1t4.5 2t6.5 3l8 4q19 9 57 32q39 23 80 51q39 26 92 69q56 49 90 86q45 45 80 100q36 56 56 115q21 62 21 128q0 33 -9 73q-9 43 -24 86q-12 40 -32 90l-36 88l-34 75q-18 34 -28 56l135 70l19 -39q18 -35 35 -74l42 -99q20 -49 40 -111
q17 -54 30 -112q12 -56 12 -103q0 -111 -41 -210q-42 -97 -105 -177q-63 -81 -137 -143q-78 -65 -139 -105q-59 -41 -111 -68zM676 1020l-136 -136l-136 137l135 135z" />
    <glyph glyph-name="uni0633" unicode="&#x633;" horiz-adv-x="2807" arabic-form="isolated" 
d="M2547 850q2 -6 23 -51q18 -39 39 -96q21 -58 39 -127q18 -64 26 -142q7 -70 -2 -144q-11 -71 -45 -129q-47 -75 -128 -113q-82 -38 -197 -38q-41 0 -80 12q-41 12 -78 35q-32 18 -72 55q-32 29 -61 73q-25 -42 -53 -71q-33 -34 -70 -55q-39 -22 -89 -36q-48 -13 -112 -13
q-56 0 -100 16q-49 18 -80 41q-5 -337 -183 -513q-178 -174 -517 -174q-9 0 -57 2q-35 2 -80 9t-96 21q-45 12 -102 37q-45 20 -99 57q-51 38 -87 84q-153 190 -84 508q15 68 34 128l41 122l35 92q10 29 16 40l138 -58q0 -1 -6 -16q-2 -5 -8 -19l-10 -24l-22 -63
q-3 -9 -26 -74q-9 -27 -25 -81q-13 -44 -20 -79q-53 -250 53 -382q43 -53 107 -86q60 -31 123 -46q60 -15 108 -18q44 -4 67 -4q275 0 413 136q135 138 135 415q0 77 -17 157q-16 74 -38 136q-19 60 -38 98l-9.5 21t-6.5 14l-1 4l134 69l1 -2q1 -2 3 -6.5t4 -8.5l18 -39
q17 -41 24 -60q5 -13 26 -75l7 2q0 -1 6 -18q3 -12 16 -43q13 -28 30 -56q19 -30 43 -54q25 -26 57 -42q34 -17 73 -17q28 0 63 5q33 5 61 21t54 47q25 32 43 85q17 45 30 131q10 88 10 189h156q0 -43 -5 -100q-6 -68 -8 -103q-4 -61 16 -114q19 -51 53 -86q29 -33 70 -56
q41 -19 72 -19q150 0 196 79q22 35 26 81q4 47 0 99q-7 58 -20 106q-12 54 -30 102q-9 31 -33 89q-13 32 -29 64z" />
    <glyph glyph-name="uni0634" unicode="&#x634;" horiz-adv-x="2879" arabic-form="isolated" 
d="M2597 838q2 -6 23 -51q18 -39 39 -96q21 -58 39 -127q18 -64 26 -142q7 -70 -2 -144q-11 -71 -45 -129q-47 -75 -128 -113q-82 -38 -197 -38q-41 0 -80 12q-41 12 -78 35q-32 18 -72 55q-32 29 -61 73q-25 -42 -53 -71q-33 -34 -70 -55q-39 -22 -89 -36q-48 -13 -112 -13
q-56 0 -100 16q-49 18 -80 41q-5 -337 -183 -513q-178 -174 -517 -174q-9 0 -57 2q-35 2 -80 9t-96 21q-45 12 -102 37q-45 20 -99 57q-51 38 -87 84q-153 190 -84 508q15 68 34 128l41 122l35 92q10 29 16 40l138 -58q0 -1 -6 -16q-2 -5 -8 -19l-10 -24l-22 -63
q-3 -9 -26 -74q-9 -27 -25 -81q-13 -44 -20 -79q-53 -250 53 -382q43 -53 107 -86q60 -31 123 -46q60 -15 108 -18q44 -4 67 -4q275 0 413 136q135 138 135 415q0 77 -17 157q-16 74 -38 136q-19 60 -38 98l-9.5 21t-6.5 14l-1 4l134 69l1 -2q1 -2 3 -6.5t4 -8.5l18 -39
q17 -41 24 -60q5 -13 26 -75l7 2q0 -1 6 -18q3 -12 16 -43q13 -28 30 -56q19 -30 43 -54q25 -26 57 -42q34 -17 73 -17q28 0 63 5q33 5 61 21t54 47q25 32 43 85q17 45 30 131q10 88 10 189h156q0 -43 -5 -100q-6 -68 -8 -103q-4 -61 16 -114q19 -51 53 -86q29 -33 70 -56
q41 -19 72 -19q150 0 196 79q22 35 26 81q4 47 0 99q-7 58 -20 106q-12 54 -30 102q-9 31 -33 89q-13 32 -29 64zM2013 1021l-127 -129l-130 130l129 128zM2195 1294l-127 -129l-129 130l128 128zM2241 892l-127 130l126 128l130 -129z" />
    <glyph glyph-name="uni0635" unicode="&#x635;" horiz-adv-x="2822" arabic-form="isolated" 
d="M2651 701q47 -50 69 -113q23 -63 18 -134q-5 -83 -48 -164t-124 -143q-81 -63 -203 -102q-121 -39 -287 -39q-30 0 -52 1q-54 2 -81 4q-45 3 -100 9q-55 5 -110 15q-65 12 -112 25q-53 13 -105 35v-5q0 -344 -178 -522q-179 -179 -522 -179q-10 0 -56 2q-36 1 -81 9
t-96 21q-45 12 -102 37q-53 23 -99 58q-47 32 -87 83q-153 190 -84 508q14 66 37 129q25 74 46 122q10 27 39 93q7 17 19 40l136 -66l-7 -15l-20 -42q-15 -33 -26 -62l-29 -74l-27 -80q-13 -38 -21 -77q-52 -247 54 -381q29 -38 68 -62q32 -23 79 -44q39 -16 82 -27
q21 -5 76 -15q38 -3 61 -6q10 0 22.5 -0.5t15.5 -0.5q277 0 414 137q136 136 136 414q0 50 -8 106q-10 58 -22 101q-15 55 -28 90q-6 17 -16.5 44t-11.5 29q-12 24 -22 48q-9 18 -10 19l133 70l14 -29q11 -19 31 -68q15 -38 36 -98q20 -58 33 -121q7 -10 19 -17q4 -3 25 -15
q36 47 80 97q53 61 111 119q69 68 138 124q71 59 157 111q76 46 171 80q90 30 181 30q85 0 153 -28q71 -27 121 -81zM2588 463q2 41 -10 74q-12 35 -36 60q-27 30 -72 47q-41 16 -93 16q-84 0 -178 -40q-95 -44 -182 -106q-88 -64 -173 -148q-92 -94 -152 -168
q62 -14 96 -18q30 -6 99 -14q66 -6 98 -8q64 -2 91 -2q127 0 222 26q96 27 158 70t96 98q32 57 36 113z" />
    <glyph glyph-name="uni0636" unicode="&#x636;" horiz-adv-x="2877" arabic-form="isolated" 
d="M2691 698q47 -50 69 -112q22 -64 18 -135q-5 -84 -48 -163q-42 -82 -124 -144q-81 -63 -203 -102q-121 -39 -287 -39q-30 0 -52 1q-54 2 -81 4q-18 1 -100 8q-62 7 -110 16q-60 11 -112 24q-55 15 -105 36v-5q0 -342 -178 -523q-181 -178 -522 -178q-10 0 -56 2
q-36 2 -81 9t-96 21q-45 12 -102 37q-45 20 -99 57q-51 38 -87 84q-153 190 -84 508q14 65 37 130q23 67 46 122q11 29 39 92q7 17 19 40l136 -66l-8 -15l-19 -43q-13 -27 -26 -61l-29 -74l-27 -79q-14 -44 -21 -78q-52 -248 54 -381q26 -34 68 -63q42 -27 79 -42
q36 -16 82 -28q43 -11 76 -14q34 -6 61 -6q17 -2 38 -2q275 0 414 136q136 139 136 415q0 50 -8 106q-10 58 -22 101q-15 55 -28 90q-7 19 -28 72q-13 27 -22 49q-9 18 -10 19l133 70l1 -3q2 -3 3 -6t4 -8t6 -11q13 -26 31 -68l36 -100q20 -56 33 -120q3 -4 19 -18l25 -14
q36 47 80 97q53 61 111 119q69 68 138 124q71 59 157 111q79 47 171 79q89 31 181 31q84 0 153 -27q72 -28 121 -82zM2628 460q2 41 -10 74q-12 34 -36 60q-27 30 -72 47q-41 16 -93 16q-89 0 -178 -41q-89 -38 -182 -106q-93 -67 -173 -148q-83 -81 -152 -167q42 -9 96 -19
q88 -11 99 -12q55 -7 98 -8q48 -3 91 -3q129 0 222 27q94 25 158 69t96 99q31 54 36 112zM2478 1183l-136 -136l-136 137l135 135z" />
    <glyph glyph-name="uni0637" unicode="&#x637;" horiz-adv-x="1782" arabic-form="isolated" 
d="M1500 776q80 -58 120 -152q37 -96 21 -200q-9 -62 -33 -122q-21 -56 -61 -112q-36 -50 -91 -92q-54 -41 -119 -63q-67 -23 -169 -39q-103 -13 -196 -16q-97 -4 -210 2q-118 7 -211 20q-85 10 -197 33q-92 19 -170 45l36 66l35 67l191 -42q2 4 9.5 15l12.5 18q20 30 34 46
q19 29 44 58q19 26 52 66q10 34 16 102q4 93 2 154q0 53 -6 189q-4 87 -14 209q-8 107 -18 212q-10 123 -19 199l150 16l9 -88q2 -17 14 -127q1 -5 14 -156q7 -83 12 -173q6 -116 8 -179q2 -90 0 -173q3 3 9.5 8.5l11.5 10t9 8.5q4 5 29 27q91 82 185 135q95 54 181 74
q87 21 167 10q76 -10 142 -56zM1493 447q9 63 -11 118q-21 54 -69 87q-39 27 -95 32q-52 4 -119 -16q-62 -19 -133 -62q-68 -40 -140 -105q-47 -41 -92 -89q-48 -51 -84 -94q-39 -45 -72 -90q-29 -35 -58 -77q73 -11 122 -17q75 -8 157 -8q81 1 185 14q100 15 204 49
q52 17 87 43q38 30 60 62q25 36 38 73q14 41 20 80z" />
    <glyph glyph-name="uni0638" unicode="&#x638;" horiz-adv-x="1752" arabic-form="isolated" 
d="M1500 776q80 -58 120 -152q37 -96 21 -200q-9 -62 -33 -122q-21 -56 -61 -112q-36 -50 -91 -92q-54 -41 -119 -63q-67 -23 -169 -39q-103 -13 -196 -16q-97 -4 -210 2q-118 7 -211 20q-85 10 -197 33q-92 19 -170 45l36 66l35 67l191 -42q2 4 9.5 15l12.5 18q20 30 34 46
q19 29 44 58q19 26 52 66q10 34 16 102q4 93 2 154q0 53 -6 189q-4 87 -14 209q-8 107 -18 212q-10 123 -19 199l150 16l9 -88q2 -17 14 -127q1 -5 14 -156q7 -83 12 -173q6 -116 8 -179q2 -90 0 -173q3 3 9.5 8.5l11.5 10t9 8.5q4 5 29 27q91 82 185 135q95 54 181 74
q87 21 167 10q76 -10 142 -56zM1493 447q9 63 -11 118q-21 54 -69 87q-39 27 -95 32q-52 4 -119 -16q-62 -19 -133 -62q-68 -40 -140 -105q-47 -41 -92 -89q-48 -51 -84 -94q-39 -45 -72 -90q-29 -35 -58 -77q73 -11 122 -17q75 -8 157 -8q81 1 185 14q100 15 204 49
q52 17 87 43q38 30 60 62q25 36 38 73q14 41 20 80zM1451 1174l-136 -136l-136 137l135 135z" />
    <glyph glyph-name="uni0639" unicode="&#x639;" horiz-adv-x="1486" arabic-form="isolated" 
d="M915 312q-58 -7 -131 -34q-67 -25 -136 -64q-67 -38 -130 -87q-66 -52 -108 -99q-44 -48 -75 -105q-28 -52 -28 -102q0 -104 43 -181q46 -79 114 -127q72 -51 158 -74q88 -24 177 -24q99 0 195 17q98 19 163 40q72 21 113 39q42 18 43 19l65 -136q-10 -5 -26 -12
q-19 -9 -61 -24q-61 -21 -92 -30q-49 -17 -117 -31q-69 -15 -135 -23q-72 -9 -148 -9q-82 0 -159 16q-83 18 -149 47q-71 32 -132 78q-59 45 -105 108q-47 66 -70 139q-26 74 -26 168q0 75 36 155q37 79 97 150q63 73 141 134q79 62 167 108q-30 16 -44 25l-40 27
q-63 50 -96 117t-33 148q0 55 28 117q26 63 80 122q56 58 133 94q81 38 182 38q53 0 103 -12q46 -10 91 -29q38 -16 77 -39q32 -19 59 -38q30 -23 39 -32q3 -3 6 -5.5t5 -4t3 -2.5l2 -2l-105 -106l53 53l-53 -53q-2 0 -23 18q-17 14 -61 42q-39 22 -89 41q-48 19 -107 19
q-71 0 -121 -25q-52 -26 -84 -61q-30 -31 -50 -73q-16 -39 -17 -64q1 -50 19 -83q16 -32 52 -62q49 -38 126 -58q74 -18 173 -16h21q118 3 259 39l35 -147q-142 -21 -150 -22q-91 -14 -93 -14q-35 -3 -48 -6q-14 0 -16 -2z" />
    <glyph glyph-name="uni063A" unicode="&#x63a;" horiz-adv-x="1438" arabic-form="isolated" 
d="M915 312q-58 -7 -131 -34q-67 -25 -136 -64q-67 -38 -130 -87q-66 -52 -108 -99q-44 -48 -75 -105q-28 -52 -28 -102q0 -104 43 -181q46 -79 114 -127q72 -51 158 -74q88 -24 177 -24q99 0 195 17q98 19 163 40q72 21 113 39q42 18 43 19l65 -136q-10 -5 -26 -12
q-19 -9 -61 -24q-61 -21 -92 -30q-49 -17 -117 -31q-69 -15 -135 -23q-72 -9 -148 -9q-82 0 -159 16q-83 18 -149 47q-71 32 -132 78q-59 45 -105 108q-47 66 -70 139q-26 74 -26 168q0 75 36 155q37 79 97 150q63 73 141 134q79 62 167 108q-30 16 -44 25l-40 27
q-63 50 -96 117t-33 148q0 55 28 117q26 63 80 122q56 58 133 94q81 38 182 38q53 0 103 -12q46 -10 91 -29q38 -16 77 -39q32 -19 59 -38q30 -23 39 -32q3 -3 6 -5.5t5 -4t3 -2.5l2 -2l-105 -106l53 53l-53 -53q-2 0 -23 18q-17 14 -61 42q-39 22 -89 41q-48 19 -107 19
q-71 0 -121 -25q-52 -26 -84 -61q-30 -31 -50 -73q-16 -39 -17 -64q1 -50 19 -83q16 -32 52 -62q49 -38 126 -58q74 -18 173 -16h21q118 3 259 39l35 -147q-142 -21 -150 -22q-91 -14 -93 -14q-35 -3 -48 -6q-14 0 -16 -2zM992 1401l-136 -136l-136 137l135 135z" />
    <glyph glyph-name="uni0641" unicode="&#x641;" horiz-adv-x="2003" arabic-form="isolated" 
d="M1745 912q40 -47 75 -115q32 -69 49 -135q18 -72 21 -149q4 -75 -8 -154q-12 -78 -60 -133q-48 -57 -120 -96q-70 -40 -162 -64q-89 -26 -184 -39q-103 -15 -188 -19q-105 -5 -174 -5h-66q-23 0 -57 2l-6 1q-255 0 -420 58q-167 57 -246 172q-34 49 -49 98
q-17 46 -20 101q-4 48 2 101q5 52 16 94q9 46 24 82q11 35 23 67l5 17l143 -51l-7 -18l-30 -87q-14 -41 -24 -105q-7 -61 0 -111q8 -55 40 -101q58 -83 196 -125t349 -42h10q94 -4 201 -1q86 3 194 13q101 13 172 28q81 18 142 44q64 27 100 62q38 34 46 78
q-45 -10 -102 -21q-53 -10 -116 -10q-209 5 -301 122q-85 105 -47 280q13 55 40 104q31 55 71 91q41 39 99 66q56 25 128 25q65 0 128 -33q60 -32 113 -92zM1515 500q36 0 64 4q33 3 61 9q38 8 54 13q24 5 44 12q-9 82 -36 152q-27 71 -72 124q-29 35 -62 53q-32 18 -64 18
q-44 0 -78 -17q-35 -18 -58 -44q-24 -26 -36 -54q-14 -27 -19 -53q-23 -103 17 -154q24 -29 72 -45q46 -16 113 -18zM1646 1350l-136 -136l-136 137l135 135z" />
    <glyph glyph-name="uni0642" unicode="&#x642;" horiz-adv-x="1617" arabic-form="isolated" 
d="M1504 98v-21q0 -345 -177 -524q-177 -178 -523 -178q-8 0 -56 2q-35 2 -80 9q-45 8 -96 21q-45 12 -102 37q-52 24 -100 58q-50 36 -87 83q-152 191 -83 509q15 68 34 128l40 122l35 92l16 40l140 -59l-6 -16q-10 -22 -17 -43q-4 -8 -7.5 -18t-8.5 -23l-8 -21
q-3 -9 -26 -74q-11 -33 -25 -82q-13 -44 -20 -79q-54 -248 54 -380q26 -33 68 -63q42 -27 79 -42q36 -16 82 -28q41 -11 76 -15q13 -2 36 -5l24 -2q10 0 23 -0.5t15 -0.5q258 0 394 119q136 118 153 361h-37q-28 0 -43 -1h-144q-100 0 -169 30q-68 30 -112 78
q-41 46 -61 106q-19 56 -19 115q0 76 27 157q27 77 74 144q49 66 111 105q64 41 137 41q87 0 157 -46q71 -46 118 -132q50 -86 79 -214q29 -130 35 -290zM1271 155h79q-3 46 -10 91q-6 52 -18 103q-10 47 -28 103q-19 53 -43 90q-26 41 -59 64q-33 24 -77 24q-36 0 -71 -26
q-36 -27 -64 -70q-27 -40 -46 -95q-17 -54 -17 -106q0 -27 7 -56q8 -33 30 -58q20 -26 63 -45q39 -19 110 -19h144zM1068 1105l-134 -133l-137 135l135 136zM1411 1105l-135 -133l-136 135l136 136z" />
    <glyph glyph-name="uni0643" unicode="&#x643;" horiz-adv-x="2003" arabic-form="isolated" 
d="M1865 970q0 -5 0.5 -12.5t1 -19t0.5 -21.5q1 -13 1.5 -41.5t0.5 -43.5q2 -50 3 -106q2 -78 4 -116q0 -20 1 -58t1 -56q2 -33 4 -101q3 -69 -6 -113q-7 -40 -22 -74q-14 -28 -31 -45q-22 -22 -32 -31v1q-21 -15 -53 -33q-32 -16 -66 -30q-42 -16 -74 -25q-43 -12 -78 -17
q-157 -25 -326 -36q-173 -12 -332 1q-168 14 -314 56q-152 43 -273 129q-51 35 -77 94q-28 56 -36 136q-7 73 8 162q17 88 55 173l133 -23q-39 -92 -52 -157q-15 -66 -10 -120q4 -50 28 -91q23 -39 63 -73q46 -40 115 -67q75 -28 150 -42q81 -18 172 -24q60 -6 180 -10
q117 0 172 2q65 2 152 8q71 6 114 12q58 9 65 11q72 18 117 41q44 22 69 44t33 38q9 18 10 22q2 16 2 55q0 23 -2 101q0 17 -1.5 58.5t-2.5 65.5q-2 56 -6 128q-3 58 -6 106q-2 62 -2 64l-18 542l150 3zM1130 860q-12 3 -27 6q-4 0 -14 1.5t-15 2.5q-18 3 -36 3
q-15 0 -30 -3q-15 -1 -32 -9v2q-31 -13 -52 -43q-19 -28 -19 -61q0 -15 8 -36l-1 2q8 -20 20 -33q15 -16 30 -26t37 -18q20 -6 41 -6q14 0 21 1q11 1 21 6q17 5 51 21l22.5 13l22.5 13q24 14 43 29l58 -79q-37 -28 -97 -62l-144 -80l-227 -126l-48 87l179 100q-41 17 -72 49
q-32 30 -49 71q-14 36 -14 74q0 31 9 61q12 33 28 54q16 26 42 46q24 21 54 33q48 18 98 18q23 0 44 -3q23 -3 38 -6l38 -9z" />
    <glyph glyph-name="uni0644" unicode="&#x644;" horiz-adv-x="1476" arabic-form="isolated" 
d="M683 -597q-155 0 -275 63q-121 61 -189 176q-32 56 -53 132q-20 78 -14 180q4 104 45 234q42 137 131 292l132 -75q-63 -110 -98 -207q-38 -95 -52 -185q-15 -89 -5 -161q11 -78 44 -134q46 -77 134 -121q86 -43 200 -43q126 0 225 38q98 38 162 100q66 60 99 140
q33 78 33 159q0 19 -2 135q-1 42 -5 196q-4 160 -7 234q-6 164 -8 245q-2 47 -5 132t-4 102q-1 25 -7 199q-1 22 -2.5 70t-2.5 68q0 15 -0.5 28.5t-0.5 19.5l-1 6l150 7q1 -9 3 -65q2 -57 6 -144q6 -164 7 -200q2 -41 4.5 -119.5t3.5 -113.5q3 -85 7 -243l7 -229
q4 -157 5 -193q2 -116 2 -135q0 -75 -20 -142q-17 -67 -57 -137q-37 -64 -95 -122q-55 -55 -130 -98q-76 -41 -166 -65q-93 -24 -201 -24z" />
    <glyph glyph-name="uni0645" unicode="&#x645;" horiz-adv-x="1235" arabic-form="isolated" 
d="M164 -650q-2 63 -6 160.5t-5 116.5q-2 40 -4 102t-3 85l-2.5 64t-2.5 53l-3 63q0 4 -0.5 9.5t-0.5 8t-0.5 5.5t-0.5 5v10q-2 46 -2 76q-1 34 6 86q9 44 28 82q20 40 60 65q78 50 200 19q5 12 32 70q25 50 49 88q28 47 62 93q33 45 73 83q38 37 83 60q44 23 92 23
q65 0 113 -21q49 -19 86 -54q36 -34 60 -78q24 -40 40 -91q15 -46 21 -94q6 -47 6 -86q0 -37 -3 -77q-5 -44 -16 -82q-10 -40 -33 -75q-24 -36 -60 -58q-39 -23 -87 -29q-52 -5 -112 8q-60 11 -146 44q-81 32 -183 84q-54 28 -89 38q-38 13 -58 14q-23 3 -34 0q-9 -3 -13 -5
q-13 -7 -19 -30q-6 -30 -6 -48q-3 -23 -1 -53q0 -8 0.5 -23t1.5 -21l27 -683zM568 305q3 -1 5 -3q102 -51 163 -74q71 -28 112 -38q43 -10 70 -10q26 3 37 10q7 4 14 14t13 28q5 23 8 48q4 27 4 73q0 15 -1 30q-2 27 -7 53q-5 33 -16 64q-9 33 -30 62q-16 26 -48 46
q-29 19 -73 19q-25 0 -57 -27q-34 -29 -67 -74q-34 -44 -67 -103q-34 -60 -60 -118z" />
    <glyph glyph-name="uni0646" unicode="&#x646;" horiz-adv-x="1572" arabic-form="isolated" 
d="M1365 624q0 -1 1.5 -4l5 -10t6.5 -14q17 -33 28 -64q13 -28 36 -92q15 -39 35 -112q12 -41 27 -122q10 -72 10 -126q0 -347 -178 -524q-178 -179 -521 -179q-9 0 -57 2q-35 2 -80 9q-45 8 -96 21q-43 12 -102 37q-53 23 -99 58q-46 32 -88 83q-152 191 -83 508
q9 43 24 89l32 94l36 88q13 34 32 76l24 54l12 23l136 -66q-1 0 -10 -19q-2 -6 -9.5 -22l-12.5 -27q-2 -6 -13.5 -30.5t-17.5 -40.5q-29 -70 -33 -83q-18 -43 -31 -87q-15 -48 -22 -81q-55 -247 54 -381q30 -38 68 -62q35 -25 79 -43q39 -16 82 -27q39 -10 76 -15
q34 -4 61 -6q17 -1 38 -1q277 0 413 136t136 416q0 57 -10 108q-10 57 -24 108q-13 45 -32 100q-16 46 -32 82q-20 46 -25 56q-10 20 -10 22zM1006 510l-136 -136l-136 137l135 135z" />
    <glyph glyph-name="uni0647" unicode="&#x647;" horiz-adv-x="983" arabic-form="isolated" 
d="M493 1q-67 0 -136 20q-66 19 -121 59q-53 40 -86 96q-33 57 -33 132q0 69 17 139q17 62 44 125q25 56 56 104q28 45 53 80q-3 1 -9 2.5t-8 2.5q-1 0 -3 1t-3 1l40 146l31 -9q38 -13 68 -26q42 -16 92 -42q54 -25 103 -60q51 -31 102 -79q50 -44 89 -101q38 -52 63 -122
q23 -71 23 -148q0 -55 -15 -112q-16 -56 -58 -104q-43 -46 -116 -76q-76 -29 -193 -29zM432 694q-7 -8 -44 -57q-26 -36 -54 -89q-29 -54 -46 -112q-20 -60 -20 -128q0 -41 23 -72q22 -29 57 -49q33 -19 72 -27q41 -9 73 -9q63 0 107 9t72 30q26 19 40 52q12 33 12 80
q0 69 -27 126q-26 56 -69 104q-44 47 -95 82q-56 37 -101 60z" />
    <glyph glyph-name="uni0648" unicode="&#x648;" horiz-adv-x="1009" arabic-form="isolated" 
d="M302 -652l-46 145q20 7 38 14q34 13 85 39q46 25 108 68q56 39 109 98q53 56 90 130q37 72 48 164q-12 -1 -39 -1h-44h-143q-100 0 -169 30q-67 29 -112 77q-41 44 -62 106q-19 57 -19 116q0 52 12 104q10 47 34 104q27 55 54 92q33 45 70 76q38 32 84 52q44 19 94 19
q84 0 146 -37q62 -38 104 -97q43 -59 70 -135q26 -70 44 -153q14 -70 22 -149q7 -81 8 -124v-3q3 -103 -20 -185q-20 -80 -61 -154q-40 -70 -91 -126q-51 -55 -106 -100q-62 -48 -107 -74q-50 -31 -96 -52q-12 -6 -71 -32l-16.5 -5.5t-12.5 -4.5zM494 629q-36 0 -70 -27
q-34 -24 -64 -68q-27 -39 -46 -94q-17 -56 -17 -106q0 -27 7 -56q8 -32 29 -58q22 -27 64 -46q42 -18 111 -18h143h81q-3 47 -10 90q-6 49 -18 104q-10 47 -28 102q-19 54 -44 90q-24 38 -59 63q-35 24 -79 24z" />
    <glyph glyph-name="uni0649" unicode="&#x649;" horiz-adv-x="1762" arabic-form="isolated" 
d="M756 -610q-186 0 -314 55q-131 56 -205 167q-216 320 66 1015l140 -56q-78 -194 -111 -337q-34 -143 -37 -250q-3 -103 17 -175q18 -66 49 -113q52 -77 151 -118q99 -39 244 -39q109 0 196 16q93 16 168 43q80 29 134 62q58 32 101 70q41 38 63 72q21 36 21 65
q2 21 -7 33q-6 14 -28 24q-16 10 -56 20q-52 10 -95 17q-40 5 -75 13q-36 5 -80 20q-34 11 -77 32q-39 22 -67 50q-31 31 -48 71q-20 41 -25 99q-5 66 17 131q21 67 60 129q37 62 90 118q51 55 106 94q68 49 134 75t124 33t106 3q47 -4 84 -14q38 -9 57 -19l11.5 -5.5
t9.5 -4.5l3 -1l-73 -131l37 66l-37 -68l-32 14q-32 11 -80 14q-48 1 -116 -14q-68 -19 -140 -71q-48 -34 -87 -76q-38 -41 -69 -89q-29 -51 -43 -90q-15 -45 -12 -82q3 -39 19 -62q15 -23 45 -40q26 -13 75 -26q62 -12 107 -19q58 -11 105 -21q56 -12 102 -38q44 -24 78 -70
q30 -46 29 -118q-2 -57 -31 -113q-29 -57 -82 -109q-50 -50 -129 -99q-70 -43 -167 -80q-95 -35 -200 -53q-103 -20 -226 -20z" />
    <glyph glyph-name="uni064A" unicode="&#x64a;" horiz-adv-x="1798" arabic-form="isolated" 
d="M785 -612q-186 0 -315 55q-130 56 -204 167q-216 320 66 1015l140 -56q-77 -191 -112 -337q-33 -146 -36 -250q-3 -103 17 -175q18 -66 49 -113q52 -77 152 -118q98 -39 243 -39q107 0 197 16q95 17 166 43q79 28 136 62q58 33 100 70q42 39 62 72q22 35 22 65
q1 18 -6 33q-9 15 -28 24q-18 10 -58 20q-47 10 -94 17q-40 5 -75 13q-36 5 -80 20q-34 11 -77 32q-40 22 -66 50q-28 26 -50 71q-20 46 -24 99q-5 65 16 131q22 67 60 129q38 61 90 118q53 56 107 94q69 50 135 75q64 25 123 33q58 7 107 3q45 -4 84 -14q38 -10 56 -19
l11.5 -5.5t8.5 -4.5l4 -1l-73 -131l37 66l-37 -68q-8 4 -33 14q-30 11 -79 14q-48 1 -115 -14q-68 -19 -141 -71q-48 -34 -87 -76q-43 -47 -68 -89q-28 -43 -44 -90q-15 -45 -12 -82q3 -38 18 -62q16 -24 46 -40q26 -13 75 -26q62 -12 107 -19q46 -8 106 -21q52 -12 102 -38
q46 -26 76 -70q31 -45 30 -118q-2 -56 -30 -113q-31 -59 -84 -109q-48 -49 -128 -99q-71 -44 -168 -80q-93 -35 -200 -53q-101 -20 -225 -20zM784 -903l-134 -133l-137 135l135 136zM1127 -903l-135 -133l-136 135l136 136z" />
    <glyph glyph-name="uni066E.init" unicode="&#x66e;" horiz-adv-x="712" 
d="M-76 74q0 32 22 54q23 23 54 23h199q53 -1 114 1q43 1 70 11t39 27q13 17 24 52q6 21 5 54q-2 45 -9 78q-3 22 -18 93q-8 33 -26 99q-18 61 -31 99l-31 88l141 53l21 -60l32 -95q29 -104 32 -117q12 -42 28 -124q9 -61 12 -116q0 -59 -11 -95q-20 -66 -55 -109
q-37 -40 -80 -60q-46 -21 -98 -25q-58 -5 -112 -5h-240h-6q-30 0 -54 21q-22 22 -22 53z" />
    <glyph glyph-name="uni066E.medi" unicode="&#x66e;" horiz-adv-x="823" 
d="M-78 75q0 31 22 53q23 22 53 22q131 0 213 25q85 25 120 75q26 39 32 86q7 46 4 95q-4 45 -14 87q-13 46 -20 62l140 55q0 -1 1.5 -4t4 -10l4.5 -13q9 -26 18 -64q10 -45 14 -91q6 -49 1 -105h1q-2 -65 41 -108q24 -26 55 -42q35 -20 66 -28q26 -9 76 -16q52 -4 79 -4
v-150q-58 0 -107 7q-60 8 -104 23q-57 19 -94 42q-42 23 -80 63l-9 10q-26 -39 -68 -67q-44 -29 -100 -45q-62 -18 -125 -25q-72 -8 -143 -8h-6q-30 0 -53 22q-22 22 -22 53z" />
    <glyph glyph-name="uni066E.fina" unicode="&#x66e;" horiz-adv-x="2056" 
d="M1829 228q14 -22 44 -36q33 -14 67 -24q31 -8 71 -13q31 -4 56 -4v-150q-14 0 -29 1q-38 3 -56 5q-38 5 -72 13q-43 10 -78 26q-35 13 -73 40q-35 26 -57 61q-21 31 -30 67q-55 -41 -134 -82q-83 -40 -176 -68q-106 -30 -222 -46q-127 -17 -273 -17q-257 0 -425 63
q-169 61 -249 188q-32 51 -47 104t-18 106q-2 58 5 102q8 53 19 94q12 41 26 79l26 60l136 -65q-5 -9 -17 -40q-6 -13 -20 -58q-7 -22 -17 -70q-7 -35 -7 -78q0 -39 9 -78t32 -75q57 -90 196 -136q137 -46 351 -46q156 0 273 19q123 19 212 49q95 33 158 70q63 36 114 81
t74 82q19 25 46 72q18 39 22 54q4 20 6 25l148 -25q0 -5 -4 -18q-3 -14 -12 -41q-7 -23 -23 -57q-15 -32 -39 -69q-49 -108 -13 -165z" />
    <glyph glyph-name="uni066F.init" unicode="&#x66f;" horiz-adv-x="994" 
d="M-76 75q0 30 22 54q23 22 53 22h10q83 0 165 3q85 5 160 12q80 9 144 24q68 16 120 40q50 21 86 56q33 33 42 77q-65 -15 -102 -21q-49 -11 -116 -9q-104 1 -180 33q-76 30 -121 88q-42 53 -54 124t7 156q13 55 40 104q30 54 70 92q41 40 100 66q57 24 128 24
q66 0 128 -33q63 -34 115 -96q44 -52 75 -115t48 -134q18 -72 21 -148t-9 -152q-12 -73 -52 -129q-43 -56 -100 -92q-63 -39 -132 -61q-68 -22 -150 -38q-74 -12 -151 -18q-100 -4 -139 -4h-153q-30 0 -53 22q-22 22 -22 53zM509 484q29 -1 64 2q42 6 61 10q34 7 55 13
q34 10 43 13q-7 76 -34 150q-27 69 -71 123q-31 34 -64 55q-35 19 -65 19q-44 0 -78 -17q-35 -18 -58 -44q-24 -26 -36 -54q-14 -27 -19 -53q-23 -105 17 -154q26 -31 72 -45q42 -16 113 -18z" />
    <glyph glyph-name="uni066F.medi" unicode="&#x66f;" horiz-adv-x="1054" 
d="M-75 74q0 32 23 54q21 22 52 22h98q37 1 106 1h91h58h24q-45 37 -84 86q-36 46 -58 107q-16 42 -19 90q-5 50 4 96q6 46 26 94q20 46 48 87q50 72 122 112q70 39 150 39q66 0 122 -24q57 -26 100 -75q29 -32 50 -71q20 -35 35 -83q12 -39 17 -92q4 -43 -1 -96
q-7 -77 -43 -149q-37 -68 -93 -118q18 -2 25 -2q9 -1 24 -1h263v-151h-244q-13 0 -55 2q-20 2 -62 8q-22 4 -66 14q-26 6 -64 19q-56 -22 -118 -32q-69 -11 -121 -11h-329h-6q-31 0 -52 21q-23 20 -23 53zM739 437q7 61 -10 125q-16 60 -53 100q-44 50 -110 50q-30 0 -52 -9
q-26 -10 -42 -23q-17 -11 -33 -28q-17 -19 -23 -28q-17 -24 -30 -55q-13 -30 -17 -59q-5 -30 -3 -60q1 -28 11 -55q10 -31 31 -59q17 -25 45 -50q22 -21 57 -44q35 -21 63 -35q67 37 113 95q45 56 53 135z" />
    <glyph glyph-name="uni066F.fina" unicode="&#x66f;" horiz-adv-x="1600" 
d="M1505 151h104v-151h-105q-20 -311 -195 -470t-502 -159q-9 0 -57 2q-35 2 -80 9q-38 6 -96 20q-57 17 -102 38q-51 23 -100 58q-47 32 -87 83q-152 191 -83 509q15 68 34 128l41 121q13 37 35 92q4 11 8 20.5l6 14.5t2 6l139 -59q-2 0 -15 -35q-2 -4 -33 -86l-39 -116
q-21 -72 -31 -119q-54 -248 53 -382q26 -33 68 -63q42 -27 79 -42q39 -16 82 -27q39 -10 76 -15q34 -4 61 -6q18 -1 39 -1q259 0 393 119q136 117 153 360h-223q-100 0 -169 30q-67 29 -112 77q-41 44 -62 106q-19 57 -19 116q0 51 12 105q12 51 34 102q21 44 54 94
q37 47 70 76q39 32 84 51q44 19 94 19q76 0 133 -30q57 -32 99 -81q43 -51 70 -115q27 -59 47 -134q18 -71 27 -139q8 -59 13 -126zM1130 151h224q-4 47 -10 89q-6 49 -18 104q-10 47 -28 102q-19 54 -44 90q-23 39 -59 64q-34 24 -79 24q-35 0 -70 -26t-64 -69
q-27 -40 -46 -95q-17 -54 -17 -105q0 -27 7 -56q8 -32 29 -58q23 -27 64 -45q41 -19 111 -19z" />
    <glyph glyph-name="uni0671" unicode="&#x671;" horiz-adv-x="603" arabic-form="isolated" 
d="M362 1453q1 -8 7 -117l9 -179l9 -219q3 -81 7 -238q2 -162 2 -238q0 -128 -4 -216q-5 -100 -12 -173q-9 -75 -24 -109l-138 41q9 23 15 77t9 132q2 56 4 174q0 132 -2 203q0 69 -4 221q-4 150 -8 224q-1 19 -9 214q-4 86 -11 193zM207 1640q18 -2 55 -4q33 0 61 4
q33 5 59 12q30 9 49 25q23 23 26 52q0 10 -5 22q-4 7 -11 14q-19 21 -38 22q-21 2 -36 -1q-53 -9 -93 -49q-27 -27 -43 -53q-19 -32 -24 -44zM-24 1607l-16 61q26 13 47 20q3 1 41 12q22 3 36 1q16 -3 28 -9q16 -9 21 -14q7 -5 17 -17q15 27 30 51q18 34 54 68q21 21 58 42
q36 17 64 21q39 8 70 -1q34 -11 57 -35q18 -20 25 -39q9 -21 6 -44q-2 -56 -47 -94q-17 -15 -45 -26q-22 -9 -51 -16q-30 -7 -54 -8q-36 -2 -52 -2q-19 0 -47 2q-22 2 -29 3q-23 3 -45 12q-13 7 -23 15q-9 6 -24 25q-14 11 -35 8q-18 -3 -40 -11q-28 -13 -46 -25z" />
    <glyph glyph-name="uni0672.fina" unicode="&#x672;" horiz-adv-x="703" 
d="M703 151h12v-151h-12h-21q-20 0 -57 3q-35 3 -81 12q-44 9 -86 26q-41 15 -77 46q-60 55 -89 133q-30 78 -30 182q0 93 -2 145q0 49 -4 161q-2 83 -6 165q-4 99 -6 159q-3 67 -6 144q-4 67 -6 116q-4 68 -4 79q-2 19 -2 30l150 16q0 -1 3 -52l3.5 -61.5t3.5 -71.5
q5 -91 9 -190l9 -218q4 -112 6 -222q3 -109 3 -200q0 -72 17 -120q15 -51 51 -81q21 -18 61 -29q35 -10 73 -15q42 -5 88 -6zM523 1767q-14 15 -33 28q-18 11 -38 20q-24 9 -52 9q-23 0 -42 -8t-30 -22q-12 -12 -18 -31q-7 -17 -7 -37q0 -24 11 -48q13 -22 32 -36
q18 -15 44 -23q27 -7 54 -6q18 1 47 5l40 6q10 2 38 7l11 -78q-24 -6 -54 -15q-26 -10 -68 -16q-33 -6 -89 -8q-49 0 -114 12q-17 3 -19 4q-8 3 -24 7t-24 5q-12 3 -19 2q-25 -1 -41 -8q-16 -5 -28 -14q-11 -7 -22 -18q-3 -3 -9.5 -9l-10.5 -10l-44 59q2 2 11 10t14 14
q9 8 31 26q13 10 38 22q23 9 49 12q9 1 31 -2q6 -2 19.5 -5.5t19.5 -5.5q4 -1 21.5 -7t27.5 -9q-29 29 -42 59q-12 30 -12 68q0 39 14 68q11 30 37 58q25 25 57 38q31 15 70 15q40 0 70 -12q30 -11 55 -26q24 -15 48 -38z" />
    <glyph glyph-name="uni0673.fina" unicode="&#x673;" horiz-adv-x="603" 
d="M603 151h12v-151h-12h-21q-12 0 -48 2q-28 3 -62 12q-32 8 -69 26q-33 16 -68 46q-119 110 -119 315q0 93 -2 145q0 52 -4 160q-1 83 -6 166l-6 160q-3 80 -6 143q-5 69 -6 117q-4 64 -4 78q-2 19 -2 30l150 16q0 -1 3 -52l3.5 -65t3.5 -69q4 -74 9 -188l9 -219
q4 -113 6 -222q3 -109 3 -200q0 -67 17 -120q16 -51 51 -81q24 -22 53 -33q22 -8 55 -14q25 -4 60 -2zM487 -202q-14 15 -33 28q-18 11 -38 20q-24 9 -52 9q-23 0 -42 -8q-15 -6 -30 -21q-13 -16 -18 -32q-7 -17 -7 -37q0 -25 11 -47q12 -23 32 -37q18 -15 44 -23
q27 -7 54 -6q18 1 47 5q26 3 40 6q10 2 38 7l11 -78q-29 -7 -54 -16q-24 -7 -68 -16q-39 -6 -89 -6q-47 -1 -114 11q-14 3 -19 5l-24 6l-24 6q-14 2 -19 1q-25 -1 -41 -8q-16 -5 -28 -14q-8 -5 -22 -17q-3 -3 -6 -6.5t-7.5 -7.5t-6.5 -6l-44 59q7 7 25 23q9 10 31 26
q15 12 38 22q21 10 49 13q14 2 31 -3q14 -2 39 -10q4 -1 21.5 -7t27.5 -9q-29 29 -42 58q-12 32 -12 69q0 38 14 69q12 31 37 56q23 25 57 40q33 14 70 14q40 0 70 -12q30 -11 55 -26q24 -15 48 -38z" />
    <glyph glyph-name="uni0675.fina" unicode="&#x675;" horiz-adv-x="683" 
d="M683 151h12v-151h-12h-21q-20 0 -57 3q-35 3 -81 12q-44 9 -86 26q-41 15 -77 46q-60 55 -89 133q-30 78 -30 182q0 93 -2 145q0 49 -4 161q-2 83 -6 165q-4 99 -6 159q-3 67 -6 144q-4 67 -6 116q-4 68 -4 79q-2 19 -2 30l150 16q0 -1 3 -52l3.5 -61.5t3.5 -71.5
q5 -91 9 -190l9 -218q4 -112 6 -222q3 -109 3 -200q0 -72 17 -120q15 -51 51 -81q21 -18 61 -29q35 -10 73 -15q42 -5 88 -6zM84 1512l-45 88q9 5 51 26q38 19 86 40q-9 4 -17 12q-5 4 -12 11q-37 33 -55 81q-15 47 -1 91q48 154 204 154q36 0 65 -11q29 -8 55 -23t39 -25
q14 -9 19 -14l-66 -76q-1 0 -7 5t-10 8q-19 12 -28 16q-19 9 -32 13q-18 6 -35 6q-19 0 -35 -4q-15 -3 -30 -12q-16 -12 -24 -26q-12 -15 -20 -42q-3 -11 3 -31q6 -21 25 -38q2 -1 18 -13q8 -5 28 -13q19 -6 40 -9q20 -4 51 -1q7 0 10 1h10q33 7 44 10q18 5 51 17l36 -94
q-38 -16 -74 -24q-39 -8 -66 -11q-27 -5 -60 -16q-59 -23 -74 -30q-31 -12 -77 -34q-38 -17 -67 -32z" />
    <glyph glyph-name="uni0676.fina" unicode="&#x676;" horiz-adv-x="994" 
d="M897 151h107v-151h-106q-8 -93 -35 -164q-29 -75 -69 -138q-40 -62 -91 -112q-51 -51 -102 -89q-56 -42 -101 -67q-44 -26 -90 -48l-66 -28q-7 -3 -14 -5.5l-11 -4t-5 -1.5l-46 143q8 3 40 16q32 12 84 40q44 23 108 67q53 37 110 97q53 59 89 130q38 74 48 164h-84h-143
q-100 0 -169 30q-67 29 -112 77q-41 44 -62 106q-19 57 -19 116q0 51 12 105q12 51 34 102q21 44 54 94q37 47 70 76q39 32 84 51q44 19 94 19q76 0 133 -30q57 -32 99 -81q43 -51 70 -115q26 -56 48 -134q17 -65 28 -138q8 -60 13 -127zM663 151h83q-3 46 -10 91
q-6 53 -18 102q-11 51 -30 104q-19 54 -44 89q-24 38 -59 63q-35 24 -79 24q-35 0 -70 -26t-64 -69q-28 -42 -46 -95q-17 -53 -17 -105q0 -27 7 -56q8 -33 30 -58q21 -26 64 -45q39 -19 110 -19h143zM303 910l-45 88q21 12 52 26q27 15 85 40q-9 4 -17 12q-5 4 -12 11
q-38 34 -54 81q-16 46 -2 91q48 154 204 154q36 0 65 -11q29 -8 55 -23q25 -14 40 -25q13 -9 18 -14l-66 -76l-18 13q-14 10 -26 16q-22 10 -34 13q-17 6 -34 6q-21 0 -34 -4q-18 -3 -30 -12q-14 -9 -26 -26q-11 -16 -19 -42q-3 -11 3 -31q6 -21 25 -38q6 -5 19 -13
q10 -7 28 -13q14 -6 38 -9q22 -4 52 -1q7 0 10 1h10q33 7 44 10q18 5 51 17l36 -94q-38 -16 -74 -24q-39 -8 -66 -11q-28 -5 -59 -16q-53 -20 -75 -30q-31 -12 -77 -34q-38 -17 -67 -32z" />
    <glyph glyph-name="uni0677.fina" unicode="&#x677;" horiz-adv-x="954" 
d="M860 151h107v-151h-106q-8 -93 -35 -164q-28 -75 -69 -138q-41 -62 -91 -112q-51 -51 -102 -89q-61 -45 -102 -67q-36 -22 -89 -48l-66 -28q-7 -3 -14 -5.5l-11 -4t-5 -1.5l-46 143q14 5 39 16q30 10 85 40q44 23 108 67q55 38 109 97q53 58 90 130q38 74 48 164h-84
h-143q-100 0 -169 30q-67 29 -112 77q-41 44 -62 106q-19 57 -19 116q0 51 12 105q13 59 35 102q19 46 54 94q30 42 70 76q37 31 83 51q44 19 94 19q76 0 133 -30q57 -32 99 -81q39 -46 71 -115q29 -70 46 -134q19 -67 28 -138q9 -56 14 -127zM626 151h83q-3 39 -9 91
q-9 60 -19 102q-11 51 -30 104q-17 47 -43 89q-28 41 -60 63q-34 24 -79 24q-34 0 -71 -26q-34 -27 -63 -69q-29 -43 -45 -95q-18 -51 -18 -105q0 -27 7 -56q7 -30 29 -58q24 -27 64 -45q41 -19 111 -19h143zM293 1286l-24 84q18 5 55 18q29 9 72 26q52 22 77 36
q33 16 68 42l-9 4q-4 2 -8.5 4.5t-9.5 5t-8 3.5q-16 7 -28 13q-39 19 -63 46q-22 26 -31 54q-8 27 -6 53q3 25 11 44q13 28 39 52q25 25 54 38q31 15 62 16q32 2 61 -12q59 -29 78 -95q14 -48 9 -98q-6 -49 -17 -86q3 0 8 -2t7 -2q3 -1 7 -2.5t6 -1.5l-25 -83q-10 2 -21 7
l-27 9q-25 -25 -58 -49q-36 -24 -68 -40q-27 -15 -70 -34q-50 -20 -64 -24q-2 -1 -50 -18q-6 -2 -12 -3.5t-9.5 -3t-5.5 -1.5zM550 1740q-7 0 -23 -4q-16 -8 -23 -14q-8 -5 -21 -18q-10 -14 -15 -23q-1 0 -4 -8q-2 -8 0 -20q3 -12 14 -26q10 -13 37 -27q14 -8 28 -14
q18 -8 27 -13l24 -11q3 14 6 30q4 22 4 35q3 16 1 37q-1 17 -6 34q-5 14 -13 24q-6 9 -19 14q-4 4 -17 4zM312 812l-45 88q9 5 51 26q38 19 86 40q-9 4 -17 12q-5 4 -12 11q-37 33 -55 81q-15 47 -1 91q48 154 204 154q36 0 65 -11q29 -8 55 -23t39 -25q14 -9 19 -14
l-66 -76q-1 1 -7 5.5l-10 7.5q-19 12 -28 16q-19 9 -32 13q-18 6 -35 6q-19 0 -35 -4q-15 -3 -30 -12q-16 -12 -24 -26q-12 -15 -20 -42q-3 -11 3 -31q6 -21 25 -38q2 -1 18 -13q8 -5 28 -13q19 -6 40 -9q20 -4 51 -1q7 0 10 1h10q33 7 44 10q18 5 51 17l36 -94
q-38 -16 -74 -24q-39 -8 -66 -11q-27 -5 -60 -16q-59 -23 -74 -30q-31 -12 -77 -34q-38 -17 -67 -32z" />
    <glyph glyph-name="uni0678.fina" unicode="&#x678;" horiz-adv-x="1828" 
d="M1836 151v-151h-44q-10 1 -31.5 1.5t-32.5 0.5q-48 0 -74 1q-12 0 -37 0.5t-37 1.5q-60 3 -64 3q-11 0 -44 3q54 -50 86 -103q33 -54 33 -117q0 -90 -57 -165q-55 -75 -158 -129q-100 -54 -242 -84q-141 -30 -310 -30q-314 0 -482 184q-60 66 -92 139q-31 74 -46 143
q-13 75 -13 127q0 60 3 94q11 117 35 210q27 104 52 174q27 77 49 122l23 48l133 -68q0 -3 -19 -42q-17 -35 -43 -110q-23 -66 -48 -158q-23 -90 -33 -190q-3 -27 -3 -73q2 -52 11 -99q11 -55 33 -110q24 -56 69 -106q123 -134 371 -134q137 0 256 22q122 25 194 60
q79 37 123 82q43 46 43 93q0 26 -20 55q-19 28 -53 58q-33 28 -79 58q-62 36 -99 54q-62 30 -111 49q-67 26 -114 40l21 71l19 73l4 -1q5 -1 16 -2.5t23 -3.5q42 -9 111 -18q8 -1 156 -24q18 -3 180 -24l181 -18q103 -7 161 -7zM528 151l-45 88l51 27l86 39q-7 3 -17 11
l-12 12q-39 34 -55 82q-15 45 -1 90q48 154 204 154q30 0 65 -10q38 -15 55 -24q24 -14 39 -24q15 -11 19 -15l-66 -76q-1 1 -7 5.5l-10 7.5q-19 12 -28 16q-17 9 -32 14q-20 5 -35 5q-17 0 -35 -3q-17 -5 -30 -13q-14 -10 -24 -25q-13 -20 -20 -43q-3 -11 3 -31
q6 -21 25 -38q2 -1 18 -13q8 -5 28 -13q17 -6 40 -10q22 -3 51 0h10q3 1 10 1q33 7 44 10q18 5 51 17l36 -94q-38 -16 -74 -24q-39 -8 -66 -11q-29 -5 -60 -17q-13 -4 -74 -28l-77 -34q-49 -23 -67 -33z" />
    <glyph glyph-name="uni0679" unicode="&#x679;" horiz-adv-x="2049" arabic-form="isolated" 
d="M1791 813q9 -15 25.5 -46.5t19.5 -38.5l42 -96q11 -25 38 -98q23 -80 27 -95q9 -37 11 -79q0 -39 -13 -72q-14 -35 -41 -65t-76 -59q-47 -29 -120 -54q-78 -24 -150 -41q-75 -17 -164 -31q-95 -14 -162 -20q-76 -9 -142 -12q-59 -4 -109 -4q-57 0 -95 1q-69 2 -126 8
q-73 8 -140 22q-73 15 -140 42q-70 27 -128 69q-62 45 -101 104q-138 211 11 573l138 -58q-60 -145 -64 -251q-6 -109 42 -181q30 -44 77 -75q47 -30 103 -50q63 -22 117 -30q58 -11 118 -16q57 -5 106 -6q33 -1 82 -1q73 0 178 7q115 11 175 21q92 15 162 31q78 17 140 36
q67 21 106 40q44 20 63 39q-3 45 -17 103q-16 56 -37 109q-24 58 -48 107q-23 49 -51 95zM1357 1008q42 -28 61 -76q18 -44 10 -100q-11 -65 -50 -110q-39 -48 -97 -67q-42 -13 -61 -17q-17 -4 -52 -11q-16 -3 -46 -5q-15 -1 -43 -1h-38q-15 0 -23 1h-25q-83 0 -137 6
q-55 4 -90 12q-33 6 -48 12q-11 4 -19 8l19 33l17 33q3 0 21 -7q16 -6 74 -14q1 2 28 39q15 21 49 63q6 23 7 51q3 37 2 76q-2 62 -4 95q-2 51 -6 105l-9 106l-5.5 55.5t-4.5 44.5l75 7q5 -37 8 -73q0 -3 4 -45.5t6 -66.5q6 -61 9 -131q3 -76 2 -132l14 14q2 3 7 7.5t8 6.5
q49 43 92 67q53 28 91 36q40 11 83 6q41 -6 71 -28zM1354 843q5 32 -6 59q-10 27 -34 44q-41 29 -107 8q-66 -19 -137 -83q-46 -40 -88 -90q-38 -46 -64 -82q11 -1 36 -1h39h26q8 -1 23 -1h49q23 0 48 3q23 1 53 8q26 5 66 18q37 12 63 44q25 31 33 73z" />
    <glyph glyph-name="uni067A.init" unicode="&#x67a;" horiz-adv-x="763" arabic-form="initial" 
d="M-76 74q0 30 22 54q23 22 54 22h259q52 -1 117 1q46 1 78 11q32 9 48 28q17 20 27 52q6 21 5 54q-1 31 -8 78q-12 60 -20 93q-9 44 -26 99q-14 51 -30 99l-31 88l141 53l22 -60q22 -65 30 -95q4 -12 34 -117q20 -86 26 -124q12 -62 12 -116q3 -53 -10 -95
q-21 -67 -59 -109q-37 -39 -87 -60q-53 -21 -106 -25q-63 -5 -116 -5h-300h-6q-30 0 -54 21q-22 22 -22 53zM196 1501l143 142l142 -143l-142 -143zM199 1145l143 142l142 -143l-142 -143z" />
    <glyph glyph-name="uni067A.medi" unicode="&#x67a;" horiz-adv-x="879" arabic-form="medial" 
d="M-67 75q0 33 23 53q21 22 52 22q44 0 104 5q51 4 106 17q50 11 88 30q39 20 55 48q23 40 29 88q7 46 4 95q-5 50 -13 87q-9 39 -18 60l140 55q0 -1 1.5 -4t4 -10l4.5 -13q9 -26 18 -64q9 -41 15 -91q4 -51 0 -105h1q-2 -65 41 -108q23 -24 52 -42q34 -20 65 -28
q26 -9 81 -16q60 -4 101 -4v-150q-129 0 -232 30q-104 30 -176 105l-9 10q-30 -50 -77 -81q-49 -30 -107 -43q-61 -14 -128 -17q-61 -4 -144 -4h-6q-31 0 -52 22q-23 20 -23 53zM229 1343l143 142l142 -143l-142 -143zM232 987l143 142l142 -143l-142 -143z" />
    <glyph glyph-name="uni067A.fina" unicode="&#x67a;" horiz-adv-x="2034" arabic-form="final" 
d="M1805 228q14 -22 44 -36q33 -14 67 -24q31 -8 71 -13q31 -4 56 -4v-150q-14 0 -29 1q-38 3 -56 5q-38 5 -72 13q-43 10 -78 26q-35 13 -73 40q-35 26 -57 61q-21 31 -30 67q-55 -41 -134 -82q-83 -40 -176 -68q-106 -30 -222 -46q-127 -17 -273 -17q-257 0 -425 63
q-169 61 -249 188q-32 51 -47 104t-18 106q-2 58 5 102q8 53 19 94q12 41 26 79l26 60l136 -65q-5 -9 -17 -40q-6 -13 -20 -58q-7 -22 -17 -70q-7 -35 -7 -78q0 -39 9 -78t32 -75q57 -90 196 -136q137 -46 351 -46q156 0 273 19q123 19 212 49q95 33 158 70q63 36 114 81
t74 82q19 25 46 72q18 39 22 54q4 20 6 25l148 -25q0 -5 -4 -18q-3 -14 -12 -41q-7 -23 -23 -57q-15 -32 -39 -69q-49 -108 -13 -165zM820 1001l143 142l142 -143l-142 -143zM823 645l143 142l142 -143l-142 -143z" />
    <glyph glyph-name="uni067B.init" unicode="&#x67b;" horiz-adv-x="703" arabic-form="initial" 
d="M-76 74q0 32 22 54q23 23 54 23h199q53 -1 114 1q43 1 70 11t39 27q13 17 24 52q6 21 5 54q-2 45 -9 78q-3 22 -18 93q-8 33 -26 99q-18 61 -31 99l-31 88l141 53l21 -60l32 -95q29 -104 32 -117q12 -42 28 -124q9 -61 12 -116q0 -59 -11 -95q-20 -66 -55 -109
q-37 -40 -80 -60q-46 -21 -98 -25q-58 -5 -112 -5h-240h-6q-30 0 -54 21q-22 22 -22 53zM170 -358l143 142l142 -143l-142 -143zM173 -714l143 142l142 -143l-142 -143z" />
    <glyph glyph-name="uni067B.medi" unicode="&#x67b;" horiz-adv-x="823" arabic-form="medial" 
d="M-78 75q0 31 22 53q23 22 53 22q131 0 213 25q85 25 120 75q26 39 32 86q7 46 4 95q-4 45 -14 87q-13 46 -20 62l140 55q0 -1 1.5 -4t4 -10l4.5 -13q9 -26 18 -64q10 -45 14 -91q6 -49 1 -105h1q-2 -65 41 -108q24 -26 55 -42q35 -20 66 -28q26 -9 76 -16q52 -4 79 -4
v-150q-58 0 -107 7q-60 8 -104 23q-57 19 -94 42q-42 23 -80 63l-9 10q-26 -39 -68 -67q-44 -29 -100 -45q-62 -18 -125 -25q-72 -8 -143 -8h-6q-30 0 -53 22q-22 22 -22 53zM242 -303l143 142l142 -143l-142 -143zM245 -659l143 142l142 -143l-142 -143z" />
    <glyph glyph-name="uni067B.fina" unicode="&#x67b;" horiz-adv-x="2054" arabic-form="final" 
d="M1821 228q14 -22 44 -36q33 -14 67 -24q31 -8 71 -13q31 -4 56 -4v-150q-14 0 -29 1q-38 3 -56 5q-38 5 -72 13q-43 10 -78 26q-35 13 -73 40q-35 26 -57 61q-21 31 -30 67q-55 -41 -134 -82q-83 -40 -176 -68q-106 -30 -222 -46q-127 -17 -273 -17q-257 0 -425 63
q-169 61 -249 188q-32 51 -47 104t-18 106q-2 58 5 102q8 53 19 94q12 41 26 79l26 60l136 -65q-5 -9 -17 -40q-6 -13 -20 -58q-7 -22 -17 -70q-7 -35 -7 -78q0 -39 9 -78t32 -75q57 -90 196 -136q137 -46 351 -46q156 0 273 19q123 19 212 49q95 33 158 70q63 36 114 81
t74 82q19 25 46 72q18 39 22 54q4 20 6 25l148 -25q0 -5 -4 -18q-3 -14 -12 -41q-7 -23 -23 -57q-15 -32 -39 -69q-49 -108 -13 -165zM770 -299l143 142l142 -143l-142 -143zM773 -655l143 142l142 -143l-142 -143z" />
    <glyph glyph-name="uni067C.init" unicode="&#x67c;" horiz-adv-x="723" 
d="M-76 74q0 32 22 54q23 23 54 23h199q53 -1 114 1q43 1 70 11t39 27q13 17 24 52q6 21 5 54q-2 45 -9 78q-3 22 -18 93q-8 33 -26 99q-18 61 -31 99l-31 88l141 53l21 -60l32 -95q29 -104 32 -117q12 -42 28 -124q9 -61 12 -116q0 -59 -11 -95q-20 -66 -55 -109
q-37 -40 -80 -60q-46 -21 -98 -25q-58 -5 -112 -5h-240h-6q-30 0 -54 21q-22 22 -22 53zM306 1707q17 0 32 9q16 10 28 25q10 15 18 33q7 17 7 35t-7 35q-8 19 -18 32q-12 15 -28 24q-14 10 -32 10t-34 -10q-16 -9 -28 -24q-10 -13 -18 -32q-7 -17 -7 -35t7 -35
q8 -18 18 -33q12 -15 28 -25q16 -9 34 -9zM306 2006q34 0 70 -17q34 -17 60 -48q51 -59 51 -132q0 -37 -13 -69q-13 -35 -38 -63q-27 -33 -60 -49q-36 -17 -70 -17q-35 0 -71 17q-32 15 -61 49q-23 28 -38 63q-13 36 -13 69q0 32 13 69q16 37 38 63q27 32 61 48q36 17 71 17
zM283 1147l-134 -133l-137 135l135 136zM626 1147l-135 -133l-136 135l136 136z" />
    <glyph glyph-name="uni067C.medi" unicode="&#x67c;" horiz-adv-x="869" 
d="M-70 75q0 31 22 53q23 22 53 22q42 0 105 5q54 5 104 17q50 10 88 30q40 20 56 48q23 39 30 88q6 50 2 95q-3 47 -12 87q-9 39 -18 60l140 55q0 -1 1.5 -4t4 -10l4.5 -13q9 -26 18 -64q10 -45 14 -91q6 -49 1 -105h1q-2 -65 41 -108q25 -27 53 -42q29 -19 64 -28
q26 -9 81 -16q60 -4 101 -4v-150q-128 0 -232 30t-176 105l-9 10q-30 -50 -77 -81q-49 -30 -106 -43q-63 -14 -129 -17q-61 -4 -144 -4h-6q-30 0 -53 22q-22 22 -22 53zM344 981l-134 -133l-137 135l135 136zM687 981l-135 -133l-136 135l136 136zM339 1500q17 0 33 10
t26 24q11 14 19 33q7 17 7 35t-7 35q-8 19 -19 33q-10 13 -26 24q-16 9 -33 9t-34 -9q-17 -10 -27 -24q-11 -14 -19 -33q-7 -17 -7 -35t7 -35q8 -19 19 -33q10 -15 27 -24q16 -10 34 -10zM339 1799q34 0 70 -17q35 -16 60 -48q51 -58 51 -132q0 -35 -13 -70q-15 -36 -38 -62
q-27 -33 -60 -49q-36 -17 -70 -17q-35 0 -71 17q-32 15 -61 49q-25 30 -37 62q-14 34 -14 70q0 37 14 69q11 32 37 63q27 32 61 48q36 17 71 17z" />
    <glyph glyph-name="uni067C.fina" unicode="&#x67c;" horiz-adv-x="2034" 
d="M1806 228q14 -22 44 -36q33 -14 67 -24q31 -8 71 -13q31 -4 56 -4v-150q-14 0 -29 1q-38 3 -56 5q-38 5 -72 13q-43 10 -78 26q-35 13 -73 40q-35 26 -57 61q-21 31 -30 67q-60 -44 -135 -82q-76 -38 -175 -68q-106 -30 -222 -46q-127 -17 -273 -17q-256 0 -426 63
q-168 62 -248 188q-32 51 -47 104q-16 54 -17 106q-3 54 4 102q8 53 19 94q13 45 27 79q7 20 25 60l136 -65q-5 -9 -17 -40q-6 -13 -20 -58q-8 -22 -17 -70q-7 -35 -7 -78q0 -39 9 -78t32 -75q57 -89 195 -136q138 -46 352 -46q156 0 273 19q123 19 212 49q94 32 159 70
q69 41 112 81q44 37 76 82q31 45 44 72q17 31 22 54q1 5 2.5 9.5t2 7t1.5 5t1 3.5l148 -25q0 -3 -3 -18q-1 -3 -12 -41q-9 -25 -24 -57t-39 -69q-49 -108 -13 -165zM960 759l-134 -133l-137 135l135 136zM1303 759l-135 -133l-136 135l136 136zM942 1337q17 0 32 9
q16 10 28 25q10 15 18 33q7 17 7 35t-7 35q-8 19 -18 32q-12 15 -28 24q-14 10 -32 10t-34 -10q-16 -9 -28 -24q-10 -13 -18 -32q-7 -17 -7 -35t7 -35q8 -18 18 -33q12 -15 28 -25q16 -9 34 -9zM942 1636q34 0 70 -17q34 -17 60 -48q51 -59 51 -132q0 -37 -13 -69
q-13 -35 -38 -63q-27 -33 -60 -49q-36 -17 -70 -17q-35 0 -71 17q-32 15 -61 49q-23 28 -38 63q-13 36 -13 69q0 32 13 69q16 37 38 63q27 32 61 48q36 17 71 17z" />
    <glyph glyph-name="uni067D.init" unicode="&#x67d;" horiz-adv-x="763" 
d="M-76 74q0 30 22 54q23 22 54 22h259q52 -1 117 1q46 1 78 11q32 9 48 28q17 20 27 52q6 21 5 54q-1 31 -8 78q-12 60 -20 93q-9 44 -26 99q-14 51 -30 99l-31 88l141 53l22 -60q22 -65 30 -95q4 -12 34 -117q20 -86 26 -124q12 -62 12 -116q3 -53 -10 -95
q-21 -67 -59 -109q-37 -39 -87 -60q-53 -21 -106 -25q-63 -5 -116 -5h-300h-6q-30 0 -54 21q-22 22 -22 53zM168 1541l136 -136l-134 -134l-138 135zM353 1406l136 135l136 -136l-135 -134zM195 1124l134 135l137 -137l-135 -133z" />
    <glyph glyph-name="uni067D.medi" unicode="&#x67d;" horiz-adv-x="859" 
d="M-79 75q0 33 23 53q21 22 52 22q44 0 104 5q51 4 106 17q50 11 88 30q39 20 55 48q23 40 29 88q7 46 4 95q-5 50 -13 87q-9 39 -18 60l140 55q0 -1 1.5 -4t4 -10l4.5 -13q9 -26 18 -64q9 -41 15 -91q4 -51 0 -105h1q-2 -65 41 -108q23 -24 52 -42q34 -20 65 -28
q26 -9 81 -16q60 -4 101 -4v-150q-129 0 -232 30q-104 30 -176 105l-9 10q-30 -50 -77 -81q-49 -30 -107 -43q-61 -14 -128 -17q-61 -4 -144 -4h-6q-31 0 -52 22q-23 20 -23 53zM163 1367l136 -136l-134 -134l-138 135zM348 1232l136 135l136 -136l-135 -134zM190 950
l134 135l137 -137l-135 -133z" />
    <glyph glyph-name="uni067D.fina" unicode="&#x67d;" horiz-adv-x="2049" 
d="M1815 228q14 -22 44 -36q33 -14 67 -24q31 -8 71 -13q31 -4 56 -4v-150q-14 0 -29 1q-38 3 -56 5q-38 5 -72 13q-43 10 -78 26q-35 13 -73 40q-35 26 -57 61q-21 31 -30 67q-55 -41 -134 -82q-83 -40 -176 -68q-106 -30 -222 -46q-127 -17 -273 -17q-257 0 -425 63
q-169 61 -249 188q-32 51 -47 104t-18 106q-2 58 5 102q8 53 19 94q12 41 26 79l26 60l136 -65q-5 -9 -17 -40q-6 -13 -20 -58q-7 -22 -17 -70q-7 -35 -7 -78q0 -39 9 -78t32 -75q57 -90 196 -136q137 -46 351 -46q156 0 273 19q123 19 212 49q95 33 158 70q63 36 114 81
t74 82q19 25 46 72q18 39 22 54q4 20 6 25l148 -25q0 -5 -4 -18q-3 -14 -12 -41q-7 -23 -23 -57q-15 -32 -39 -69q-49 -108 -13 -165zM840 1067l136 -136l-134 -134l-138 135zM1025 932l136 135l136 -136l-135 -134zM867 650l134 135l137 -137l-135 -133z" />
    <glyph glyph-name="uni067E" unicode="&#x67e;" horiz-adv-x="1983" arabic-form="isolated" 
d="M1728 779q23 -39 44 -85q22 -43 44 -96q26 -66 36 -98q17 -49 28 -95q10 -40 10 -79q1 -38 -12 -72q-14 -35 -41 -65t-76 -59q-50 -30 -121 -54q-74 -24 -150 -41q-69 -16 -163 -31q-94 -13 -161 -20q-78 -9 -144 -12q-57 -4 -108 -4q-57 0 -96 1q-70 2 -124 8
q-72 8 -140 22q-72 15 -142 42q-69 27 -128 69q-62 46 -100 104q-138 211 11 573l138 -58q-59 -144 -65 -251q-5 -110 43 -181q30 -44 77 -75q47 -30 103 -50q63 -22 117 -30q58 -11 118 -16q57 -5 106 -6q33 -1 82 -1q73 0 178 7q115 11 175 21q92 15 162 31q80 17 139 36
q67 21 107 40q43 20 63 39q-3 47 -18 103q-13 53 -36 109q-24 58 -48 107q-23 49 -51 95zM805 -181l137 -136l-136 -134l-136 135zM1045 -316l134 135l138 -136l-136 -134zM856 -597l136 134l136 -135l-134 -135z" />
    <glyph glyph-name="uni067F.init" unicode="&#x67f;" horiz-adv-x="773" arabic-form="initial" 
d="M-76 74q0 30 22 54q23 22 54 22h259q52 -1 117 1q46 1 78 11q32 9 48 28q17 20 27 52q6 21 5 54q-1 31 -8 78q-12 60 -20 93q-9 44 -26 99q-14 51 -30 99l-31 88l141 53l22 -60q22 -65 30 -95q4 -12 34 -117q20 -86 26 -124q12 -62 12 -116q3 -53 -10 -95
q-21 -67 -59 -109q-37 -39 -87 -60q-53 -21 -106 -25q-63 -5 -116 -5h-300h-6q-30 0 -54 21q-22 22 -22 53zM600 1402l-134 -135l-137 136l136 135zM281 1402l-136 -135l-135 136l134 135zM598 1051l-134 -135l-137 136l136 135zM279 1051l-136 -135l-135 136l134 135z" />
    <glyph glyph-name="uni067F.medi" unicode="&#x67f;" horiz-adv-x="874" arabic-form="medial" 
d="M-64 75q0 31 22 53q23 22 53 22q42 0 105 5q54 5 104 17q50 10 88 30q40 20 56 48q23 39 30 88q6 50 2 95q-3 47 -12 87q-9 39 -18 60l140 55q0 -1 1.5 -4t4 -10l4.5 -13q9 -26 18 -64q10 -45 14 -91q6 -49 1 -105h1q-2 -65 41 -108q25 -27 53 -42q29 -19 64 -28
q26 -9 81 -16q60 -4 101 -4v-150q-128 0 -232 30t-176 105l-9 10q-30 -50 -77 -81q-49 -30 -106 -43q-63 -14 -129 -17q-61 -4 -144 -4h-6q-30 0 -53 22q-22 22 -22 53zM658 1293l-134 -135l-137 136l136 135zM339 1293l-136 -135l-135 136l134 135zM656 942l-134 -135
l-137 136l136 135zM337 942l-136 -135l-135 136l134 135z" />
    <glyph glyph-name="uni067F.fina" unicode="&#x67f;" horiz-adv-x="2039" arabic-form="final" 
d="M1807 228q14 -22 44 -36q33 -14 67 -24q31 -8 71 -13q31 -4 56 -4v-150q-14 0 -29 1q-38 3 -56 5q-38 5 -72 13q-43 10 -78 26q-35 13 -73 40q-35 26 -57 61q-21 31 -30 67q-55 -41 -134 -82q-83 -40 -176 -68q-106 -30 -222 -46q-127 -17 -273 -17q-257 0 -425 63
q-169 61 -249 188q-32 51 -47 104t-18 106q-2 58 5 102q8 53 19 94q12 41 26 79l26 60l136 -65q-5 -9 -17 -40q-6 -13 -20 -58q-7 -22 -17 -70q-7 -35 -7 -78q0 -39 9 -78t32 -75q57 -90 196 -136q137 -46 351 -46q156 0 273 19q123 19 212 49q95 33 158 70q63 36 114 81
t74 82q19 25 46 72q18 39 22 54q4 20 6 25l148 -25q0 -5 -4 -18q-3 -14 -12 -41q-7 -23 -23 -57q-15 -32 -39 -69q-49 -108 -13 -165zM1256 935l-134 -135l-137 136l136 135zM937 935l-136 -135l-135 136l134 135zM1254 584l-134 -135l-137 136l136 135zM935 584l-136 -135
l-135 136l134 135z" />
    <glyph glyph-name="uni0680.init" unicode="&#x680;" horiz-adv-x="791" arabic-form="initial" 
d="M-74 74q0 30 22 54q23 22 54 22h259q52 -1 117 1q46 1 78 11q32 9 48 28q17 20 27 52q6 21 5 54q-1 31 -8 78q-12 60 -20 93q-9 44 -26 99q-14 51 -30 99l-31 88l141 53l22 -60q22 -65 30 -95q4 -12 34 -117q20 -86 26 -124q12 -62 12 -116q3 -53 -10 -95
q-21 -67 -59 -109q-37 -39 -87 -60q-53 -21 -106 -25q-63 -5 -116 -5h-300h-6q-30 0 -54 21q-22 22 -22 53zM651 -312l-134 -135l-137 136l136 135zM332 -312l-136 -135l-135 136l134 135zM649 -663l-134 -135l-137 136l136 135zM330 -663l-136 -135l-135 136l134 135z" />
    <glyph glyph-name="uni0680.medi" unicode="&#x680;" horiz-adv-x="874" arabic-form="medial" 
d="M-72 75q0 31 22 53q23 22 53 22q42 0 105 5q54 5 104 17q50 10 88 30q40 20 56 48q23 39 30 88q6 50 2 95q-3 47 -12 87q-9 39 -18 60l140 55q0 -1 1.5 -4t4 -10l4.5 -13q9 -26 18 -64q10 -45 14 -91q6 -49 1 -105h1q-2 -65 41 -108q25 -27 53 -42q29 -19 64 -28
q26 -9 81 -16q60 -4 101 -4v-150q-128 0 -232 30t-176 105l-9 10q-30 -50 -77 -81q-49 -30 -106 -43q-63 -14 -129 -17q-61 -4 -144 -4h-6q-30 0 -53 22q-22 22 -22 53zM666 -321l-134 -135l-137 136l136 135zM347 -321l-136 -135l-135 136l134 135zM664 -672l-134 -135
l-137 136l136 135zM345 -672l-136 -135l-135 136l134 135z" />
    <glyph glyph-name="uni0680.fina" unicode="&#x680;" horiz-adv-x="2034" arabic-form="final" 
d="M1804 228q14 -22 44 -36q33 -14 67 -24q31 -8 71 -13q31 -4 56 -4v-150q-14 0 -29 1q-38 3 -56 5q-38 5 -72 13q-43 10 -78 26q-35 13 -73 40q-35 26 -57 61q-21 31 -30 67q-60 -44 -135 -82q-76 -38 -175 -68q-106 -30 -222 -46q-127 -17 -273 -17q-256 0 -426 63
q-168 62 -248 188q-32 51 -47 104q-16 54 -17 106q-3 54 4 102q8 53 19 94q13 45 27 79l25 60l136 -65q-5 -9 -17 -40q-6 -13 -20 -58q-8 -22 -17 -70q-7 -35 -7 -78q0 -39 9 -78t32 -75q57 -89 195 -136q138 -46 352 -46q156 0 273 19q123 19 212 49q94 32 159 70
q69 41 112 81q44 37 76 82q31 45 44 72q17 31 22 54q1 5 2.5 9.5t2 7t1.5 5t1 3.5l148 -25q0 -3 -3 -18q-1 -3 -12 -41q-9 -25 -24 -57t-39 -69q-49 -108 -13 -165zM1194 -305l-134 -135l-137 136l136 135zM875 -305l-136 -135l-135 136l134 135zM1192 -656l-134 -135
l-137 136l136 135zM873 -656l-136 -135l-135 136l134 135z" />
    <glyph glyph-name="uni0681.init" unicode="&#x681;" horiz-adv-x="1516" 
d="M-76 74q0 30 22 54q23 22 54 22q138 0 274 24q139 23 266 60q129 36 242 81q108 43 204 89q20 11 66 34l72 35q-84 18 -143 37q-48 14 -119 39l-57 22t-45 17q-33 15 -86 37q-68 31 -115 48q-50 18 -94 18q-37 0 -69 -19q-34 -22 -58 -50q-29 -34 -50 -70
q-27 -43 -44 -78l-133 69l49 87q29 52 72 98q44 49 100 81q58 33 133 33q34 0 67 -6q24 -5 64 -16q44 -16 67 -26l72 -30l56 -24.5l55 -23.5q65 -26 137 -50q81 -26 173 -47q105 -25 218 -40l22 -141l-124 -61l-112 -55l-108 -52q-92 -45 -214 -94q-118 -48 -252 -87
q-129 -38 -282 -64q-146 -25 -304 -25q-30 0 -54 21q-22 22 -22 53zM241 989l-45 88q18 10 52 27q29 14 85 39q-7 3 -17 11l-12 12q-39 35 -54 82q-16 44 -2 90q48 154 204 154q30 0 65 -10q38 -15 55 -24q20 -11 40 -24q15 -12 18 -15l-66 -76q-14 11 -18 13q-14 10 -26 16
q-22 10 -34 14q-18 5 -34 5q-19 0 -34 -3q-19 -5 -30 -13q-12 -7 -26 -25q-13 -22 -19 -43q-3 -11 3 -31q6 -21 25 -38q6 -5 19 -13q10 -7 28 -13q10 -4 38 -10q24 -3 52 0h10q3 1 10 1q33 7 44 10q18 5 51 17l36 -94q-38 -16 -74 -24q-39 -8 -66 -11q-30 -6 -59 -17
q-17 -5 -75 -28l-77 -34q-49 -23 -67 -33z" />
    <glyph glyph-name="uni0681.medi" unicode="&#x681;" horiz-adv-x="1637" 
d="M-75 75q0 32 23 54q21 22 53 22q138 0 274 23q125 21 252 58q124 38 219 78q105 45 178 82l67 32l139 67q-73 17 -143 38q-44 13 -120 40q-29 10 -101 39l-87 37q-76 33 -115 47q-48 19 -93 19q-40 0 -69 -19q-33 -19 -59 -50q-29 -34 -50 -70l-44 -78l-133 68l30 56
q14 27 40 65q25 37 52 65q24 29 63 58q33 24 77 40q42 16 93 16q34 0 67 -6q24 -5 64 -16q44 -16 67 -26l72 -30l56 -24.5l55 -23.5q65 -26 137 -50q81 -26 173 -47q107 -25 217 -40l23 -143q-57 -27 -61 -29l-63 -31l-74 -35q0 -78 40 -121q38 -41 103 -62q69 -19 143 -22
q71 -4 159 -4v-151q-11 0 -42.5 0.5t-52.5 0.5q-66 3 -124 10q-62 7 -131 26q-64 16 -119 49q-53 31 -87 82q-33 49 -33 122l-3 -3q-11 -5 -33 -16q-10 -4 -34 -16q-88 -44 -186 -86q-101 -41 -231 -82q-127 -37 -268 -62q-140 -25 -299 -25h-5q-32 0 -53 21q-23 20 -23 53z
M342 980l-45 88q9 5 51 26q38 19 86 40q-9 4 -17 12q-5 4 -12 11q-37 33 -55 81q-15 47 -1 91q48 154 204 154q36 0 65 -11q29 -8 55 -23t39 -25q14 -9 19 -14l-66 -76q-1 0 -7 5t-10 8q-19 12 -28 16q-19 9 -32 13q-18 6 -35 6q-19 0 -35 -4q-15 -3 -30 -12
q-16 -12 -24 -26q-12 -15 -20 -42q-3 -11 3 -31q6 -21 25 -38q2 -1 18 -13q8 -5 28 -13q19 -6 40 -9q20 -4 51 -1q7 0 10 1h10q33 7 44 10q18 5 51 17l36 -94q-38 -16 -74 -24q-39 -8 -66 -11q-27 -5 -60 -16q-59 -23 -74 -30q-31 -12 -77 -34q-38 -17 -67 -32z" />
    <glyph glyph-name="uni0681.fina" unicode="&#x681;" horiz-adv-x="1697" 
d="M1141 429q-91 -17 -169 -37q-90 -22 -174 -54q-85 -32 -162 -77q-73 -41 -136 -102q-59 -60 -92 -131q-34 -72 -34 -164q0 -254 196 -375q82 -51 184 -73q104 -24 218 -20q113 3 237 32q119 29 237 86l66 -135q-138 -67 -284 -100q-145 -33 -283 -33q-133 0 -246 28
q-118 29 -209 88q-134 84 -200 210q-68 127 -68 292q0 116 38 204q35 89 100 164q64 72 148 127q89 58 179 95q86 38 193 69q92 27 189 46q-72 26 -139 59l-111 55q-63 33 -111 54q-46 21 -92 21q-12 0 -42 -4q-27 -7 -44 -14q-21 -7 -42 -20q-16 -9 -36 -25
q-33 -27 -56 -57q-26 -32 -42 -57q-13 -19 -28 -44q-9 -18 -10 -19l-136 65q1 1 13 25q18 32 35 56q15 25 54 73q31 38 73 74q53 44 125 71q72 25 136 25q38 0 69 -7q37 -9 65 -19q37 -13 66 -28q46 -22 71 -35q30 -17 105 -53q55 -27 130 -55q71 -26 164 -52
q88 -25 205 -43l-10 -150q-1 0 -7 -0.5t-19.5 -1t-28.5 -0.5q-42 -1 -135 -13q0 -76 19 -130q20 -56 58 -93q24 -24 57 -37q34 -15 71 -24q42 -8 76 -12q19 -2 67 -4q30 -1 49 0h19v-150h-15h-32q-12 -1 -36 -1h-27q-32 0 -67 4q-46 5 -86 17q-46 12 -93 36q-48 23 -88 63
q-59 55 -90 133q-31 79 -32 177zM388 1023l-45 88l51 27l86 39q-7 3 -17 11l-12 12q-39 34 -55 82q-15 45 -1 90q48 154 204 154q30 0 65 -10q38 -15 55 -24q24 -14 39 -24q15 -11 19 -15l-66 -76q-1 0 -7 5t-10 8q-19 12 -28 16q-17 9 -32 14q-20 5 -35 5q-17 0 -35 -3
q-17 -5 -30 -13q-14 -10 -24 -25q-13 -20 -20 -43q-3 -11 3 -31q6 -21 25 -38q2 -1 18 -13q8 -5 28 -13q17 -6 40 -10q22 -3 51 0h10q3 1 10 1q33 7 44 10q18 5 51 17l36 -94q-38 -16 -74 -24q-39 -8 -66 -11q-29 -5 -60 -17q-13 -4 -74 -28l-77 -34q-49 -23 -67 -33z" />
    <glyph glyph-name="uni0682.init" unicode="&#x682;" horiz-adv-x="1526" 
d="M-76 74q0 30 22 54q23 22 54 22q138 0 274 24q139 23 266 60q129 36 242 81q108 43 204 89q20 11 66 34l72 35q-84 18 -143 37q-48 14 -119 39l-57 22t-45 17q-33 15 -86 37q-68 31 -115 48q-50 18 -94 18q-37 0 -69 -19q-34 -22 -58 -50q-29 -34 -50 -70
q-27 -43 -44 -78l-133 69l49 87q29 52 72 98q44 49 100 81q58 33 133 33q34 0 67 -6q24 -5 64 -16q44 -16 67 -26l72 -30l56 -24.5l55 -23.5q65 -26 137 -50q81 -26 173 -47q105 -25 218 -40l22 -141l-124 -61l-112 -55l-108 -52q-92 -45 -214 -94q-118 -48 -252 -87
q-129 -38 -282 -64q-146 -25 -304 -25q-30 0 -54 21q-22 22 -22 53zM244 1496l143 142l142 -143l-142 -143zM247 1140l143 142l142 -143l-142 -143z" />
    <glyph glyph-name="uni0682.medi" unicode="&#x682;" horiz-adv-x="1642" 
d="M-68 75q0 30 22 54q23 22 54 22q138 0 274 23q125 21 252 58q117 35 220 78q117 51 177 82l67 32l139 67q-73 17 -143 38q-44 13 -120 40l-57 22t-45 17q-33 15 -86 37q-76 33 -115 47q-48 19 -93 19q-38 0 -70 -19q-34 -22 -58 -50q-29 -34 -50 -70l-44 -78l-133 68
l30 56q14 27 40 65q18 27 51 65q30 33 64 58q33 25 78 40q41 16 92 16q34 0 66 -6q22 -4 66 -16q50 -19 66 -26l72 -30l110 -48q70 -27 138 -50q81 -26 173 -47q107 -25 217 -40l23 -143q-57 -27 -61 -29q-7 -3 -28.5 -14t-35.5 -17l-73 -35q0 -77 39 -121q40 -41 104 -62
q69 -19 143 -22q71 -4 159 -4v-151q-11 0 -42.5 0.5t-52.5 0.5q-66 3 -123 10q-63 7 -132 26q-63 16 -120 49q-52 31 -86 82q-33 49 -33 122q0 1 -1 0q0 -1 -2 -3q-22 -10 -32 -16q-9 -3 -35 -16q-90 -45 -187 -86q-99 -41 -230 -82q-127 -37 -268 -62q-140 -25 -299 -25h-5
q-30 0 -54 21q-22 22 -22 53zM320 1535l143 142l142 -143l-142 -143zM323 1179l143 142l142 -143l-142 -143z" />
    <glyph glyph-name="uni0682.fina" unicode="&#x682;" horiz-adv-x="1692" 
d="M1141 429q-91 -17 -169 -37q-90 -22 -174 -54q-85 -32 -162 -77q-73 -41 -136 -102q-59 -60 -92 -131q-34 -72 -34 -164q0 -254 196 -375q82 -51 184 -73q104 -24 218 -20q113 3 237 32q119 29 237 86l66 -135q-138 -67 -284 -100q-145 -33 -283 -33q-133 0 -246 28
q-118 29 -209 88q-134 84 -200 210q-68 127 -68 292q0 116 38 204q35 89 100 164q64 72 148 127q89 58 179 95q86 38 193 69q92 27 189 46q-72 26 -139 59l-111 55q-63 33 -111 54q-46 21 -92 21q-12 0 -42 -4q-27 -7 -44 -14q-21 -7 -42 -20q-16 -9 -36 -25
q-33 -27 -56 -57q-26 -32 -42 -57q-13 -19 -28 -44q-9 -18 -10 -19l-136 65q1 1 13 25q18 32 35 56q15 25 54 73q31 38 73 74q53 44 125 71q72 25 136 25q38 0 69 -7q37 -9 65 -19q37 -13 66 -28q46 -22 71 -35q30 -17 105 -53q55 -27 130 -55q71 -26 164 -52
q88 -25 205 -43l-10 -150q-1 0 -7 -0.5t-19.5 -1t-28.5 -0.5q-42 -1 -135 -13q0 -76 19 -130q20 -56 58 -93q24 -24 57 -37q34 -15 71 -24q42 -8 76 -12q19 -2 67 -4q30 -1 49 0h19v-150h-15h-32q-12 -1 -36 -1h-27q-32 0 -67 4q-46 5 -86 17q-46 12 -93 36q-48 23 -88 63
q-59 55 -90 133q-31 79 -32 177zM396 1529l143 142l142 -143l-142 -143zM399 1173l143 142l142 -143l-142 -143z" />
    <glyph glyph-name="uni0683.init" unicode="&#x683;" horiz-adv-x="1452" arabic-form="initial" 
d="M-76 74q0 30 22 54q23 22 54 22q138 0 274 24q139 23 266 60q129 36 242 81q108 43 204 89q20 11 66 34l72 35q-84 18 -143 37q-48 14 -119 39l-57 22t-45 17q-33 15 -86 37q-68 31 -115 48q-50 18 -94 18q-37 0 -69 -19q-34 -22 -58 -50q-29 -34 -50 -70
q-27 -43 -44 -78l-133 69l49 87q29 52 72 98q44 49 100 81q58 33 133 33q34 0 67 -6q24 -5 64 -16q44 -16 67 -26l72 -30l56 -24.5l55 -23.5q65 -26 137 -50q81 -26 173 -47q105 -25 218 -40l22 -141l-124 -61l-112 -55l-108 -52q-92 -45 -214 -94q-118 -48 -252 -87
q-129 -38 -282 -64q-146 -25 -304 -25q-30 0 -54 21q-22 22 -22 53zM508 -316l-136 -135l-135 136l134 135zM850 -317l-134 -135l-136 136l135 135z" />
    <glyph glyph-name="uni0683.medi" unicode="&#x683;" horiz-adv-x="1642" arabic-form="medial" 
d="M-71 75q0 32 23 54q21 22 53 22q138 0 274 23q125 21 252 58q124 38 219 78q105 45 178 82l67 32l139 67q-73 17 -143 38q-44 13 -120 40q-29 10 -101 39l-87 37q-76 33 -115 47q-48 19 -93 19q-40 0 -69 -19q-33 -19 -59 -50q-29 -34 -50 -70l-44 -78l-133 68l30 56
q14 27 40 65q25 37 52 65q24 29 63 58q33 24 77 40q42 16 93 16q34 0 67 -6q24 -5 64 -16q44 -16 67 -26l72 -30l56 -24.5l55 -23.5q65 -26 137 -50q81 -26 173 -47q107 -25 217 -40l23 -143q-57 -27 -61 -29l-63 -31l-74 -35q0 -78 40 -121q38 -41 103 -62q69 -19 143 -22
q71 -4 159 -4v-151q-11 0 -42.5 0.5t-52.5 0.5q-66 3 -124 10q-62 7 -131 26q-64 16 -119 49q-53 31 -87 82q-33 49 -33 122l-3 -3q-11 -5 -33 -16q-10 -4 -34 -16q-88 -44 -186 -86q-101 -41 -231 -82q-127 -37 -268 -62q-140 -25 -299 -25h-5q-32 0 -53 21q-23 20 -23 53z
M726 -314l-136 -135l-135 136l134 135zM1068 -315l-134 -135l-136 136l135 135z" />
    <glyph glyph-name="uni0683.fina" unicode="&#x683;" horiz-adv-x="1697" arabic-form="final" 
d="M1141 429q-91 -17 -169 -37q-90 -22 -174 -54q-85 -32 -162 -77q-73 -41 -136 -102q-59 -60 -92 -131q-34 -72 -34 -164q0 -254 196 -375q82 -51 184 -73q104 -24 218 -20q113 3 237 32q119 29 237 86l66 -135q-138 -67 -284 -100q-145 -33 -283 -33q-133 0 -246 28
q-118 29 -209 88q-134 84 -200 210q-68 127 -68 292q0 116 38 204q35 89 100 164q64 72 148 127q89 58 179 95q86 38 193 69q92 27 189 46q-72 26 -139 59l-111 55q-63 33 -111 54q-46 21 -92 21q-12 0 -42 -4q-27 -7 -44 -14q-21 -7 -42 -20q-16 -9 -36 -25
q-33 -27 -56 -57q-26 -32 -42 -57q-13 -19 -28 -44q-9 -18 -10 -19l-136 65q1 1 13 25q18 32 35 56q15 25 54 73q31 38 73 74q53 44 125 71q72 25 136 25q38 0 69 -7q37 -9 65 -19q37 -13 66 -28q46 -22 71 -35q30 -17 105 -53q55 -27 130 -55q71 -26 164 -52
q88 -25 205 -43l-10 -150q-1 0 -7 -0.5t-19.5 -1t-28.5 -0.5q-42 -1 -135 -13q0 -76 19 -130q20 -56 58 -93q24 -24 57 -37q34 -15 71 -24q42 -8 76 -12q19 -2 67 -4q30 -1 49 0h19v-150h-15h-32q-12 -1 -36 -1h-27q-32 0 -67 4q-46 5 -86 17q-46 12 -93 36q-48 23 -88 63
q-59 55 -90 133q-31 79 -32 177zM865 -141l-136 -135l-135 136l134 135zM1207 -142l-134 -135l-136 136l135 135z" />
    <glyph glyph-name="uni0684.init" unicode="&#x684;" horiz-adv-x="1516" arabic-form="initial" 
d="M-76 74q0 30 22 54q23 22 54 22q138 0 274 24q139 23 266 60q129 36 242 81q108 43 204 89q20 11 66 34l72 35q-84 18 -143 37q-48 14 -119 39l-57 22t-45 17q-33 15 -86 37q-68 31 -115 48q-50 18 -94 18q-37 0 -69 -19q-34 -22 -58 -50q-29 -34 -50 -70
q-27 -43 -44 -78l-133 69l49 87q29 52 72 98q44 49 100 81q58 33 133 33q34 0 67 -6q24 -5 64 -16q44 -16 67 -26l72 -30l56 -24.5l55 -23.5q65 -26 137 -50q81 -26 173 -47q105 -25 218 -40l22 -141l-124 -61l-112 -55l-108 -52q-92 -45 -214 -94q-118 -48 -252 -87
q-129 -38 -282 -64q-146 -25 -304 -25q-30 0 -54 21q-22 22 -22 53zM351 -264l143 142l142 -143l-142 -143zM354 -620l143 142l142 -143l-142 -143z" />
    <glyph glyph-name="uni0684.medi" unicode="&#x684;" horiz-adv-x="1642" arabic-form="medial" 
d="M-74 75q0 30 22 54q23 22 54 22q138 0 274 23q125 21 252 58q117 35 220 78q117 51 177 82l67 32l139 67q-73 17 -143 38q-44 13 -120 40l-57 22t-45 17q-33 15 -86 37q-76 33 -115 47q-48 19 -93 19q-38 0 -70 -19q-34 -22 -58 -50q-29 -34 -50 -70l-44 -78l-133 68
l30 56q14 27 40 65q18 27 51 65q30 33 64 58q33 25 78 40q41 16 92 16q34 0 66 -6q22 -4 66 -16q50 -19 66 -26l72 -30l110 -48q70 -27 138 -50q81 -26 173 -47q107 -25 217 -40l23 -143q-57 -27 -61 -29q-7 -3 -28.5 -14t-35.5 -17l-73 -35q0 -77 39 -121q40 -41 104 -62
q69 -19 143 -22q71 -4 159 -4v-151q-11 0 -42.5 0.5t-52.5 0.5q-66 3 -123 10q-63 7 -132 26q-63 16 -120 49q-52 31 -86 82q-33 49 -33 122q0 1 -1 0q0 -1 -2 -3q-22 -10 -32 -16q-9 -3 -35 -16q-90 -45 -187 -86q-99 -41 -230 -82q-127 -37 -268 -62q-140 -25 -299 -25h-5
q-30 0 -54 21q-22 22 -22 53zM573 -274l143 142l142 -143l-142 -143zM576 -630l143 142l142 -143l-142 -143z" />
    <glyph glyph-name="uni0684.fina" unicode="&#x684;" horiz-adv-x="1551" arabic-form="final" 
d="M1297 228q35 -35 81 -50q42 -17 86 -23q42 -6 68 -5l28 1v-150q-4 0 -8 -1h-25q-32 0 -67 4q-43 5 -87 16q-47 14 -93 36q-50 26 -88 64q-118 111 -122 310q-85 -16 -170 -37q-91 -24 -174 -55q-79 -29 -162 -76q-80 -46 -134 -102q-58 -57 -93 -131q-34 -72 -34 -164
q0 -254 196 -375q80 -50 183 -74q107 -23 220 -20q117 5 236 34q117 28 237 85l66 -135q-137 -67 -283 -100t-284 -33q-133 0 -246 28q-118 29 -209 88q-133 83 -199 209q-68 127 -68 293q0 114 38 205q36 90 100 163q64 72 148 127q78 52 178 96q99 41 192 68q92 27 191 46
q-65 24 -139 58l-112 56q-60 31 -110 54q-48 21 -93 21q-39 0 -85 -17q-47 -18 -79 -46q-31 -26 -57 -57l-42 -57q-18 -27 -26 -44q-10 -17 -10 -19l-136 65l2 3q1 3 4.5 9t6.5 12q10 21 34 57q21 32 54 73q32 39 74 74q27 23 59 40q28 17 64 30q29 11 69 20q35 6 68 6
q38 0 69 -7q37 -8 66 -19q37 -13 66 -28q46 -22 71 -35q30 -17 105 -53q55 -27 130 -55q68 -26 163 -52q88 -25 205 -43l-10 -150q-1 0 -7 -0.5t-19 -1t-28 -0.5q-41 -1 -136 -13q0 -76 19 -130q20 -56 58 -93zM679 50l143 142l142 -143l-142 -143zM682 -306l143 142
l142 -143l-142 -143z" />
    <glyph glyph-name="uni0685.init" unicode="&#x685;" horiz-adv-x="1521" 
d="M-76 74q0 30 22 54q23 22 54 22q138 0 274 24q139 23 266 60q129 36 242 81q108 43 204 89q20 11 66 34l72 35q-84 18 -143 37q-48 14 -119 39l-57 22t-45 17q-33 15 -86 37q-68 31 -115 48q-50 18 -94 18q-37 0 -69 -19q-34 -22 -58 -50q-29 -34 -50 -70
q-27 -43 -44 -78l-133 69l49 87q29 52 72 98q44 49 100 81q58 33 133 33q34 0 67 -6q24 -5 64 -16q44 -16 67 -26l72 -30l56 -24.5l55 -23.5q65 -26 137 -50q81 -26 173 -47q105 -25 218 -40l22 -141l-124 -61l-112 -55l-108 -52q-92 -45 -214 -94q-118 -48 -252 -87
q-129 -38 -282 -64q-146 -25 -304 -25q-30 0 -54 21q-22 22 -22 53zM360 1140l-127 -129l-130 130l129 128zM542 1413l-127 -129l-129 130l128 128zM588 1011l-127 130l126 128l130 -129z" />
    <glyph glyph-name="uni0685.medi" unicode="&#x685;" horiz-adv-x="1642" 
d="M-74 75q0 30 22 54q23 22 54 22q138 0 274 23q125 21 252 58q117 35 220 78q117 51 177 82l67 32l139 67q-73 17 -143 38q-44 13 -120 40l-57 22t-45 17q-33 15 -86 37q-76 33 -115 47q-48 19 -93 19q-38 0 -70 -19q-34 -22 -58 -50q-29 -34 -50 -70l-44 -78l-133 68
l30 56q14 27 40 65q18 27 51 65q30 33 64 58q33 25 78 40q41 16 92 16q34 0 66 -6q22 -4 66 -16q50 -19 66 -26l72 -30l110 -48q70 -27 138 -50q81 -26 173 -47q107 -25 217 -40l23 -143q-57 -27 -61 -29q-7 -3 -28.5 -14t-35.5 -17l-73 -35q0 -77 39 -121q40 -41 104 -62
q69 -19 143 -22q71 -4 159 -4v-151q-11 0 -42.5 0.5t-52.5 0.5q-66 3 -123 10q-63 7 -132 26q-63 16 -120 49q-52 31 -86 82q-33 49 -33 122q0 1 -1 0q0 -1 -2 -3q-22 -10 -32 -16q-9 -3 -35 -16q-90 -45 -187 -86q-99 -41 -230 -82q-127 -37 -268 -62q-140 -25 -299 -25h-5
q-30 0 -54 21q-22 22 -22 53zM456 1137l-127 -129l-130 130l129 128zM638 1410l-127 -129l-129 130l128 128zM684 1008l-127 130l126 128l130 -129z" />
    <glyph glyph-name="uni0685.fina" unicode="&#x685;" horiz-adv-x="1692" 
d="M1141 429q-91 -17 -169 -37q-90 -22 -174 -54q-85 -32 -162 -77q-73 -41 -136 -102q-59 -60 -92 -131q-34 -72 -34 -164q0 -254 196 -375q82 -51 184 -73q104 -24 218 -20q113 3 237 32q119 29 237 86l66 -135q-138 -67 -284 -100q-145 -33 -283 -33q-133 0 -246 28
q-118 29 -209 88q-134 84 -200 210q-68 127 -68 292q0 116 38 204q35 89 100 164q64 72 148 127q89 58 179 95q86 38 193 69q92 27 189 46q-72 26 -139 59l-111 55q-63 33 -111 54q-46 21 -92 21q-12 0 -42 -4q-27 -7 -44 -14q-21 -7 -42 -20q-16 -9 -36 -25
q-33 -27 -56 -57q-26 -32 -42 -57q-13 -19 -28 -44q-9 -18 -10 -19l-136 65q1 1 13 25q18 32 35 56q15 25 54 73q31 38 73 74q53 44 125 71q72 25 136 25q38 0 69 -7q37 -9 65 -19q37 -13 66 -28q46 -22 71 -35q30 -17 105 -53q55 -27 130 -55q71 -26 164 -52
q88 -25 205 -43l-10 -150q-1 0 -7 -0.5t-19.5 -1t-28.5 -0.5q-42 -1 -135 -13q0 -76 19 -130q20 -56 58 -93q24 -24 57 -37q34 -15 71 -24q42 -8 76 -12q19 -2 67 -4q30 -1 49 0h19v-150h-15h-32q-12 -1 -36 -1h-27q-32 0 -67 4q-46 5 -86 17q-46 12 -93 36q-48 23 -88 63
q-59 55 -90 133q-31 79 -32 177zM477 1256l-127 -129l-130 130l129 128zM659 1529l-127 -129l-129 130l128 128zM705 1127l-127 130l126 128l130 -129z" />
    <glyph glyph-name="uni0686" unicode="&#x686;" horiz-adv-x="1533" arabic-form="isolated" 
d="M1457 -485l66 -136q-138 -66 -283 -99q-142 -34 -284 -34q-130 0 -246 30q-116 29 -209 87q-131 83 -199 209q-67 129 -67 293q0 113 37 205q38 92 100 164q65 73 148 126q80 52 179 96q99 41 192 68q95 26 190 45q-69 26 -139 59l-112 56q-60 31 -110 54q-49 20 -91 20
q-39 0 -87 -17q-45 -16 -79 -44q-33 -28 -57 -58l-42 -57q-19 -32 -26 -45l-9 -18l-137 64l2 3q1 3 4.5 9.5l6.5 12.5q14 27 34 57q21 32 54 73q32 39 74 74q54 45 124 72q72 26 138 26q38 0 67 -7q37 -8 66 -19q44 -18 66 -30q23 -10 71 -35l105 -53q55 -27 130 -55
q71 -26 164 -52q86 -24 204 -43l-10 -150h-6q-5 -1 -17.5 -1.5t-26.5 -0.5q-47 -3 -128 -12q-72 -7 -177 -26q-87 -14 -203 -46q-102 -30 -202 -74q-96 -43 -176 -106q-79 -65 -124 -146q-47 -82 -47 -189q0 -127 49 -219q48 -94 147 -156q80 -50 183 -74q107 -23 220 -20
q115 3 236 33q119 29 237 86zM746 135l137 -136l-136 -134l-136 135zM986 0l134 135l138 -136l-136 -134zM797 -281l136 134l136 -135l-134 -135z" />
    <glyph glyph-name="uni0687.init" unicode="&#x687;" horiz-adv-x="1494" arabic-form="initial" 
d="M-76 74q0 30 22 54q23 22 54 22q138 0 274 24q139 23 266 60q129 36 242 81q108 43 204 89q20 11 66 34l72 35q-84 18 -143 37q-48 14 -119 39l-57 22t-45 17q-33 15 -86 37q-68 31 -115 48q-50 18 -94 18q-37 0 -69 -19q-34 -22 -58 -50q-29 -34 -50 -70
q-27 -43 -44 -78l-133 69l49 87q29 52 72 98q44 49 100 81q58 33 133 33q34 0 67 -6q24 -5 64 -16q44 -16 67 -26l72 -30l56 -24.5l55 -23.5q65 -26 137 -50q81 -26 173 -47q105 -25 218 -40l22 -141l-124 -61l-112 -55l-108 -52q-92 -45 -214 -94q-118 -48 -252 -87
q-129 -38 -282 -64q-146 -25 -304 -25q-30 0 -54 21q-22 22 -22 53zM919 -285l-134 -135l-137 136l136 135zM600 -285l-136 -135l-135 136l134 135zM917 -636l-134 -135l-137 136l136 135zM598 -636l-136 -135l-135 136l134 135z" />
    <glyph glyph-name="uni0687.medi" unicode="&#x687;" horiz-adv-x="1637" arabic-form="medial" 
d="M-72 75q0 30 22 54q23 22 54 22q138 0 274 23q125 21 252 58q117 35 220 78q117 51 177 82l67 32l139 67q-73 17 -143 38q-44 13 -120 40l-57 22t-45 17q-33 15 -86 37q-76 33 -115 47q-48 19 -93 19q-38 0 -70 -19q-34 -22 -58 -50q-29 -34 -50 -70l-44 -78l-133 68
l30 56q14 27 40 65q18 27 51 65q30 33 64 58q33 25 78 40q41 16 92 16q34 0 66 -6q22 -4 66 -16q50 -19 66 -26l72 -30l110 -48q70 -27 138 -50q81 -26 173 -47q107 -25 217 -40l23 -143q-57 -27 -61 -29q-7 -3 -28.5 -14t-35.5 -17l-73 -35q0 -77 39 -121q40 -41 104 -62
q69 -19 143 -22q71 -4 159 -4v-151q-11 0 -42.5 0.5t-52.5 0.5q-66 3 -123 10q-63 7 -132 26q-63 16 -120 49q-52 31 -86 82q-33 49 -33 122q0 1 -1 0q0 -1 -2 -3q-22 -10 -32 -16q-9 -3 -35 -16q-90 -45 -187 -86q-99 -41 -230 -82q-127 -37 -268 -62q-140 -25 -299 -25h-5
q-30 0 -54 21q-22 22 -22 53zM1031 -229l-134 -135l-137 136l136 135zM712 -229l-136 -135l-135 136l134 135zM1029 -580l-134 -135l-137 136l136 135zM710 -580l-136 -135l-135 136l134 135z" />
    <glyph glyph-name="uni0687.fina" unicode="&#x687;" horiz-adv-x="1551" arabic-form="final" 
d="M1297 228q35 -35 81 -50q42 -17 86 -23q42 -6 68 -5l28 1v-150q-4 0 -8 -1h-25q-32 0 -67 4q-43 5 -87 16q-47 14 -93 36q-50 26 -88 64q-118 111 -122 310q-85 -16 -170 -37q-91 -24 -174 -55q-79 -29 -162 -76q-80 -46 -134 -102q-58 -57 -93 -131q-34 -72 -34 -164
q0 -254 196 -375q80 -50 183 -74q107 -23 220 -20q117 5 236 34q117 28 237 85l66 -135q-137 -67 -283 -100t-284 -33q-133 0 -246 28q-118 29 -209 88q-133 83 -199 209q-68 127 -68 293q0 114 38 205q36 90 100 163q64 72 148 127q78 52 178 96q99 41 192 68q92 27 191 46
q-65 24 -139 58l-112 56q-60 31 -110 54q-48 21 -93 21q-39 0 -85 -17q-47 -18 -79 -46q-31 -26 -57 -57l-42 -57q-18 -27 -26 -44q-10 -17 -10 -19l-136 65l2 3q1 3 4.5 9t6.5 12q10 21 34 57q21 32 54 73q32 39 74 74q27 23 59 40q28 17 64 30q29 11 69 20q35 6 68 6
q38 0 69 -7q37 -8 66 -19q37 -13 66 -28q46 -22 71 -35q30 -17 105 -53q55 -27 130 -55q68 -26 163 -52q88 -25 205 -43l-10 -150q-1 0 -7 -0.5t-19 -1t-28 -0.5q-41 -1 -136 -13q0 -76 19 -130q20 -56 58 -93zM1092 23l-134 -135l-137 136l136 135zM773 23l-136 -135
l-135 136l134 135zM1090 -328l-134 -135l-137 136l136 135zM771 -328l-136 -135l-135 136l134 135z" />
    <glyph glyph-name="uni0688" unicode="&#x688;" horiz-adv-x="1115" arabic-form="isolated" 
d="M533 1q-90 0 -165 18q-80 20 -128 41q-47 19 -84 40q-30 20 -33 21l87 122l24 -14q30 -17 66 -31q46 -19 102 -32q62 -14 131 -14q160 0 249 50q88 51 88 145q0 84 -31 161q-31 75 -77 144q-52 73 -101 122q-44 46 -101 96q-37 31 -79 61l-11.5 8l-9 6.5l-6.5 4.5t-4 3
l-2 1l81 126l43 -30q31 -20 94 -73q54 -47 116 -113q59 -60 116 -146q54 -85 87 -174q35 -94 35 -197q0 -9 -4 -55q-7 -40 -22 -72q-14 -35 -48 -77q-29 -36 -86 -71q-58 -32 -134 -51q-82 -20 -193 -20zM737 1588q42 -28 61 -76q18 -44 10 -100q-11 -65 -50 -110
q-39 -48 -97 -67q-42 -13 -61 -17q-17 -4 -52 -11q-16 -3 -46 -5q-15 -1 -43 -1h-38q-15 0 -23 1h-25q-83 0 -137 6q-55 4 -90 12q-33 6 -48 12q-11 4 -19 8l19 33l17 33q3 0 21 -7q16 -6 74 -14q1 2 28 39q15 21 49 63q6 23 7 51q3 37 2 76q-2 62 -4 95q-2 51 -6 105
l-9 106l-5.5 55.5t-4.5 44.5l75 7q5 -37 8 -73q0 -3 4 -45.5t6 -66.5q6 -61 9 -131q3 -76 2 -132l14 14q2 3 7 7t8 7q49 43 92 67q53 28 91 36q40 11 83 6q41 -6 71 -28zM734 1423q5 32 -6 59q-10 27 -34 44q-41 29 -107 8q-66 -19 -137 -83q-46 -40 -88 -90
q-38 -46 -64 -82q11 -1 35 -1h40h26q8 -1 23 -1h49q23 0 48 3q23 1 53 8q26 5 66 18q37 12 63 44q25 31 33 73z" />
    <glyph glyph-name="uni0689.fina" unicode="&#x689;" horiz-adv-x="1127" 
d="M1120 150h21v-150h-21q-150 2 -246 126q-23 -20 -60 -46q-41 -24 -84 -40q-49 -19 -108 -29q-63 -11 -136 -11q-106 0 -186 22q-77 25 -122 50q-49 31 -66 52q-20 23 -22 27l102 115q0 -1 18 -19q21 -19 56 -39q37 -22 92 -40t128 -18q71 -1 126 11q52 12 92 30
q32 16 60 37q30 30 34 35l-8 20q-3 7 -7 21l-270 654l138 57l301 -728v-1q22 -47 47 -76q23 -28 47 -41q20 -13 41 -16q19 -3 33 -3zM617 1472q17 0 33 10t26 24q11 14 19 33q7 17 7 35t-7 35q-8 19 -19 33q-10 13 -26 24q-16 9 -33 9t-34 -9q-17 -10 -27 -24
q-11 -14 -19 -33q-7 -17 -7 -35t7 -35q8 -19 19 -33q10 -15 27 -24q16 -10 34 -10zM617 1771q34 0 70 -17q35 -16 60 -48q51 -58 51 -132q0 -35 -13 -70q-15 -36 -38 -62q-27 -33 -60 -49q-36 -17 -70 -17q-35 0 -71 17q-32 15 -61 49q-25 30 -37 62q-14 34 -14 70
q0 37 14 69q11 32 37 63q27 32 61 48q36 17 71 17z" />
    <glyph glyph-name="uni068A.fina" unicode="&#x68a;" horiz-adv-x="1141" 
d="M1120 150h21v-150h-21q-150 2 -246 126q-23 -20 -60 -46q-41 -24 -84 -40q-49 -19 -108 -29q-63 -11 -136 -11q-106 0 -186 22q-77 25 -122 50q-49 31 -66 52q-20 23 -22 27l102 115q0 -1 18 -19q21 -19 56 -39q37 -22 92 -40t128 -18q71 -1 126 11q52 12 92 30
q32 16 60 37q30 30 34 35l-8 20q-3 7 -7 21l-270 654l138 57l301 -728v-1q22 -47 47 -76q23 -28 47 -41q20 -13 41 -16q19 -3 33 -3zM479 -327l135 135l137 -136l-136 -135z" />
    <glyph glyph-name="uni068B.fina" unicode="&#x68b;" horiz-adv-x="1141" 
d="M1120 150h21v-150h-21q-150 2 -246 126q-23 -20 -60 -46q-41 -24 -84 -40q-49 -19 -108 -29q-63 -11 -136 -11q-106 0 -186 22q-77 25 -122 50q-49 31 -66 52q-20 23 -22 27l102 115q0 -1 18 -19q21 -19 56 -39q37 -22 92 -40t128 -18q71 -1 126 11q52 12 92 30
q32 16 60 37q30 30 34 35l-8 20q-3 7 -7 21l-270 654l138 57l301 -728v-1q22 -47 47 -76q23 -28 47 -41q20 -13 41 -16q19 -3 33 -3zM479 -327l135 135l137 -136l-136 -135zM878 1527q41 -28 60 -75q19 -46 11 -101q-11 -64 -49 -111q-41 -47 -98 -66l-62 -18
q-13 -3 -51 -10q-16 -3 -46 -5q-15 -1 -43 -1h-38h-23q-8 1 -25 1q-75 0 -138 5q-57 6 -88 12q-35 8 -50 13q-10 4 -18 8l19 33l17 33q2 0 22 -7q15 -6 73 -14l12.5 17.5l15.5 22.5q15 21 49 62q5 21 8 51q2 45 1 77q-1 37 -3 94q-4 71 -7 104l-9 107l-5.5 55.5t-4.5 44.5
l75 7q5 -40 8 -74q2 -18 5.5 -56t5.5 -55q6 -78 8 -131q3 -76 2 -132l14 14q2 2 7 6.5t8 7.5q52 45 93 67q42 24 90 37q46 10 83 4q40 -5 71 -27zM875 1362q5 32 -6 59q-10 27 -34 44q-41 29 -107 9q-67 -21 -137 -84q-48 -42 -87 -90q-35 -42 -65 -82q11 -1 35 -1h40
q18 0 26 -1h23h49q14 0 48 2q22 3 54 9q29 6 65 18q37 12 63 44q25 31 33 73z" />
    <glyph glyph-name="uni068C.fina" unicode="&#x68c;" horiz-adv-x="1141" arabic-form="final" 
d="M1120 150h21v-150h-21q-150 2 -246 126q-23 -20 -60 -46q-41 -24 -84 -40q-49 -19 -108 -29q-63 -11 -136 -11q-106 0 -186 22q-77 25 -122 50q-49 31 -66 52q-20 23 -22 27l102 115q0 -1 18 -19q21 -19 56 -39q37 -22 92 -40t128 -18q71 -1 126 11q52 12 92 30
q32 16 60 37q30 30 34 35l-8 20q-3 7 -7 21l-270 654l138 57l301 -728v-1q22 -47 47 -76q23 -28 47 -41q20 -13 41 -16q19 -3 33 -3zM537 1331l-134 -133l-137 135l135 136zM880 1331l-135 -133l-136 135l136 136z" />
    <glyph glyph-name="uni068D.fina" unicode="&#x68d;" horiz-adv-x="1141" arabic-form="final" 
d="M1120 150h21v-150h-21q-150 2 -246 126q-23 -20 -60 -46q-41 -24 -84 -40q-49 -19 -108 -29q-63 -11 -136 -11q-106 0 -186 22q-77 25 -122 50q-49 31 -66 52q-20 23 -22 27l102 115q0 -1 18 -19q21 -19 56 -39q37 -22 92 -40t128 -18q71 -1 126 11q52 12 92 30
q32 16 60 37q30 30 34 35l-8 20q-3 7 -7 21l-270 654l138 57l301 -728v-1q22 -47 47 -76q23 -28 47 -41q20 -13 41 -16q19 -3 33 -3zM591 -313l-136 -135l-135 136l134 135zM933 -314l-134 -135l-136 136l135 135z" />
    <glyph glyph-name="uni068E.fina" unicode="&#x68e;" horiz-adv-x="1141" arabic-form="final" 
d="M1120 150h21v-150h-21q-150 2 -246 126q-23 -20 -60 -46q-41 -24 -84 -40q-49 -19 -108 -29q-63 -11 -136 -11q-106 0 -186 22q-77 25 -122 50q-49 31 -66 52q-20 23 -22 27l102 115q0 -1 18 -19q21 -19 56 -39q37 -22 92 -40t128 -18q71 -1 126 11q52 12 92 30
q32 16 60 37q30 30 34 35l-8 20q-3 7 -7 21l-270 654l138 57l301 -728v-1q22 -47 47 -76q23 -28 47 -41q20 -13 41 -16q19 -3 33 -3zM532 1271l-127 -129l-130 130l129 128zM714 1544l-127 -129l-129 130l128 128zM760 1142l-127 130l126 128l130 -129z" />
    <glyph glyph-name="uni068F.fina" unicode="&#x68f;" horiz-adv-x="1141" 
d="M1120 150h21v-150h-21q-150 2 -246 126q-23 -20 -60 -46q-41 -24 -84 -40q-49 -19 -108 -29q-63 -11 -136 -11q-106 0 -186 22q-77 25 -122 50q-49 31 -66 52q-20 23 -22 27l102 115q0 -1 18 -19q21 -19 56 -39q37 -22 92 -40t128 -18q71 -1 126 11q52 12 92 30
q32 16 60 37q30 30 34 35l-8 20q-3 7 -7 21l-270 654l138 57l301 -728v-1q22 -47 47 -76q23 -28 47 -41q20 -13 41 -16q19 -3 33 -3zM441 1695l136 -136l-134 -134l-138 135zM626 1560l136 135l136 -136l-135 -134zM468 1278l134 135l137 -137l-135 -133z" />
    <glyph glyph-name="uni0690.fina" unicode="&#x690;" horiz-adv-x="1141" 
d="M1120 150h21v-150h-21q-150 2 -246 126q-23 -20 -60 -46q-41 -24 -84 -40q-49 -19 -108 -29q-63 -11 -136 -11q-106 0 -186 22q-77 25 -122 50q-49 31 -66 52q-20 23 -22 27l102 115q0 -1 18 -19q21 -19 56 -39q37 -22 92 -40t128 -18q71 -1 126 11q52 12 92 30
q32 16 60 37q30 30 34 35l-8 20q-3 7 -7 21l-270 654l138 57l301 -728v-1q22 -47 47 -76q23 -28 47 -41q20 -13 41 -16q19 -3 33 -3zM879 1628l-134 -135l-137 136l136 135zM560 1628l-136 -135l-135 136l134 135zM877 1277l-134 -135l-137 136l136 135zM558 1277l-136 -135
l-135 136l134 135z" />
    <glyph glyph-name="uni0691" unicode="&#x691;" horiz-adv-x="897" arabic-form="isolated" 
d="M199 -620l-65 137l1 1q1 0 3 1t4.5 2t6.5 3l8 4q19 9 57 32q39 23 80 51q39 26 92 69q56 49 90 86q45 45 80 100q36 56 56 115q21 62 21 128q0 33 -9 73q-9 43 -24 86q-12 40 -32 90l-36 88l-34 75q-18 34 -28 56l135 70l19 -39q18 -35 35 -74l42 -99q20 -49 40 -111
q17 -54 30 -112q12 -56 12 -103q0 -111 -41 -210q-42 -97 -105 -177q-63 -81 -137 -143q-78 -65 -139 -105q-59 -41 -111 -68zM759 1205q40 -27 61 -75q18 -47 10 -101q-11 -64 -50 -111t-97 -66l-61 -18q-11 -2 -52 -10q-16 -3 -46 -5q-15 -1 -43 -1h-38h-23q-8 1 -25 1
q-77 0 -137 5q-53 6 -90 12q-36 8 -48 13q-11 4 -19 8l19 33l17 33q3 0 21 -7q16 -6 74 -14l12.5 17.5l15.5 22.5q15 21 49 62q6 23 7 51q3 37 2 77q-2 66 -4 94q-2 52 -6 104l-9 107l-5.5 55.5t-4.5 44.5l75 7q5 -40 8 -74q9 -91 10 -111q6 -61 9 -131q3 -76 2 -132l14 14
q3 3 8 7.5t7 6.5q49 43 92 67q47 25 91 37q46 10 83 4q40 -5 71 -27zM756 1040q5 32 -6 59q-10 27 -34 44q-41 29 -107 9q-67 -21 -137 -84q-46 -40 -88 -90q-38 -46 -64 -82q11 -1 35 -1h40q18 0 26 -1h23h49q14 0 48 2q27 3 53 9q26 5 66 18q37 12 63 44q25 31 33 73z" />
    <glyph glyph-name="uni0692.fina" unicode="&#x692;" horiz-adv-x="1074" 
d="M1086 151v-151h-57q-32 0 -68 6q-35 7 -73 24q-36 16 -68 51q-1 -51 -14 -111q-15 -65 -42 -121q-26 -58 -74 -127q-50 -67 -116 -128q-70 -64 -164 -125q-92 -60 -220 -120l-64 135q544 252 544 622q0 48 -12 101q-11 50 -29 101q-15 44 -35 88q-17 36 -29 59l140 79
l1 -2l2.5 -7.5t3.5 -8.5q17 -41 18 -43q4 -12 23 -60l27 -70q30 -74 72 -115q45 -40 88 -56q46 -18 84 -19q52 -2 62 -2zM517 642l-105 6q-9 27 -40 114q-24 58 -48 108q-29 55 -52 90q-27 38 -53 57l52 76q20 -11 44 -38q20 -22 43 -59q21 -30 40 -69l34 -67q17 -37 24 -55
q7 -15 13 -30q4 12 9 29q2 7 5 16l7.5 22.5t7.5 21.5q15 47 28 80q18 50 34 84q17 37 39 74q18 30 40 49l66 -70q-15 -14 -35 -43q-20 -36 -28 -57q-12 -26 -26 -67q0 -1 -26 -75l-32 -96q-17 -46 -41 -101z" />
    <glyph glyph-name="uni0693.fina" unicode="&#x693;" horiz-adv-x="1080" 
d="M1086 151v-151h-57q-32 0 -68 6q-35 7 -73 24q-36 16 -68 51q-1 -51 -14 -111q-15 -65 -42 -121q-26 -58 -74 -127q-50 -67 -116 -128q-70 -64 -164 -125q-92 -60 -220 -120l-64 135q544 252 544 622q0 48 -12 101q-11 50 -29 101q-15 44 -35 88q-17 36 -29 59l140 79
l1 -2l2.5 -7.5t3.5 -8.5q17 -41 18 -43q4 -12 23 -60l27 -70q30 -74 72 -115q45 -40 88 -56q46 -18 84 -19q52 -2 62 -2zM441 980q17 0 33 10t26 24q11 14 19 33q7 17 7 35t-7 35q-8 19 -19 33q-10 13 -26 24q-16 9 -33 9t-34 -9q-17 -10 -27 -24q-11 -14 -19 -33
q-7 -17 -7 -35t7 -35q8 -19 19 -33q10 -15 27 -24q16 -10 34 -10zM441 1279q34 0 70 -17q35 -16 60 -48q51 -58 51 -132q0 -35 -13 -70q-15 -36 -38 -62q-27 -33 -60 -49q-36 -17 -70 -17q-35 0 -71 17q-32 15 -61 49q-25 30 -37 62q-14 34 -14 70q0 37 14 69q11 32 37 63
q27 32 61 48q36 17 71 17z" />
    <glyph glyph-name="uni0694.fina" unicode="&#x694;" horiz-adv-x="1080" 
d="M1086 151v-151h-57q-32 0 -68 6q-35 7 -73 24q-36 16 -68 51q-1 -51 -14 -111q-15 -65 -42 -121q-26 -58 -74 -127q-50 -67 -116 -128q-70 -64 -164 -125q-92 -60 -220 -120l-64 135q544 252 544 622q0 48 -12 101q-11 50 -29 101q-15 44 -35 88q-17 36 -29 59l140 79
l1 -2l2.5 -7.5t3.5 -8.5q17 -41 18 -43q4 -12 23 -60l27 -70q30 -74 72 -115q45 -40 88 -56q46 -18 84 -19q52 -2 62 -2zM507 -490l135 135l137 -136l-136 -135z" />
    <glyph glyph-name="uni0695.fina" unicode="&#x695;" horiz-adv-x="1074" 
d="M1086 151v-151h-57q-32 0 -68 6q-35 7 -73 24q-36 16 -68 51q-1 -51 -14 -111q-15 -65 -42 -121q-26 -58 -74 -127q-50 -67 -116 -128q-70 -64 -164 -125q-92 -60 -220 -120l-64 135q544 252 544 622q0 48 -12 101q-11 50 -29 101q-15 44 -35 88q-17 36 -29 59l140 79
l1 -2l2.5 -7.5t3.5 -8.5q17 -41 18 -43q4 -12 23 -60l27 -70q30 -74 72 -115q45 -40 88 -56q46 -18 84 -19q52 -2 62 -2zM690 -958l-105 6q-22 67 -41 114q-21 58 -48 108q-22 46 -52 90q-25 38 -52 57l52 76q20 -11 44 -38q17 -19 44 -59q18 -28 40 -69l33 -67l25 -55
l12 -30q4 12 9 29q2 7 5 16l7.5 22.5t7.5 21.5q15 47 28 80q19 52 35 84q15 35 38 74q18 30 40 49l66 -70q-17 -16 -34 -43q-13 -21 -30 -57l-26 -67l-25 -75q-15 -47 -33 -96q-14 -42 -40 -101z" />
    <glyph glyph-name="uni0696.fina" unicode="&#x696;" horiz-adv-x="1080" 
d="M1087 151v-151h-57q-32 0 -68 6q-35 7 -73 24q-36 16 -68 51q-2 -54 -15 -111q-11 -55 -40 -121q-33 -67 -75 -127q-49 -66 -115 -128q-73 -65 -165 -125t-220 -120l-64 135q544 252 544 622q0 48 -12 101q-11 50 -29 101q-15 44 -35 88q-17 36 -29 59l140 79l1 -2
q1 -3 3 -7.5t4 -8.5q2 -6 7.5 -20.5l8.5 -22.5q3 -7 24 -60l27 -70q30 -75 73 -115t86 -56q48 -18 84 -19q54 -2 63 -2zM580 -439l135 135l137 -136l-136 -135zM140 151l135 135l137 -136l-136 -135z" />
    <glyph glyph-name="uni0697.fina" unicode="&#x697;" horiz-adv-x="1074" 
d="M1086 151v-151h-57q-32 0 -68 6q-35 7 -73 24q-36 16 -68 51q-1 -51 -14 -111q-15 -65 -42 -121q-26 -58 -74 -127q-50 -67 -116 -128q-70 -64 -164 -125q-92 -60 -220 -120l-64 135q544 252 544 622q0 48 -12 101q-11 50 -29 101q-15 44 -35 88q-17 36 -29 59l140 79
l1 -2l2.5 -7.5t3.5 -8.5q17 -41 18 -43q4 -12 23 -60l27 -70q30 -74 72 -115q45 -40 88 -56q46 -18 84 -19q52 -2 62 -2zM417 812l-134 -133l-137 135l135 136zM760 812l-135 -133l-136 135l136 136z" />
    <glyph glyph-name="uni0698" unicode="&#x698;" horiz-adv-x="930" arabic-form="isolated" 
d="M199 -620l-65 137l1 1q1 0 3 1t4.5 2t6.5 3l8 4q19 9 57 32q39 23 80 51q39 26 92 69q56 49 90 86q45 45 80 100q36 56 56 115q21 62 21 128q0 33 -9 73q-9 43 -24 86q-12 40 -32 90l-36 88l-34 75q-18 34 -28 56l135 70l19 -39q18 -35 35 -74l42 -99q20 -49 40 -111
q17 -54 30 -112q12 -56 12 -103q0 -111 -41 -210q-42 -97 -105 -177q-63 -81 -137 -143q-78 -65 -139 -105q-59 -41 -111 -68zM466 967l-127 -129l-130 130l129 128zM648 1240l-127 -129l-129 130l128 128zM694 838l-127 130l126 128l130 -129z" />
    <glyph glyph-name="uni0699.fina" unicode="&#x699;" horiz-adv-x="1085" 
d="M1088 151v-151h-57q-32 0 -68 6q-35 7 -73 24q-36 16 -68 51q-1 -51 -14 -111q-15 -65 -42 -121q-26 -58 -74 -127q-50 -67 -116 -128q-70 -64 -164 -125q-92 -60 -220 -120l-64 135q544 252 544 622q0 48 -12 101q-11 50 -29 101q-15 44 -35 88q-17 36 -29 59l140 79
l1 -2l2.5 -7.5t3.5 -8.5q17 -41 18 -43q4 -12 23 -60l27 -70q30 -74 72 -115q45 -40 88 -56q46 -18 84 -19q52 -2 62 -2zM746 1161l-134 -135l-137 136l136 135zM427 1161l-136 -135l-135 136l134 135zM744 810l-134 -135l-137 136l136 135zM425 810l-136 -135l-135 136
l134 135z" />
    <glyph glyph-name="uni069A.init" unicode="&#x69a;" horiz-adv-x="1752" 
d="M-76 74q0 30 22 54q24 21 53 21q64 0 115 19q52 18 92 48q38 26 73 64q24 27 53 70q19 31 35 64q14 31 18 46v3q1 1 1 3l18 62l14 54q8 34 10 39q3 15 3 16l147 -33q-1 -1 -4 -16q-4 -13 -10 -42q-1 -5 -16 -58q-8 -32 -18 -66q-10 -30 -14 -58q-6 -30 -6 -61
q1 -28 8 -61q10 -32 26 -53q36 -49 104 -49q40 0 72 16q31 14 60 40q27 25 50 58q22 32 39 66q18 36 29 65q14 37 20 57v1l18 64q12 50 16 73q8 30 13 61l5 25l148 -28l-5 -25q-6 -35 -13 -61q-3 -16 -16 -76q-14 -53 -19 -68q-25 -133 36 -208q27 -33 60 -47q30 -13 50 -13
q52 0 85 9q34 9 54 21t30 24q9 11 14 20q20 32 26 84q3 55 -2 104q-8 58 -22 111q-18 63 -34 109q-24 63 -38 94q-21 50 -31 68l133 70l26 -54q24 -51 42 -101q21 -53 44 -133q21 -74 30 -148q9 -76 0 -149t-45 -132q-90 -149 -312 -149q-24 0 -51 6q-26 5 -59 20
q-30 14 -60 36q-30 21 -56 53q-2 2 -19 27l-9.5 15.5l-9.5 15.5q-60 -84 -135 -129q-77 -44 -164 -44q-68 0 -128 29q-57 29 -98 83q-12 18 -17 28l-15 28q-25 -29 -63 -62q-38 -30 -79 -49q-45 -21 -104 -33q-60 -12 -139 -12h-6q-29 0 -53 21q-22 22 -22 53zM823 -336
l135 135l137 -136l-136 -135zM1091 1004l-136 -136l-136 137l135 135z" />
    <glyph glyph-name="uni069A.medi" unicode="&#x69a;" horiz-adv-x="1878" 
d="M-64 74q0 30 22 54q23 22 54 22q60 0 108 18q48 17 86 46q40 31 66 64q29 34 49 72q16 29 33 66q13 37 18 53q0 2 2 4l15 55q9 35 10 37q2 5 4 14.5t3 12.5l147 -29q0 -1 -1 -4.5t-2.5 -12t-3.5 -16.5l-28 -97l-1 -6q-21 -72 -17 -130q3 -58 32 -98q37 -49 104 -49
q46 0 80 20q34 17 66 49q28 29 51 68q15 25 39 75q22 54 26 70q11 28 16 51q4 16 14 51q6 19 9 35q2 9 5 27l149 -23l-3 -13q-2 -8 -10 -46q-10 -38 -15 -59q-5 -20 -14 -50q-10 -33 -13 -65q0 -38 4 -54q3 -21 13 -42q9 -18 19 -31q25 -33 56 -49q33 -14 54 -14q44 2 84 21
t75 57q56 62 83 153q26 95 19 199l152 9q4 -64 -3 -127q-8 -68 -23 -118q-6 -28 5 -61q8 -30 36 -65q14 -17 35 -28q21 -13 49 -22q38 -10 58 -12q26 -5 61 -5h79v-151h-82q-98 0 -185 32q-85 33 -133 93l-10 12q-3 4 -9 14l-21 -24q-56 -60 -123 -93q-70 -33 -143 -34h-6
q-61 0 -124 33q-60 33 -104 89q-6 8 -12 18q-8 11 -13 20q-60 -79 -133 -120q-74 -41 -158 -41q-71 0 -128 28q-59 29 -96 82q-19 25 -31 52q-24 -31 -56 -63q-31 -29 -71 -50q-39 -21 -99 -35q-55 -13 -138 -13h-5q-30 0 -54 21q-22 22 -22 53zM1162 1005l-136 -136
l-136 137l135 135zM884 -313l135 135l137 -136l-136 -135z" />
    <glyph glyph-name="uni069A.fina" unicode="&#x69a;" horiz-adv-x="2957" 
d="M2726 222q20 -22 43 -34q30 -16 55 -22q33 -8 66 -12q29 -4 72 -4v-150q-116 0 -204 28q-89 28 -148 99l-7 10l-15 -20q-105 -119 -279 -119q-5 0 -8 1t-9 1q-34 2 -72 12q-34 11 -72 32q-39 24 -68 50q-28 23 -61 63l-7 9q-4 -6 -12.5 -17.5t-9.5 -13.5q-9 -13 -25 -29
q-100 -106 -259 -106q-64 0 -115 19t-94 48q-4 -335 -183 -511q-178 -174 -517 -174q-9 0 -57 2q-35 2 -80 9q-45 8 -95 21q-49 13 -102 38q-51 22 -99 57q-50 35 -88 83q-153 189 -84 509q11 51 36 128l44 119q35 82 38 88q5 10 9 19t6.5 13.5t2.5 5.5l136 -67l-7 -15
l-19 -40q-2 -6 -7 -17t-9 -21l-8 -20q-15 -35 -28 -72q-15 -40 -26 -77q-14 -42 -21 -77q-26 -126 -13 -218q14 -97 67 -162q30 -38 68 -62q32 -23 79 -44q39 -16 82 -27q39 -10 76 -15q46 -6 61 -6q17 -2 38 -2q276 0 413 137q136 136 136 415q0 48 -8 106q-10 58 -22 100
q-10 41 -26 90q-18 49 -28 72q-9 25 -20 48q-9 18 -9 19l134 69q0 -1 1.5 -3.5t3.5 -7.5t5 -11q9 -17 22 -50q3 -6 29 -73q17 -46 29 -92q1 -2 2.5 -5.5l4 -9t4.5 -9.5q12 -23 24 -39q11 -20 35 -47q20 -23 47 -45q27 -20 60 -33q32 -13 72 -13q94 0 150 60q54 55 78 162
q25 104 17 247l151 8q2 -67 0 -111q0 -57 -13 -130q-5 -31 8 -65q14 -37 40 -72q32 -39 79 -70q42 -27 81 -29q61 -2 102 14q43 16 75 51q22 25 42 68q17 45 25 81q8 39 13 88q3 48 2 84q0 40 -3 74q-3 31 -6 55l149 24q0 -7 4 -31q3 -28 6 -72q2 -60 0 -100q0 -49 -10 -114
q-18 -90 30 -150zM1810 -334l135 135l137 -136l-136 -135zM2086 1020l-136 -136l-136 137l135 135z" />
    <glyph glyph-name="uni069B.init" unicode="&#x69b;" horiz-adv-x="1732" 
d="M-76 74q0 30 22 54q24 21 53 21q64 0 115 19q52 18 92 48q38 26 73 64q24 27 53 70q19 31 35 64q14 31 18 46v3q1 1 1 3l18 62l14 54q8 34 10 39q3 15 3 16l147 -33q-1 -1 -4 -16q-4 -13 -10 -42q-1 -5 -16 -58q-8 -32 -18 -66q-10 -30 -14 -58q-6 -30 -6 -61
q1 -28 8 -61q10 -32 26 -53q36 -49 104 -49q40 0 72 16q31 14 60 40q27 25 50 58q22 32 39 66q18 36 29 65q14 37 20 57v1l18 64q12 50 16 73q8 30 13 61l5 25l148 -28l-5 -25q-6 -35 -13 -61q-3 -16 -16 -76q-14 -53 -19 -68q-25 -133 36 -208q27 -33 60 -47q30 -13 50 -13
q52 0 85 9q34 9 54 21t30 24q9 11 14 20q20 32 26 84q3 55 -2 104q-8 58 -22 111q-18 63 -34 109q-24 63 -38 94q-21 50 -31 68l133 70l26 -54q24 -51 42 -101q21 -53 44 -133q21 -74 30 -148q9 -76 0 -149t-45 -132q-90 -149 -312 -149q-24 0 -51 6q-26 5 -59 20
q-30 14 -60 36q-30 21 -56 53q-2 2 -19 27l-9.5 15.5l-9.5 15.5q-60 -84 -135 -129q-77 -44 -164 -44q-68 0 -128 29q-57 29 -98 83q-12 18 -17 28l-15 28q-25 -29 -63 -62q-38 -30 -79 -49q-45 -21 -104 -33q-60 -12 -139 -12h-6q-29 0 -53 21q-22 22 -22 53zM690 -186
l137 -136l-136 -134l-136 135zM930 -321l134 135l138 -136l-136 -134zM741 -602l136 134l136 -135l-134 -135z" />
    <glyph glyph-name="uni069B.medi" unicode="&#x69b;" horiz-adv-x="1878" 
d="M-67 74q0 32 23 54q21 22 53 22q59 0 109 18q43 16 86 46q38 31 66 64q32 43 48 72q19 34 32 66q13 31 19 53q0 2 2 4l15 55q9 35 10 37q2 5 4 14.5t3 12.5l147 -29q0 -6 -8 -33q-2 -11 -27 -97l-1 -6q-21 -71 -18 -130q5 -59 33 -98q37 -49 104 -49q46 0 80 20
q35 18 65 49q28 28 52 68t38 75q10 22 28 70q2 8 7.5 26l7.5 25q4 16 14 51l9 35q2 9 5 27l149 -23l-3 -13q-1 -4 -4.5 -19.5t-6.5 -26.5q0 -2 -14 -59q-5 -20 -14 -50q-12 -41 -12 -65q-2 -21 2 -54q7 -28 14 -42q9 -18 19 -31q25 -34 57 -49q31 -14 53 -14q43 2 84 21
t75 57q57 63 82 153q27 93 20 199l152 9q4 -64 -3 -127q-8 -68 -23 -118q-5 -25 4 -61q12 -34 37 -65q14 -17 35 -28q22 -13 50 -22q35 -10 58 -12q25 -5 60 -5h79v-151h-82q-98 0 -185 32q-85 33 -133 93l-10 12q-3 4 -9 14l-21 -24q-55 -60 -123 -93q-70 -33 -143 -34h-6
q-63 0 -123 33q-60 31 -105 89q-1 2 -13 18l-12 20q-60 -79 -133 -120q-74 -41 -158 -41q-71 0 -128 28q-59 29 -96 82q-19 25 -31 52q-24 -31 -56 -63q-31 -30 -72 -50q-37 -21 -98 -35q-55 -13 -138 -13h-5q-32 0 -53 21q-23 20 -23 53zM789 -182l137 -136l-136 -134
l-136 135zM1029 -317l134 135l138 -136l-136 -134zM840 -598l136 134l136 -135l-134 -135z" />
    <glyph glyph-name="uni069B.fina" unicode="&#x69b;" horiz-adv-x="2957" 
d="M2726 222q20 -22 43 -34q30 -16 55 -22q33 -8 66 -12q29 -4 72 -4v-150q-116 0 -204 28q-89 28 -148 99l-7 10l-15 -20q-105 -119 -279 -119q-5 0 -8 1t-9 1q-34 2 -72 12q-34 11 -72 32q-39 24 -68 50q-28 23 -61 63l-7 9q-4 -6 -12.5 -17.5t-9.5 -13.5q-9 -13 -25 -29
q-100 -106 -259 -106q-64 0 -115 19t-94 48q-4 -335 -183 -511q-178 -174 -517 -174q-9 0 -57 2q-35 2 -80 9q-45 8 -95 21q-49 13 -102 38q-51 22 -99 57q-50 35 -88 83q-153 189 -84 509q11 51 36 128l44 119q35 82 38 88q5 10 9 19t6.5 13.5t2.5 5.5l136 -67l-7 -15
l-19 -40q-2 -6 -7 -17t-9 -21l-8 -20q-15 -35 -28 -72q-15 -40 -26 -77q-14 -42 -21 -77q-26 -126 -13 -218q14 -97 67 -162q30 -38 68 -62q32 -23 79 -44q39 -16 82 -27q39 -10 76 -15q46 -6 61 -6q17 -2 38 -2q276 0 413 137q136 136 136 415q0 48 -8 106q-10 58 -22 100
q-10 41 -26 90q-18 49 -28 72q-9 25 -20 48q-9 18 -9 19l134 69q0 -1 1.5 -3.5t3.5 -7.5t5 -11q9 -17 22 -50q3 -6 29 -73q17 -46 29 -92q1 -2 2.5 -5.5l4 -9t4.5 -9.5q12 -23 24 -39q11 -20 35 -47q20 -23 47 -45q27 -20 60 -33q32 -13 72 -13q94 0 150 60q54 55 78 162
q25 104 17 247l151 8q2 -67 0 -111q0 -57 -13 -130q-5 -31 8 -65q14 -37 40 -72q32 -39 79 -70q42 -27 81 -29q61 -2 102 14q43 16 75 51q22 25 42 68q17 45 25 81q8 39 13 88q3 48 2 84q0 40 -3 74q-3 31 -6 55l149 24q0 -7 4 -31q3 -28 6 -72q2 -60 0 -100q0 -49 -10 -114
q-18 -90 30 -150zM1857 -244l137 -136l-136 -134l-136 135zM2097 -379l134 135l138 -136l-136 -134zM1908 -660l136 134l136 -135l-134 -135z" />
    <glyph glyph-name="uni069C.init" unicode="&#x69c;" horiz-adv-x="1667" 
d="M-76 74q0 30 22 54q24 21 53 21q64 0 115 19q52 18 92 48q38 26 73 64q24 27 53 70q19 31 35 64q14 31 18 46v3q1 1 1 3l18 62l14 54q8 34 10 39q3 15 3 16l147 -33q-1 -1 -4 -16q-4 -13 -10 -42q-1 -5 -16 -58q-8 -32 -18 -66q-10 -30 -14 -58q-6 -30 -6 -61
q1 -28 8 -61q10 -32 26 -53q36 -49 104 -49q40 0 72 16q31 14 60 40q27 25 50 58q22 32 39 66q18 36 29 65q14 37 20 57v1l18 64q12 50 16 73q8 30 13 61l5 25l148 -28l-5 -25q-6 -35 -13 -61q-3 -16 -16 -76q-14 -53 -19 -68q-25 -133 36 -208q27 -33 60 -47q30 -13 50 -13
q52 0 85 9q34 9 54 21t30 24q9 11 14 20q20 32 26 84q3 55 -2 104q-8 58 -22 111q-18 63 -34 109q-24 63 -38 94q-21 50 -31 68l133 70l26 -54q24 -51 42 -101q21 -53 44 -133q21 -74 30 -148q9 -76 0 -149t-45 -132q-90 -149 -312 -149q-24 0 -51 6q-26 5 -59 20
q-30 14 -60 36q-30 21 -56 53q-2 2 -19 27l-9.5 15.5l-9.5 15.5q-60 -84 -135 -129q-77 -44 -164 -44q-68 0 -128 29q-57 29 -98 83q-12 18 -17 28l-15 28q-25 -29 -63 -62q-38 -30 -79 -49q-45 -21 -104 -33q-60 -12 -139 -12h-6q-29 0 -53 21q-22 22 -22 53zM903 1013
l-127 -129l-130 130l129 128zM1085 1286l-127 -129l-129 130l128 128zM1131 884l-127 130l126 128l130 -129zM778 -183l137 -136l-136 -134l-136 135zM1018 -318l134 135l138 -136l-136 -134zM829 -599l136 134l136 -135l-134 -135z" />
    <glyph glyph-name="uni069C.medi" unicode="&#x69c;" horiz-adv-x="1878" 
d="M-70 74q0 30 22 54q23 22 54 22q60 0 108 18q48 17 86 46q40 31 66 64q29 34 49 72q16 29 33 66q13 37 18 53q0 2 2 4l15 55q9 35 10 37q2 5 4 14.5t3 12.5l147 -29q0 -1 -1 -4.5t-2.5 -12t-3.5 -16.5l-28 -97l-1 -6q-21 -72 -17 -130q3 -58 32 -98q37 -49 104 -49
q46 0 80 20q34 17 66 49q28 29 51 68q15 25 39 75q22 54 26 70q11 28 16 51q4 16 14 51q6 19 9 35q2 9 5 27l149 -23l-3 -13q-2 -8 -10 -46q-10 -38 -15 -59q-5 -20 -14 -50q-10 -33 -13 -65q0 -38 4 -54q3 -21 13 -42q9 -18 19 -31q25 -33 56 -49q33 -14 54 -14q44 2 84 21
t75 57q56 62 83 153q26 95 19 199l152 9q4 -64 -3 -127q-8 -68 -23 -118q-6 -28 5 -61q8 -30 36 -65q14 -17 35 -28q21 -13 49 -22q38 -10 58 -12q26 -5 61 -5h79v-151h-82q-98 0 -185 32q-85 33 -133 93l-10 12q-3 4 -9 14l-21 -24q-56 -60 -123 -93q-70 -33 -143 -34h-6
q-61 0 -124 33q-60 33 -104 89q-6 8 -12 18q-8 11 -13 20q-60 -79 -133 -120q-74 -41 -158 -41q-71 0 -128 28q-59 29 -96 82q-19 25 -31 52q-24 -31 -56 -63q-31 -29 -71 -50q-39 -21 -99 -35q-55 -13 -138 -13h-5q-30 0 -54 21q-22 22 -22 53zM706 -186l137 -136
l-136 -134l-136 135zM946 -321l134 135l138 -136l-136 -134zM757 -602l136 134l136 -135l-134 -135zM981 943l-127 -129l-130 130l129 128zM1163 1216l-127 -129l-129 130l128 128zM1209 814l-127 130l126 128l130 -129z" />
    <glyph glyph-name="uni069C.fina" unicode="&#x69c;" horiz-adv-x="2952" 
d="M2724 222q20 -22 43 -34q30 -16 55 -22q33 -8 66 -12q29 -4 72 -4v-150q-116 0 -204 28q-89 28 -148 99l-7 10l-15 -20q-105 -119 -279 -119q-5 0 -8 1t-9 1q-34 2 -72 12q-34 11 -72 32q-39 24 -68 50q-28 23 -61 63l-7 9q-4 -6 -12.5 -17.5t-9.5 -13.5q-9 -13 -25 -29
q-100 -106 -259 -106q-64 0 -115 19t-94 48q-4 -335 -183 -511q-178 -174 -517 -174q-9 0 -57 2q-35 2 -80 9q-45 8 -95 21q-49 13 -102 38q-51 22 -99 57q-50 35 -88 83q-153 189 -84 509q11 51 36 128l44 119q35 82 38 88q5 10 9 19t6.5 13.5t2.5 5.5l136 -67l-7 -15
l-19 -40q-2 -6 -7 -17t-9 -21l-8 -20q-15 -35 -28 -72q-15 -40 -26 -77q-14 -42 -21 -77q-26 -126 -13 -218q14 -97 67 -162q30 -38 68 -62q32 -23 79 -44q39 -16 82 -27q39 -10 76 -15q46 -6 61 -6q17 -2 38 -2q276 0 413 137q136 136 136 415q0 48 -8 106q-10 58 -22 100
q-10 41 -26 90q-18 49 -28 72q-9 25 -20 48q-9 18 -9 19l134 69q0 -1 1.5 -3.5t3.5 -7.5t5 -11q9 -17 22 -50q3 -6 29 -73q17 -46 29 -92q1 -2 2.5 -5.5l4 -9t4.5 -9.5q12 -23 24 -39q11 -20 35 -47q20 -23 47 -45q27 -20 60 -33q32 -13 72 -13q94 0 150 60q54 55 78 162
q25 104 17 247l151 8q2 -67 0 -111q0 -57 -13 -130q-5 -31 8 -65q14 -37 40 -72q32 -39 79 -70q42 -27 81 -29q61 -2 102 14q43 16 75 51q22 25 42 68q17 45 25 81q8 39 13 88q3 48 2 84q0 40 -3 74q-3 31 -6 55l149 24q0 -7 4 -31q3 -28 6 -72q2 -60 0 -100q0 -49 -10 -114
q-18 -90 30 -150zM1969 1000l-127 -129l-130 130l129 128zM2151 1273l-127 -129l-129 130l128 128zM2197 871l-127 130l126 128l130 -129zM1838 -188l137 -136l-136 -134l-136 135zM2078 -323l134 135l138 -136l-136 -134zM1889 -604l136 134l136 -135l-134 -135z" />
    <glyph glyph-name="uni069D.init" unicode="&#x69d;" horiz-adv-x="1818" 
d="M-81 74q0 32 23 54q21 22 53 22h5q71 1 133 30q60 31 101 72q42 42 71 95q28 52 43 101q3 16 7 26q4 8 6 18q13 52 17 80q1 6 1.5 11.5t1.5 9t1.5 6.5t0.5 5v1l150 -14q-2 -5 -3 -19q0 -5 -2.5 -18.5t-3.5 -22.5q-2 -8 -5.5 -27t-6.5 -30l-18 -69q-4 -25 -4 -67
q3 -40 27 -75l12 -14l41 53l66 77q27 30 87 92q38 39 103 97q63 55 118 94q56 40 126 78q67 35 134 54q68 20 134 20q69 0 124 -23q53 -23 90 -61q38 -37 60 -88q23 -48 31 -106t1 -112q-6 -58 -25 -109q-28 -73 -90 -137q-66 -64 -151 -104q-83 -43 -199 -68
q-113 -23 -237 -23q-211 0 -348 49q-138 50 -203 149q-1 1 -1 4q-28 -39 -64 -72t-85 -59q-46 -25 -108 -40q-62 -14 -133 -14h-5q-32 0 -53 21q-23 20 -23 53zM1479 368q16 42 19 92q1 51 -13 93q-15 43 -51 73q-36 32 -96 36q-62 5 -128 -18q-67 -25 -130 -66
q-66 -40 -128 -95q-56 -48 -118 -110q-46 -46 -100 -109l-77 -93q112 -38 285 -38q116 0 208 21q89 19 160 53q67 34 110 75q42 42 59 86zM1009 -312l-136 -135l-135 136l134 135zM1351 -313l-134 -135l-136 136l135 135z" />
    <glyph glyph-name="uni069D.medi" unicode="&#x69d;" horiz-adv-x="1793" 
d="M-79 74q0 31 21 52q21 22 50 24h4h6h62q81 3 134 34q56 32 90 76q35 45 55 99q18 50 28 99q7 36 11 78v18.5t0.5 13t0.5 5.5l151 1q0 -54 -10 -113q-9 -60 -32 -128q-2 -62 34 -99q2 -3 5.5 -7t4.5 -5q2 -1 4 -2.5l4.5 -3.5t3.5 -3l36 53l61 80l81 97q46 52 100 103
q51 50 114 100q62 46 126 84q64 35 136 58q69 21 141 21q77 0 146 -35q69 -32 115 -95q15 -22 34 -59q14 -31 24 -80q7 -50 4 -102q-5 -61 -26 -124q-17 -51 -40 -90q-23 -40 -54 -71q15 -1 55 -1h63h60q18 -1 41 -1h36v-151h-36h-67q-14 1 -44 1.5t-45 0.5q-16 1 -49 1.5
t-50 0.5q-68 2 -97 2q-18 1 -48.5 2t-34.5 1q-25 1 -58 1q-82 -19 -162 -23q-90 -5 -150 -5h-72q-9 1 -26 1h-24q-21 0 -40 1q-27 2 -63 6q-29 4 -79 14q-35 9 -86 26q-47 19 -84 42q-44 28 -72 61q-1 1 -4.5 5t-5.5 6q-3 6 -8 11q-52 -62 -134 -107q-81 -43 -191 -48h-79
q-30 2 -50 22q-21 22 -21 52zM1496 358q23 76 19 132q-5 59 -33 99q-28 38 -68 55q-41 15 -71 15q-63 0 -129 -26q-64 -25 -129 -68q-63 -42 -123 -96q-61 -57 -110 -111q-48 -53 -93 -110q-50 -66 -71 -97q49 -10 82 -13q35 -5 68 -5h53q92 -2 185 3q93 4 174 24v2h1h1
q1 -1 3 -1q88 23 151 68q64 47 90 129zM1029 -311l-136 -135l-135 136l134 135zM1371 -312l-134 -135l-136 136l135 135z" />
    <glyph glyph-name="uni069D.fina" unicode="&#x69d;" horiz-adv-x="2882" 
d="M2762 151h130v-151h-146q-38 2 -72 10q-33 7 -66 22q-28 13 -57 35q-24 18 -40 46q-79 -51 -191 -81q-109 -31 -255 -31q-13 -1 -45 -3q-40 -2 -74 -2q-52 0 -100 4q-57 3 -114 12q-65 10 -118 26q-54 14 -112 42q-1 -339 -180 -518q-179 -178 -520 -178q-10 0 -56 2
q-36 2 -81 9t-96 21q-45 12 -102 37q-45 20 -99 57q-51 37 -88 84q-152 191 -83 508q14 65 37 130q23 67 46 122q11 29 39 92q7 17 19 40l135 -66l-7 -15l-20 -43l-26 -61q-21 -53 -28 -74q-7 -17 -28 -79q-15 -51 -20 -78q-54 -247 53 -381q26 -33 68 -63q42 -27 79 -42
q36 -16 82 -28q43 -11 76 -14q35 -6 62 -6q17 -2 38 -2q275 0 413 136q136 137 136 415q0 53 -9 106q-8 54 -21 101q-16 57 -29 90q-17 47 -28 72q-15 35 -22 49q-9 18 -9 19l133 70l2 -2l2 -6t4 -8.5l6 -11.5q16 -33 29 -66l36 -96q20 -56 33 -118q18 -23 45 -43
q31 40 79 97q53 61 112 120q65 65 137 124q71 58 158 112q84 49 173 80q87 31 181 31q81 0 153 -27q72 -30 120 -82q48 -51 68 -112q24 -63 19 -135q-5 -66 -27 -119q-19 -55 -66 -113q4 -25 40 -47q38 -19 92 -19zM2062 151q128 0 222 27q95 26 158 69q64 44 96 99t35 112
q5 83 -46 136q-28 28 -71 45q-41 16 -93 16q-87 0 -182 -42q-92 -41 -185 -109q-96 -71 -176 -154q-77 -76 -154 -171q52 -13 108 -21q51 -7 109 -10q68 -2 97 -1q53 2 75 4h7zM2102 -319l-136 -135l-135 136l134 135zM2444 -320l-134 -135l-136 136l135 135z" />
    <glyph glyph-name="uni069E.init" unicode="&#x69e;" horiz-adv-x="1757" 
d="M-81 74q0 32 23 54q21 22 53 22h5q71 1 133 30q60 31 101 72q42 42 71 95q28 52 43 101q3 16 7 26q4 8 6 18q13 52 17 80q1 6 1.5 11.5t1.5 9t1.5 6.5t0.5 5v1l150 -14q-2 -5 -3 -19q0 -5 -2.5 -18.5t-3.5 -22.5q-2 -8 -5.5 -27t-6.5 -30l-18 -69q-4 -25 -4 -67
q3 -40 27 -75l12 -14l41 53l66 77q27 30 87 92q38 39 103 97q63 55 118 94q56 40 126 78q67 35 134 54q68 20 134 20q69 0 124 -23q53 -23 90 -61q38 -37 60 -88q23 -48 31 -106t1 -112q-6 -58 -25 -109q-28 -73 -90 -137q-66 -64 -151 -104q-83 -43 -199 -68
q-113 -23 -237 -23q-211 0 -348 49q-138 50 -203 149q-1 1 -1 4q-28 -39 -64 -72t-85 -59q-46 -25 -108 -40q-62 -14 -133 -14h-5q-32 0 -53 21q-23 20 -23 53zM1479 368q16 42 19 92q1 51 -13 93q-15 43 -51 73q-36 32 -96 36q-62 5 -128 -18q-67 -25 -130 -66
q-66 -40 -128 -95q-56 -48 -118 -110q-46 -46 -100 -109l-77 -93q112 -38 285 -38q116 0 208 21q89 19 160 53q67 34 110 75q42 42 59 86zM1144 1135l-127 -129l-130 130l129 128zM1326 1408l-127 -129l-129 130l128 128zM1372 1006l-127 130l126 128l130 -129z" />
    <glyph glyph-name="uni069E.medi" unicode="&#x69e;" horiz-adv-x="1787" 
d="M-81 74q0 31 21 52q21 22 50 24h4h6h62q81 3 134 34q56 32 90 76q35 45 55 99q18 50 28 99q7 36 11 78v18.5t0.5 13t0.5 5.5l151 1q0 -54 -10 -113q-9 -60 -32 -128q-2 -62 34 -99q2 -3 5.5 -7t4.5 -5q2 -1 4 -2.5l4.5 -3.5t3.5 -3l36 53l61 80l81 97q46 52 100 103
q51 50 114 100q62 46 126 84q64 35 136 58q69 21 141 21q77 0 146 -35q69 -32 115 -95q15 -22 34 -59q14 -31 24 -80q7 -50 4 -102q-5 -61 -26 -124q-17 -51 -40 -90q-23 -40 -54 -71q15 -1 55 -1h63h60q18 -1 41 -1h36v-151h-36h-67q-14 1 -44 1.5t-45 0.5q-16 1 -49 1.5
t-50 0.5q-68 2 -97 2q-18 1 -48.5 2t-34.5 1q-25 1 -58 1q-82 -19 -162 -23q-90 -5 -150 -5h-72q-9 1 -26 1h-24q-21 0 -40 1q-27 2 -63 6q-29 4 -79 14q-35 9 -86 26q-47 19 -84 42q-44 28 -72 61q-1 1 -4.5 5t-5.5 6q-3 6 -8 11q-52 -62 -134 -107q-81 -43 -191 -48h-79
q-30 2 -50 22q-21 22 -21 52zM1494 358q23 76 19 132q-5 59 -33 99q-28 38 -68 55q-41 15 -71 15q-63 0 -129 -26q-64 -25 -129 -68q-63 -42 -123 -96q-61 -57 -110 -111q-48 -53 -93 -110q-50 -66 -71 -97q49 -10 82 -13q35 -5 68 -5h53q92 -2 185 3q93 4 174 24v2h1h1
q1 -1 3 -1q88 23 151 68q64 47 90 129zM1116 1130l-127 -129l-130 130l129 128zM1298 1403l-127 -129l-129 130l128 128zM1344 1001l-127 130l126 128l130 -129z" />
    <glyph glyph-name="uni069E.fina" unicode="&#x69e;" horiz-adv-x="2887" 
d="M2762 151h130v-151h-146q-38 2 -72 10q-33 7 -66 22q-28 13 -57 35q-24 18 -40 46q-79 -51 -191 -81q-109 -31 -255 -31q-13 -1 -45 -3q-40 -2 -74 -2q-52 0 -100 4q-57 3 -114 12q-65 10 -118 26q-54 14 -112 42q-1 -339 -180 -518q-179 -178 -520 -178q-10 0 -56 2
q-36 2 -81 9t-96 21q-45 12 -102 37q-45 20 -99 57q-51 37 -88 84q-152 191 -83 508q14 65 37 130q23 67 46 122q11 29 39 92q7 17 19 40l135 -66l-7 -15l-20 -43l-26 -61q-21 -53 -28 -74q-7 -17 -28 -79q-15 -51 -20 -78q-54 -247 53 -381q26 -33 68 -63q42 -27 79 -42
q36 -16 82 -28q43 -11 76 -14q35 -6 62 -6q17 -2 38 -2q275 0 413 136q136 137 136 415q0 53 -9 106q-8 54 -21 101q-16 57 -29 90q-17 47 -28 72q-15 35 -22 49q-9 18 -9 19l133 70l2 -2l2 -6t4 -8.5l6 -11.5q16 -33 29 -66l36 -96q20 -56 33 -118q18 -23 45 -43
q31 40 79 97q53 61 112 120q65 65 137 124q71 58 158 112q84 49 173 80q87 31 181 31q81 0 153 -27q72 -30 120 -82q48 -51 68 -112q24 -63 19 -135q-5 -66 -27 -119q-19 -55 -66 -113q4 -25 40 -47q38 -19 92 -19zM2062 151q128 0 222 27q95 26 158 69q64 44 96 99t35 112
q5 83 -46 136q-28 28 -71 45q-41 16 -93 16q-87 0 -182 -42q-92 -41 -185 -109q-96 -71 -176 -154q-77 -76 -154 -171q52 -13 108 -21q51 -7 109 -10q68 -2 97 -1q53 2 75 4h7zM2109 1142l-127 -129l-130 130l129 128zM2291 1415l-127 -129l-129 130l128 128zM2337 1013
l-127 130l126 128l130 -129z" />
    <glyph glyph-name="uni069F.init" unicode="&#x69f;" horiz-adv-x="1415" 
d="M-78 75q0 30 22 54q23 22 54 22h137l22 30l44 58l57 75l61 79q11 29 17 97q4 86 4 148q-1 85 -6 184q-4 66 -14 202q-7 100 -18 207q-11 121 -19 195l150 15q3 -31 9 -84l6.5 -59t6.5 -62l7 -71l8 -79q11 -144 12 -166q6 -108 8 -172q2 -87 0 -168q51 51 119 110
q51 44 119 84q67 35 136 52q69 18 168 20q38 0 80 -9q41 -9 76 -27q34 -16 68 -44q31 -25 52 -60q24 -36 38 -84t14 -93q3 -40 -6 -92q-9 -45 -27 -84q-55 -121 -145 -191q-88 -70 -206 -108q-111 -35 -252 -46q-131 -10 -290 -10q-111 0 -160 1t-146 1h-125h-5
q-31 0 -54 22q-22 22 -22 53zM1192 418q9 21 14 42q6 22 6 50q1 24 -5 54q-6 27 -22 52q-11 17 -29 32q-22 17 -39 25q-22 11 -43 17q-24 6 -42 6q-83 -2 -138 -18q-57 -15 -114 -50q-52 -32 -112 -86l-129 -126q-17 -17 -43 -46l-56 -67l-60 -77l-58 -76q156 -2 294 3
q136 4 250 29q116 27 196 80q84 56 130 156zM792 1142l-127 -129l-130 130l129 128zM974 1415l-127 -129l-129 130l128 128zM1020 1013l-127 130l126 128l130 -129z" />
    <glyph glyph-name="uni069F.medi" unicode="&#x69f;" horiz-adv-x="1456" 
d="M-74 74q0 32 22 54q23 23 54 23h5h125l38 50q16 21 42 59q21 30 52 67q17 31 26 94q9 65 12 151q2 104 -2 192q-3 117 -10 217q-10 150 -17 226l-21 219l149 17l10 -88l13 -126q1 -9 14 -155q8 -110 10 -173q4 -60 6 -181q0 -101 -4 -178q55 55 123 112q67 56 137 94
q65 39 147 66q77 24 156 24q108 0 185 -52q79 -51 114 -146q22 -57 25 -123q3 -69 -11 -127q-11 -58 -42 -118q-27 -53 -71 -92q-5 -5 -17 -15l-20 -14h289v-151h-1458h-5q-30 0 -54 21q-22 22 -22 53zM1115 294q22 21 38 52q17 36 26 74q9 44 8 84q-1 44 -15 82
q-39 103 -159 103q-71 0 -141 -27q-71 -29 -135 -73q-71 -48 -127 -103q-58 -52 -116 -117q-57 -64 -98 -117l-78 -101l402 -1q113 0 214 38q99 35 181 106zM893 1140l-127 -129l-130 130l129 128zM1075 1413l-127 -129l-129 130l128 128zM1121 1011l-127 130l126 128
l130 -129z" />
    <glyph glyph-name="uni069F.fina" unicode="&#x69f;" horiz-adv-x="1647" 
d="M1658 0q-242 0 -339 -1h-249q-128 0 -175 -1h-113h-64h-28q-145 0 -268 11t-194 25q-70 10 -123 25q-43 12 -48 15l62 137q2 0 53 -15q53 -17 145 -30l57 79l97 123q12 40 15 101q4 44 4 152q-5 142 -7 187q-3 63 -13 208l-18 212q-19 190 -20 199l150 14q3 -31 9 -87
q11 -99 13 -126q3 -27 15 -154q7 -82 12 -171q6 -118 7 -177q3 -80 1 -174q20 20 30 28l29 28q99 87 198 148q99 58 186 84q89 24 166 17q76 -7 138 -51q39 -27 70 -68q30 -41 47 -86q18 -46 23 -98q4 -53 -3 -108q-13 -87 -55 -164q-41 -75 -103 -131h293v-151zM894 149
l63 3q32 1 70 6q30 4 78 16q43 13 85 33q78 38 122 103q48 67 61 158q2 13 4 43q1 25 -5 57q-8 34 -24 62q-15 30 -49 53q-44 31 -107 25q-60 -4 -130 -35q-68 -30 -136 -77q-69 -48 -127 -100q-47 -42 -91 -88l-84 -92l-72 -88l-58 -76q12 -1 35.5 -1.5t36.5 -0.5
q24 -1 79 -1h249zM1099 1160l-127 -129l-130 130l129 128zM1281 1433l-127 -129l-129 130l128 128zM1327 1031l-127 130l126 128l130 -129z" />
    <glyph glyph-name="uni06A0.init" unicode="&#x6a0;" horiz-adv-x="1120" 
d="M-75 74q0 34 23 54q20 23 52 23h6q49 0 80 1l93 3q34 1 93 5q37 1 76 5l-30 21q-1 1 -10 8.5t-13 11.5q-39 37 -65 78q-26 39 -42 85q-13 41 -16 89q0 49 12 85q98 311 409 311q43 0 93 -10q54 -14 85 -27q44 -18 73 -35q41 -23 58 -36q19 -11 40 -28q3 -2 6 -4.5t5 -4
t3 -2.5l2 -1l-50 -58l-49 -56l-22 17q-23 18 -60 39q-42 22 -85 38q-49 17 -99 17q-40 0 -75 -7q-39 -6 -74 -28q-37 -22 -65 -62q-29 -38 -51 -108q-5 -19 -4 -38q0 -19 8 -46q7 -23 24 -49q16 -24 42 -49q16 -16 48 -36q33 -21 78 -35q50 -16 113 -20q67 -5 149 10
q25 4 89 21q65 21 100 35l56 -140q-56 -22 -110 -37q-53 -15 -100 -24q-7 -2 -42 -8q-18 -4 -98 -18q-61 -10 -141 -21q-76 -10 -170 -21q-63 -6 -184 -16q-94 -6 -186 -6q-31 0 -52 21q-23 20 -23 53zM525 1149l-127 -129l-130 130l129 128zM707 1422l-127 -129l-129 130
l128 128zM753 1020l-127 130l126 128l130 -129z" />
    <glyph glyph-name="uni06A0.medi" unicode="&#x6a0;" horiz-adv-x="1195" 
d="M-70 74q0 31 22 53q22 23 51 24h96q84 0 157 5q62 4 120 14q48 7 90 20q46 17 70 28l-134 128l-116 114q-74 76 -82 85l-35 36l4 108l2 1q2 2 6.5 5.5l8.5 6.5q15 14 42 30q35 22 68 38q47 23 90 37q56 18 112 29q64 11 132 11q57 0 90 -1q43 -1 96 -8q57 -10 94 -24
q45 -15 80 -44t56 -74q21 -44 21 -109q0 -41 -20 -92q-19 -48 -57 -100q-36 -51 -86 -101q-55 -53 -112 -95q23 -12 64 -21q40 -9 96 -15t120 -9t135 -3v-151q-210 0 -349 29q-137 28 -206 82q-55 -30 -94 -46q-53 -21 -112 -35q-73 -15 -148 -22q-91 -8 -203 -8h-96
q-29 2 -51 22q-22 19 -22 52zM338 622l66 -67l82 -81q27 -28 91 -88l96 -89q57 37 111 86q47 46 76 83q32 44 44 72q15 30 15 49q0 27 -7 45q-8 22 -36 36q-25 13 -85 22q-66 7 -157 7q-53 0 -94 -7q-44 -8 -81 -18q-23 -7 -67 -24q-49 -23 -54 -26zM629 1180l-127 -129
l-130 130l129 128zM811 1453l-127 -129l-129 130l128 128zM857 1051l-127 130l126 128l130 -129z" />
    <glyph glyph-name="uni06A0.fina" unicode="&#x6a0;" horiz-adv-x="1346" 
d="M1188 -488l64 -137q-2 -1 -34 -20q-31 -18 -88 -39q-64 -22 -142 -37q-88 -17 -199 -17q-119 0 -235 36q-115 34 -206 106q-88 68 -146 174q-55 104 -55 240q0 100 39 179q40 79 105 142q65 64 149 113q82 50 173 93l-101 99l-83 84l-55 58l-22 23v102q7 7 18 17
q12 12 45 38q25 20 71 46q40 24 96 46q52 22 117 36q67 14 139 14q257 0 360 -112q64 -70 57 -168q-5 -61 -31 -102q-22 -41 -65 -78q-41 -33 -90 -60q-33 -18 -103 -52q-7 -3 -20.5 -9.5t-19.5 -10.5q-14 -6 -42 -20h2q0 -1 1 -1l10 -10l10 -10q31 -26 67 -49
q32 -20 86 -38q45 -15 120 -26q73 -10 165 -11l16 -2v-149h-21q-112 3 -191 16q-82 12 -145 33q-61 21 -110 50q-47 28 -88 66l-10 8q-1 2 -4.5 5t-5.5 4q-10 10 -28 26q-1 1 -28 25q-104 -47 -180 -91q-79 -45 -136 -94q-57 -52 -86 -106q-30 -57 -30 -124q0 -107 44 -180
q41 -77 113 -127q72 -51 157 -74q88 -24 177 -24q101 0 175 15q79 16 124 34q50 18 74 34q24 14 26 16zM838 757q-58 0 -105 -10q-54 -11 -89 -25q-43 -15 -73 -34q-33 -19 -55 -35l48 -49l60 -60q45 -45 70 -68l74 -72q46 26 68 36q31 17 64 31q51 24 92 47q38 19 64 39
q26 21 36 39q12 19 14 43q1 31 -19 55q-9 9 -23 18q-14 10 -44 21q-23 9 -74 17q-41 7 -108 7zM778 1181l-127 -129l-130 130l129 128zM960 1454l-127 -129l-129 130l128 128zM1006 1052l-127 130l126 128l130 -129z" />
    <glyph glyph-name="uni06A1.fina" unicode="&#x6a1;" horiz-adv-x="2045" 
d="M2054 150v-150q-37 0 -82 4q-50 3 -109 12q-73 13 -126 26q-70 17 -129 40q-124 -43 -280 -62q-162 -20 -359 -20q-114 0 -213 7q-105 7 -204 29q-99 25 -175 65q-79 42 -129 113q-69 100 -68 240t72 340l142 -52q-58 -159 -62 -267q-6 -109 39 -176q27 -39 76 -67
t123 -46q71 -18 172 -27q99 -9 227 -9q105 0 228 8q112 7 222 29l-33 30q-103 103 -103 241q0 70 23 142q25 74 68 128q42 55 106 92q62 35 140 35q60 0 121 -23q61 -24 108 -70q49 -46 77 -112q30 -67 30 -155q0 -194 -157 -315q82 -16 137 -22q70 -8 118 -8zM1609 245
q91 42 143 101q53 62 53 149q0 58 -19 97q-18 40 -46 65t-60 36q-33 11 -60 11q-47 0 -80 -24q-35 -23 -58 -60q-24 -38 -36 -80q-12 -43 -12 -82q0 -37 14 -71q13 -32 45 -64q22 -22 52 -41q25 -18 64 -37z" />
    <glyph glyph-name="uni06A2.init" unicode="&#x6a2;" horiz-adv-x="979" 
d="M-76 75q0 30 22 54q23 22 53 22h10q83 0 165 3q85 5 160 12q80 9 144 24q68 16 120 40q50 21 86 56q33 33 42 77q-65 -15 -102 -21q-49 -11 -116 -9q-104 1 -180 33q-76 30 -121 88q-42 53 -54 124t7 156q13 55 40 104q30 54 70 92q41 40 100 66q57 24 128 24
q66 0 128 -33q63 -34 115 -96q44 -52 75 -115t48 -134q18 -72 21 -148t-9 -152q-12 -73 -52 -129q-43 -56 -100 -92q-63 -39 -132 -61q-68 -22 -150 -38q-74 -12 -151 -18q-100 -4 -139 -4h-153q-30 0 -53 22q-22 22 -22 53zM509 484q29 -1 64 2q42 6 61 10q34 7 55 13
q34 10 43 13q-7 76 -34 150q-27 69 -71 123q-31 34 -64 55q-35 19 -65 19q-44 0 -78 -17q-35 -18 -58 -44q-24 -26 -36 -54q-14 -27 -19 -53q-23 -105 17 -154q26 -31 72 -45q42 -16 113 -18zM300 -312l135 135l137 -136l-136 -135z" />
    <glyph glyph-name="uni06A2.medi" unicode="&#x6a2;" horiz-adv-x="1054" 
d="M-74 74q0 30 22 54q23 22 53 22h99q36 1 105 1h91h58h24q-45 37 -84 86q-36 46 -58 107q-15 40 -20 90q-3 43 4 96q10 54 27 94q19 46 48 87q50 72 122 112q71 39 150 39q67 0 122 -24q57 -26 100 -75q28 -31 51 -71q19 -36 34 -83q12 -39 17 -92q4 -43 -1 -96
q-7 -79 -44 -149q-35 -67 -92 -118q18 -2 26 -2q8 -1 23 -1h263v-151h-244q-14 0 -54 2q-18 2 -64 8q-13 2 -66 14q-25 6 -63 19q-57 -22 -119 -32q-66 -11 -120 -11h-329h-6q-29 0 -53 21q-22 22 -22 53zM740 437q7 61 -10 125q-16 60 -53 100q-44 50 -110 50q-29 0 -53 -9
q-25 -10 -42 -23q-17 -11 -32 -28q-17 -19 -23 -28q-17 -24 -30 -55q-13 -30 -17 -59q-4 -30 -3 -60q1 -28 11 -55q8 -24 30 -59q23 -30 46 -50q20 -19 56 -44q42 -24 64 -35q67 37 113 95q45 56 53 135zM444 -316l135 135l137 -136l-136 -135z" />
    <glyph glyph-name="uni06A2.fina" unicode="&#x6a2;" horiz-adv-x="2044" 
d="M2054 150v-150q-37 0 -82 4q-50 3 -109 12q-73 13 -126 26q-70 17 -129 40q-124 -43 -280 -62q-162 -20 -359 -20q-114 0 -213 7q-105 7 -204 29q-99 25 -175 65q-79 42 -129 113q-69 100 -68 240t72 340l142 -52q-58 -159 -62 -267q-6 -109 39 -176q27 -39 76 -67
t123 -46q71 -18 172 -27q99 -9 227 -9q105 0 228 8q112 7 222 29l-33 30q-103 103 -103 241q0 70 23 142q25 74 68 128q42 55 106 92q62 35 140 35q60 0 121 -23q61 -24 108 -70q49 -46 77 -112q30 -67 30 -155q0 -194 -157 -315q82 -16 137 -22q70 -8 118 -8zM1609 245
q91 42 143 101q53 62 53 149q0 58 -19 97q-18 40 -46 65t-60 36q-33 11 -60 11q-47 0 -80 -24q-35 -23 -58 -60q-24 -38 -36 -80q-12 -43 -12 -82q0 -37 14 -71q13 -32 45 -64q22 -22 52 -41q25 -18 64 -37zM1400 -312l135 135l137 -136l-136 -135z" />
    <glyph glyph-name="uni06A3.init" unicode="&#x6a3;" horiz-adv-x="994" 
d="M-76 75q0 30 22 54q23 22 53 22h10q83 0 165 3q85 5 160 12q80 9 144 24q68 16 120 40q50 21 86 56q33 33 42 77q-65 -15 -102 -21q-49 -11 -116 -9q-104 1 -180 33q-76 30 -121 88q-42 53 -54 124t7 156q13 55 40 104q30 54 70 92q41 40 100 66q57 24 128 24
q66 0 128 -33q63 -34 115 -96q44 -52 75 -115t48 -134q18 -72 21 -148t-9 -152q-12 -73 -52 -129q-43 -56 -100 -92q-63 -39 -132 -61q-68 -22 -150 -38q-74 -12 -151 -18q-100 -4 -139 -4h-153q-30 0 -53 22q-22 22 -22 53zM509 484q29 -1 64 2q42 6 61 10q34 7 55 13
q34 10 43 13q-7 76 -34 150q-27 69 -71 123q-31 34 -64 55q-35 19 -65 19q-44 0 -78 -17q-35 -18 -58 -44q-24 -26 -36 -54q-14 -27 -19 -53q-23 -105 17 -154q26 -31 72 -45q42 -16 113 -18zM646 1306l-136 -136l-136 137l135 135zM379 -327l135 135l137 -136l-136 -135z
" />
    <glyph glyph-name="uni06A3.medi" unicode="&#x6a3;" horiz-adv-x="1049" 
d="M-74 74q0 30 22 54q23 22 53 22h99q36 1 105 1h91h58h24q-45 37 -84 86q-36 46 -58 107q-15 40 -20 90q-3 43 4 96q10 54 27 94q19 46 48 87q50 72 122 112q71 39 150 39q67 0 122 -24q57 -26 100 -75q28 -31 51 -71q19 -36 34 -83q12 -39 17 -92q4 -43 -1 -96
q-7 -79 -44 -149q-35 -67 -92 -118q18 -2 26 -2q8 -1 23 -1h263v-151h-244q-14 0 -54 2q-18 2 -64 8q-13 2 -66 14q-25 6 -63 19q-57 -22 -119 -32q-66 -11 -120 -11h-329h-6q-29 0 -53 21q-22 22 -22 53zM740 437q7 61 -10 125q-16 60 -53 100q-44 50 -110 50q-29 0 -53 -9
q-25 -10 -42 -23q-17 -11 -32 -28q-17 -19 -23 -28q-17 -24 -30 -55q-13 -30 -17 -59q-4 -30 -3 -60q1 -28 11 -55q8 -24 30 -59q23 -30 46 -50q20 -19 56 -44q42 -24 64 -35q67 37 113 95q45 56 53 135zM710 1174l-136 -136l-136 137l135 135zM469 -322l135 135l137 -136
l-136 -135z" />
    <glyph glyph-name="uni06A3.fina" unicode="&#x6a3;" horiz-adv-x="2049" 
d="M2054 150v-150q-37 0 -82 4q-50 3 -109 12q-73 13 -126 26q-70 17 -129 40q-124 -43 -280 -62q-162 -20 -359 -20q-114 0 -213 7q-105 7 -204 29q-99 25 -175 65q-79 42 -129 113q-69 100 -68 240t72 340l142 -52q-58 -159 -62 -267q-6 -109 39 -176q27 -39 76 -67
t123 -46q71 -18 172 -27q99 -9 227 -9q105 0 228 8q112 7 222 29l-33 30q-103 103 -103 241q0 70 23 142q25 74 68 128q42 55 106 92q62 35 140 35q60 0 121 -23q61 -24 108 -70q49 -46 77 -112q30 -67 30 -155q0 -194 -157 -315q82 -16 137 -22q70 -8 118 -8zM1609 245
q91 42 143 101q53 62 53 149q0 58 -19 97q-18 40 -46 65t-60 36q-33 11 -60 11q-47 0 -80 -24q-35 -23 -58 -60q-24 -38 -36 -80q-12 -43 -12 -82q0 -37 14 -71q13 -32 45 -64q22 -22 52 -41q25 -18 64 -37zM1524 -323l135 135l137 -136l-136 -135zM1764 1199l-136 -136
l-136 137l135 135z" />
    <glyph glyph-name="uni06A4.init" unicode="&#x6a4;" horiz-adv-x="989" arabic-form="initial" 
d="M-76 75q0 30 22 54q23 22 53 22h10q83 0 165 3q85 5 160 12q80 9 144 24q68 16 120 40q50 21 86 56q33 33 42 77q-65 -15 -102 -21q-49 -11 -116 -9q-104 1 -180 33q-76 30 -121 88q-42 53 -54 124t7 156q13 55 40 104q30 54 70 92q41 40 100 66q57 24 128 24
q66 0 128 -33q63 -34 115 -96q44 -52 75 -115t48 -134q18 -72 21 -148t-9 -152q-12 -73 -52 -129q-43 -56 -100 -92q-63 -39 -132 -61q-68 -22 -150 -38q-74 -12 -151 -18q-100 -4 -139 -4h-153q-30 0 -53 22q-22 22 -22 53zM509 484q29 -1 64 2q42 6 61 10q34 7 55 13
q34 10 43 13q-7 76 -34 150q-27 69 -71 123q-31 34 -64 55q-35 19 -65 19q-44 0 -78 -17q-35 -18 -58 -44q-24 -26 -36 -54q-14 -27 -19 -53q-23 -105 17 -154q26 -31 72 -45q42 -16 113 -18zM449 1295l-127 -129l-130 130l129 128zM631 1568l-127 -129l-129 130l128 128z
M677 1166l-127 130l126 128l130 -129z" />
    <glyph glyph-name="uni06A4.medi" unicode="&#x6a4;" horiz-adv-x="1054" arabic-form="medial" 
d="M-74 74q0 30 22 54q23 22 53 22h99q36 1 105 1h91h58h24q-45 37 -84 86q-36 46 -58 107q-15 40 -20 90q-3 43 4 96q10 54 27 94q19 46 48 87q50 72 122 112q71 39 150 39q67 0 122 -24q57 -26 100 -75q28 -31 51 -71q19 -36 34 -83q12 -39 17 -92q4 -43 -1 -96
q-7 -79 -44 -149q-35 -67 -92 -118q18 -2 26 -2q8 -1 23 -1h263v-151h-244q-14 0 -54 2q-18 2 -64 8q-13 2 -66 14q-25 6 -63 19q-57 -22 -119 -32q-66 -11 -120 -11h-329h-6q-29 0 -53 21q-22 22 -22 53zM740 437q7 61 -10 125q-16 60 -53 100q-44 50 -110 50q-29 0 -53 -9
q-25 -10 -42 -23q-17 -11 -32 -28q-17 -19 -23 -28q-17 -24 -30 -55q-13 -30 -17 -59q-4 -30 -3 -60q1 -28 11 -55q8 -24 30 -59q23 -30 46 -50q20 -19 56 -44q42 -24 64 -35q67 37 113 95q45 56 53 135zM508 1158l-127 -129l-130 130l129 128zM690 1431l-127 -129l-129 130
l128 128zM736 1029l-127 130l126 128l130 -129z" />
    <glyph glyph-name="uni06A4.fina" unicode="&#x6a4;" horiz-adv-x="2049" arabic-form="final" 
d="M2054 150v-150q-37 0 -82 4q-50 3 -109 12q-73 13 -126 26q-70 17 -129 40q-124 -43 -280 -62q-162 -20 -359 -20q-114 0 -213 7q-105 7 -204 29q-99 25 -175 65q-79 42 -129 113q-69 100 -68 240t72 340l142 -52q-58 -159 -62 -267q-6 -109 39 -176q27 -39 76 -67
t123 -46q71 -18 172 -27q99 -9 227 -9q105 0 228 8q112 7 222 29l-33 30q-103 103 -103 241q0 70 23 142q25 74 68 128q42 55 106 92q62 35 140 35q60 0 121 -23q61 -24 108 -70q49 -46 77 -112q30 -67 30 -155q0 -194 -157 -315q82 -16 137 -22q70 -8 118 -8zM1609 245
q91 42 143 101q53 62 53 149q0 58 -19 97q-18 40 -46 65t-60 36q-33 11 -60 11q-47 0 -80 -24q-35 -23 -58 -60q-24 -38 -36 -80q-12 -43 -12 -82q0 -37 14 -71q13 -32 45 -64q22 -22 52 -41q25 -18 64 -37zM1590 1166l-127 -129l-130 130l129 128zM1772 1439l-127 -129
l-129 130l128 128zM1818 1037l-127 130l126 128l130 -129z" />
    <glyph glyph-name="uni06A5.init" unicode="&#x6a5;" horiz-adv-x="1024" 
d="M-76 75q0 30 22 54q23 22 53 22h10q83 0 165 3q85 5 160 12q80 9 144 24q68 16 120 40q50 21 86 56q33 33 42 77q-65 -15 -102 -21q-49 -11 -116 -9q-104 1 -180 33q-76 30 -121 88q-42 53 -54 124t7 156q13 55 40 104q30 54 70 92q41 40 100 66q57 24 128 24
q66 0 128 -33q63 -34 115 -96q44 -52 75 -115t48 -134q18 -72 21 -148t-9 -152q-12 -73 -52 -129q-43 -56 -100 -92q-63 -39 -132 -61q-68 -22 -150 -38q-74 -12 -151 -18q-100 -4 -139 -4h-153q-30 0 -53 22q-22 22 -22 53zM509 484q29 -1 64 2q42 6 61 10q34 7 55 13
q34 10 43 13q-7 76 -34 150q-27 69 -71 123q-31 34 -64 55q-35 19 -65 19q-44 0 -78 -17q-35 -18 -58 -44q-24 -26 -36 -54q-14 -27 -19 -53q-23 -105 17 -154q26 -31 72 -45q42 -16 113 -18zM258 -184l137 -136l-136 -134l-136 135zM498 -319l134 135l138 -136l-136 -134z
M309 -600l136 134l136 -135l-134 -135z" />
    <glyph glyph-name="uni06A5.medi" unicode="&#x6a5;" horiz-adv-x="1059" 
d="M-73 74q0 32 23 54q21 22 52 22h98q37 1 106 1h91h58h24q-45 37 -84 86q-36 46 -58 107q-16 42 -19 90q-5 50 4 96q6 46 26 94q20 46 48 87q50 72 122 112q70 39 150 39q66 0 122 -24q57 -26 100 -75q29 -32 50 -71q20 -35 35 -83q12 -39 17 -92q4 -43 -1 -96
q-7 -77 -43 -149q-37 -68 -93 -118q18 -2 25 -2q9 -1 24 -1h263v-151h-244q-13 0 -55 2q-20 2 -62 8q-22 4 -66 14q-26 6 -64 19q-56 -22 -118 -32q-69 -11 -121 -11h-329h-6q-31 0 -52 21q-23 20 -23 53zM741 437q7 61 -10 125q-16 60 -53 100q-44 50 -110 50q-30 0 -52 -9
q-26 -10 -42 -23q-17 -11 -33 -28q-17 -19 -23 -28q-17 -24 -30 -55q-13 -30 -17 -59q-5 -30 -3 -60q1 -28 11 -55q10 -31 31 -59q17 -25 45 -50q22 -21 57 -44q35 -21 63 -35q67 37 113 95q45 56 53 135zM397 -189l137 -136l-136 -134l-136 135zM637 -324l134 135l138 -136
l-136 -134zM448 -605l136 134l136 -135l-134 -135z" />
    <glyph glyph-name="uni06A5.fina" unicode="&#x6a5;" horiz-adv-x="2044" 
d="M2054 150v-150q-37 0 -82 4q-50 3 -109 12q-73 13 -126 26q-70 17 -129 40q-124 -43 -280 -62q-162 -20 -359 -20q-114 0 -213 7q-105 7 -204 29q-99 25 -175 65q-79 42 -129 113q-69 100 -68 240t72 340l142 -52q-58 -159 -62 -267q-6 -109 39 -176q27 -39 76 -67
t123 -46q71 -18 172 -27q99 -9 227 -9q105 0 228 8q112 7 222 29l-33 30q-103 103 -103 241q0 70 23 142q25 74 68 128q42 55 106 92q62 35 140 35q60 0 121 -23q61 -24 108 -70q49 -46 77 -112q30 -67 30 -155q0 -194 -157 -315q82 -16 137 -22q70 -8 118 -8zM1609 245
q91 42 143 101q53 62 53 149q0 58 -19 97q-18 40 -46 65t-60 36q-33 11 -60 11q-47 0 -80 -24q-35 -23 -58 -60q-24 -38 -36 -80q-12 -43 -12 -82q0 -37 14 -71q13 -32 45 -64q22 -22 52 -41q25 -18 64 -37zM1453 -220l137 -136l-136 -134l-136 135zM1693 -355l134 135
l138 -136l-136 -134zM1504 -636l136 134l136 -135l-134 -135z" />
    <glyph glyph-name="uni06A6.init" unicode="&#x6a6;" horiz-adv-x="984" arabic-form="initial" 
d="M-76 75q0 30 22 54q23 22 53 22h10q83 0 165 3q85 5 160 12q80 9 144 24q68 16 120 40q50 21 86 56q33 33 42 77q-65 -15 -102 -21q-49 -11 -116 -9q-104 1 -180 33q-76 30 -121 88q-42 53 -54 124t7 156q13 55 40 104q30 54 70 92q41 40 100 66q57 24 128 24
q66 0 128 -33q63 -34 115 -96q44 -52 75 -115t48 -134q18 -72 21 -148t-9 -152q-12 -73 -52 -129q-43 -56 -100 -92q-63 -39 -132 -61q-68 -22 -150 -38q-74 -12 -151 -18q-100 -4 -139 -4h-153q-30 0 -53 22q-22 22 -22 53zM509 484q29 -1 64 2q42 6 61 10q34 7 55 13
q34 10 43 13q-7 76 -34 150q-27 69 -71 123q-31 34 -64 55q-35 19 -65 19q-44 0 -78 -17q-35 -18 -58 -44q-24 -26 -36 -54q-14 -27 -19 -53q-23 -105 17 -154q26 -31 72 -45q42 -16 113 -18zM773 1664l-134 -135l-137 136l136 135zM454 1664l-136 -135l-135 136l134 135z
M771 1313l-134 -135l-137 136l136 135zM452 1313l-136 -135l-135 136l134 135z" />
    <glyph glyph-name="uni06A6.medi" unicode="&#x6a6;" horiz-adv-x="1059" arabic-form="medial" 
d="M-60 74q0 30 22 54q23 22 53 22h99q36 1 105 1h91h58h24q-45 37 -84 86q-36 46 -58 107q-15 40 -20 90q-3 43 4 96q10 54 27 94q19 46 48 87q50 72 122 112q71 39 150 39q67 0 122 -24q57 -26 100 -75q28 -31 51 -71q19 -36 34 -83q12 -39 17 -92q4 -43 -1 -96
q-7 -79 -44 -149q-35 -67 -92 -118q18 -2 26 -2q8 -1 23 -1h263v-151h-244q-14 0 -54 2q-18 2 -64 8q-13 2 -66 14q-25 6 -63 19q-57 -22 -119 -32q-66 -11 -120 -11h-329h-6q-29 0 -53 21q-22 22 -22 53zM754 437q7 61 -10 125q-16 60 -53 100q-44 50 -110 50q-29 0 -53 -9
q-25 -10 -42 -23q-17 -11 -32 -28q-17 -19 -23 -28q-17 -24 -30 -55q-13 -30 -17 -59q-4 -30 -3 -60q1 -28 11 -55q8 -24 30 -59q23 -30 46 -50q20 -19 56 -44q42 -24 64 -35q67 37 113 95q45 56 53 135zM890 1520l-134 -135l-137 136l136 135zM571 1520l-136 -135l-135 136
l134 135zM888 1169l-134 -135l-137 136l136 135zM569 1169l-136 -135l-135 136l134 135z" />
    <glyph glyph-name="uni06A6.fina" unicode="&#x6a6;" horiz-adv-x="2044" arabic-form="final" 
d="M2054 150v-150q-37 0 -82 4q-50 3 -109 12q-73 13 -126 26q-70 17 -129 40q-124 -43 -280 -62q-162 -20 -359 -20q-114 0 -213 7q-105 7 -204 29q-99 25 -175 65q-79 42 -129 113q-69 100 -68 240t72 340l142 -52q-58 -159 -62 -267q-6 -109 39 -176q27 -39 76 -67
t123 -46q71 -18 172 -27q99 -9 227 -9q105 0 228 8q112 7 222 29l-33 30q-103 103 -103 241q0 70 23 142q25 74 68 128q42 55 106 92q62 35 140 35q60 0 121 -23q61 -24 108 -70q49 -46 77 -112q30 -67 30 -155q0 -194 -157 -315q82 -16 137 -22q70 -8 118 -8zM1609 245
q91 42 143 101q53 62 53 149q0 58 -19 97q-18 40 -46 65t-60 36q-33 11 -60 11q-47 0 -80 -24q-35 -23 -58 -60q-24 -38 -36 -80q-12 -43 -12 -82q0 -37 14 -71q13 -32 45 -64q22 -22 52 -41q25 -18 64 -37zM1908 1500l-134 -135l-137 136l136 135zM1589 1500l-136 -135
l-135 136l134 135zM1906 1149l-134 -135l-137 136l136 135zM1587 1149l-136 -135l-135 136l134 135z" />
    <glyph glyph-name="uni06A7.fina" unicode="&#x6a7;" horiz-adv-x="1592" 
d="M1505 151h104v-151h-105q-20 -311 -195 -470t-502 -159q-9 0 -57 2q-35 2 -80 9q-38 6 -96 20q-57 17 -102 38q-51 23 -100 58q-47 32 -87 83q-152 191 -83 509q15 68 34 128l41 121q13 37 35 92q4 11 8 20.5l6 14.5t2 6l139 -59q-2 0 -15 -35q-2 -4 -33 -86l-39 -116
q-21 -72 -31 -119q-54 -248 53 -382q26 -33 68 -63q42 -27 79 -42q39 -16 82 -27q39 -10 76 -15q34 -4 61 -6q18 -1 39 -1q259 0 393 119q136 117 153 360h-223q-100 0 -169 30q-67 29 -112 77q-41 44 -62 106q-19 57 -19 116q0 51 12 105q12 51 34 102q21 44 54 94
q37 47 70 76q39 32 84 51q44 19 94 19q76 0 133 -30q57 -32 99 -81q43 -51 70 -115q27 -59 47 -134q18 -71 27 -139q8 -59 13 -126zM1130 151h224q-4 47 -10 89q-6 49 -18 104q-10 47 -28 102q-19 54 -44 90q-23 39 -59 64q-34 24 -79 24q-35 0 -70 -26t-64 -69
q-27 -40 -46 -95q-17 -54 -17 -105q0 -27 7 -56q8 -32 29 -58q23 -27 64 -45q41 -19 111 -19zM1315 1140l-136 -136l-136 137l135 135z" />
    <glyph glyph-name="uni06A8.fina" unicode="&#x6a8;" horiz-adv-x="1592" 
d="M1505 151h104v-151h-105q-20 -311 -195 -470t-502 -159q-9 0 -57 2q-35 2 -80 9q-38 6 -96 20q-57 17 -102 38q-51 23 -100 58q-47 32 -87 83q-152 191 -83 509q15 68 34 128l41 121q13 37 35 92q4 11 8 20.5l6 14.5t2 6l139 -59q-2 0 -15 -35q-2 -4 -33 -86l-39 -116
q-21 -72 -31 -119q-54 -248 53 -382q26 -33 68 -63q42 -27 79 -42q39 -16 82 -27q39 -10 76 -15q34 -4 61 -6q18 -1 39 -1q259 0 393 119q136 117 153 360h-223q-100 0 -169 30q-67 29 -112 77q-41 44 -62 106q-19 57 -19 116q0 51 12 105q12 51 34 102q21 44 54 94
q37 47 70 76q39 32 84 51q44 19 94 19q76 0 133 -30q57 -32 99 -81q43 -51 70 -115q27 -59 47 -134q18 -71 27 -139q8 -59 13 -126zM1130 151h224q-4 47 -10 89q-6 49 -18 104q-10 47 -28 102q-19 54 -44 90q-23 39 -59 64q-34 24 -79 24q-35 0 -70 -26t-64 -69
q-27 -40 -46 -95q-17 -54 -17 -105q0 -27 7 -56q8 -32 29 -58q23 -27 64 -45q41 -19 111 -19zM1090 1100l-127 -129l-130 130l129 128zM1272 1373l-127 -129l-129 130l128 128zM1318 971l-127 130l126 128l130 -129z" />
    <glyph glyph-name="uni06A9" unicode="&#x6a9;" horiz-adv-x="2360" arabic-form="isolated" 
d="M1544 1050l76 -68q29 -27 90 -90q53 -58 90 -108q46 -61 79 -119q34 -60 57 -127q21 -64 21 -130q0 -90 -37 -154q-39 -66 -104 -110q-65 -45 -158 -73q-87 -27 -200 -43t-230 -20q-120 -6 -248 -6q-132 0 -245 11q-104 10 -191 35q-84 25 -142 61q-61 39 -100 88
q-34 43 -59 105q-22 58 -28 132t3 164q9 93 34 197l147 -34q-40 -173 -35 -291q6 -114 56 -179q56 -71 192 -105q133 -34 368 -34q188 0 314 10q135 11 224 28q92 18 148 42q59 26 88 54q29 25 42 59q10 35 10 63q0 51 -23 108q-22 56 -59 113q-43 63 -82 109
q-50 58 -92 100t-89 84l-71 59l-41 31l40 134l851 373l60 -138z" />
    <glyph glyph-name="uni06AA.init" unicode="&#x6aa;" horiz-adv-x="2197" 
d="M-21 1v149q111 0 163 -1q27 -1 81 -1t81 -1q56 -1 173 -1q125 0 197 2q92 0 232 5q128 5 282 12q38 2 113 6.5t112 6.5l114.5 8t98.5 7l111 8t75 5l143 12q-20 83 -81 140q-24 23 -63 46q-37 21 -89 34q-46 11 -118 14q-72 0 -152 -14q-45 -7 -88 -11q-97 -8 -110 -9
q-10 -1 -122 -9q-39 -3 -122 -7q-68 -2 -112 -3q-53 -2 -92 0q-69 2 -100 4q-61 3 -107 10q-60 9 -103 20q-52 15 -88 34q-42 22 -66 53q-26 29 -34 75q-11 62 30 139q41 80 118 152q52 50 120 96q65 43 162 91q82 39 152 68q80 32 134 50q72 24 96 31q37 10 41 12l43 -157
l-37 -10q-36 -11 -93 -30q-71 -24 -130 -47q-77 -29 -144 -61q-82 -39 -141 -81q-57 -39 -97 -81q-39 -42 -60 -77q-22 -36 -31 -67q9 -5 33 -15q22 -10 70 -19q45 -9 114 -15q67 -7 170 -4q31 1 91 3.5t69 2.5q26 2 80 5.5t82 5.5q104 8 153 13q136 14 137 14
q110 13 173 10q64 0 116 -10q47 -9 73 -22q35 -16 45 -23q51 -29 104 -79q51 -47 100 -132l30 -54q5 -9 12.5 -24.5l10.5 -21.5q13 -30 14 -33q4 -11 6 -13l-81 -134q-1 0 -33 -3q-59 -6 -90 -8l-137 -12q-22 -2 -177 -14q-1 0 -207 -14q-80 -5 -230 -13z" />
    <glyph glyph-name="uni06AA.medi" unicode="&#x6aa;" horiz-adv-x="2664" 
d="M2684 153v-151q-95 0 -174 13q-92 15 -157 32q-13 3 -41 11q-7 3 -20 7.5t-17 5.5h-2q-7 0 -71 -7q-54 -6 -189 -16l-277 -22q-189 -13 -338 -20q-199 -11 -361 -8q-58 0 -165.5 0.5t-157.5 0.5q-148 0 -212 1h-184q-29 0 -86 0.5t-85 1.5h-171v151q77 -1 223 -1h212h213
q36 1 111.5 1.5t113.5 0.5q41 1 124.5 1.5t126.5 0.5q46 1 142 1.5t146 0.5q125 2 224 7q114 6 212 15q33 2 185 16l143 15q-16 44 -41 87q-17 29 -49 72q-29 37 -66 56q-21 11 -44 18q-26 8 -64 11q-45 3 -102 -1q-61 -3 -155 -15q-29 -4 -125 -14q-76 -7 -162 -12l-177 -9
q-100 -3 -168 -2q-90 1 -167 11q-61 8 -129 20q-55 11 -91 28q-39 19 -60 41q-24 21 -36 47q-11 26 -15 49q-9 64 24 131q33 68 95 130q59 62 142 119t168 98q72 35 153 67l134 51q76 25 97 31q38 11 40 12l43 -157q-3 0 -37 -10q-56 -16 -94 -29q-71 -24 -130 -47
q-68 -26 -143 -62q-73 -36 -137 -79q-59 -39 -103 -83q-42 -41 -65 -80q-24 -41 -25 -73q8 -4 35 -13q29 -7 72 -14q45 -7 116 -12q78 -5 170 -5h1q45 0 121 2q47 1 106 5l46.5 2.5t31.5 1.5q36 3 39 4l31 5q4 1 25.5 3t35.5 4q45 6 81 8q32 4 94 8q93 7 174 5q73 -2 119 -9
q49 -6 75 -16q32 -12 45 -20q51 -27 103 -86q52 -58 97 -139q12 -20 21 -40q10 -20 30 -44q17 -21 45 -43q26 -19 68 -36q35 -14 99 -26q60 -9 140 -9z" />
    <glyph glyph-name="uni06AA.fina" unicode="&#x6aa;" horiz-adv-x="2737" 
d="M2746 153v-151q-95 0 -174 13q-92 15 -157 32q-13 3 -41 11q-19 4 -39 13q-7 0 -71 -7q-14 -2 -189 -17q-115 -10 -277 -21q-189 -13 -338 -20q-205 -11 -363 -14q-142 -5 -326 -5q-463 0 -740 45l33 151q220 -35 567 -41q351 -6 820 18q81 4 119 8q24 1 71 4.5t55 4.5
q42 3 126 11l119 12q169 17 265 28q-33 86 -70 130q-39 47 -77 68q-30 16 -74 24q-46 6 -97 5q-53 -2 -109 -6q-57 -5 -111 -12q-28 -4 -104 -13q-50 -5 -86 -6q-18 0 -55 -3q-36 -3 -92 -6q-69 -4 -123 -5q-92 -2 -146 -1q-73 1 -167 9q-76 10 -129 22q-39 9 -48 12
q-28 6 -58 23t-54 43q-25 28 -37 72q-11 35 -3 73q6 40 25 77q20 41 49 78q30 38 69 75q55 52 128 101q76 51 162 92q35 17 104 47q46 20 116 47q64 25 111 39q57 19 87 25l21 -81l22 -76q-3 0 -36 -10q-56 -16 -92 -28q-60 -19 -128 -45q-70 -27 -142 -62q-79 -39 -138 -80
q-57 -37 -105 -83q-43 -42 -67 -82q-25 -41 -26 -73q15 -8 34 -12q15 -5 72 -16q65 -9 116 -12q80 -5 170 -5h2q42 0 122 2q48 1 104 5q14 0 28.5 1l29 2t20.5 1q37 3 40 4q2 0 31 4q8 2 60 8q45 6 81 8q33 4 95 8q93 7 174 5q71 -2 119 -9q49 -6 75 -16q32 -12 45 -20
q49 -26 102 -86q48 -55 98 -139q1 -3 10 -21q4 -9 25 -40q19 -24 45 -46q27 -24 72 -46q44 -20 106 -33q60 -14 144 -12z" />
    <glyph glyph-name="uni06AB.init" unicode="&#x6ab;" horiz-adv-x="1106" 
d="M-76 75q0 30 22 54q23 22 53 22h146q39 -1 110 -1q65 2 96 4q34 2 80 10q39 10 62 22q35 18 55 50q21 30 32 66q11 38 14 72q4 31 4 62q0 50 -23 110q-22 55 -59 114q-40 60 -83 112q-57 66 -93 101q-39 40 -88 84l-72 60l-37 30l36 150l844 365l60 -139l-760 -329
l75 -67q51 -48 92 -91q37 -41 94 -110q49 -64 82 -124q38 -63 60 -132q23 -67 23 -134q0 -138 -47 -237q-49 -99 -139 -146q-41 -20 -73 -27q-35 -11 -82 -16q-29 -4 -92 -8q-15 0 -49.5 -0.5t-52.5 -0.5h-209h-6q-29 0 -53 21q-22 22 -22 53zM239 1512q17 0 33 10t26 24
q11 14 19 33q7 17 7 35t-7 35q-8 19 -19 33q-10 13 -26 24q-16 9 -33 9t-34 -9q-17 -10 -27 -24q-11 -14 -19 -33q-7 -17 -7 -35t7 -35q8 -19 19 -33q10 -15 27 -24q16 -10 34 -10zM239 1811q34 0 70 -17q35 -16 60 -48q51 -58 51 -132q0 -35 -13 -70q-15 -36 -38 -62
q-27 -33 -60 -49q-36 -17 -70 -17q-35 0 -71 17q-32 15 -61 49q-25 30 -37 62q-14 34 -14 70q0 37 14 69q11 32 37 63q27 32 61 48q36 17 71 17z" />
    <glyph glyph-name="uni06AB.medi" unicode="&#x6ab;" horiz-adv-x="1251" 
d="M-76 75q0 30 22 54q23 22 54 22q79 0 151 3q72 2 129 6t96 9q38 4 53 11q129 59 129 209q0 62 -20 121q-17 58 -52 120q-37 66 -76 114q-40 55 -88 107q-48 54 -90 95l-85 80l-30 29l28 137l852 378l60 -137l-763 -339q100 -96 167 -174q67 -77 115 -150q46 -68 72 -128
q28 -60 41 -109q35 -99 88 -168q56 -73 121 -118q70 -48 144 -71q73 -23 155 -25h65v-150h-66q-167 0 -292 61q-129 61 -223 178q-25 -66 -75 -117q-49 -52 -117 -80q-17 -9 -56 -17q-44 -8 -78 -10q-31 -4 -91 -8q-64 -4 -95 -4q-31 -2 -89 -2q-29 -1 -75 -1h-5
q-30 0 -54 21q-22 22 -22 53zM248 1667q17 0 32 9q16 10 28 25q10 15 18 33q7 17 7 35t-7 35q-8 19 -18 32q-12 15 -28 24q-14 10 -32 10t-34 -10q-16 -9 -28 -24q-10 -13 -18 -32q-7 -17 -7 -35t7 -35q8 -18 18 -33q12 -15 28 -25q17 -9 34 -9zM248 1966q34 0 70 -17
q34 -17 60 -48q51 -59 51 -132q0 -37 -13 -69q-13 -35 -38 -63q-27 -33 -60 -49q-36 -17 -70 -17q-35 0 -71 17q-32 15 -61 49q-23 28 -38 63q-13 36 -13 69q0 32 13 69q16 37 38 63q27 32 61 48q36 17 71 17z" />
    <glyph glyph-name="uni06AB.fina" unicode="&#x6ab;" horiz-adv-x="2385" 
d="M1940 518q20 -71 68 -140q48 -66 110 -116q64 -52 134 -80q73 -30 142 -29v-152q-89 0 -156 19q-73 20 -128 54q-55 31 -106 82q-48 45 -93 104q-12 -17 -15 -22q-2 -3 -5.5 -7.5l-6.5 -8.5l-6 -8q-46 -54 -130 -95q-88 -43 -205 -71q-116 -29 -272 -46
q-151 -15 -331 -15q-258 0 -432 65q-173 66 -258 196q-37 56 -56 122q-15 61 -18 122q0 66 8 114q7 51 20 96q12 46 22 66q5 15 12 29l135 -65l-1 -2l-2.5 -7.5l-3.5 -10.5q-7 -14 -17 -49q-8 -28 -16 -71q-7 -38 -7 -84q1 -44 12 -91q10 -45 38 -88q67 -99 226 -149
q158 -48 397 -41q633 18 765 173q24 26 35 67q11 38 0 89q-6 34 -29 72q-16 31 -56 90l-78 101l-90 103l-93 100q-15 16 -88 89l-28 30l29 152l823 362l60 -138l-747 -329l66 -68q36 -37 84 -92l91 -106q34 -40 85 -110q38 -53 70 -108q31 -55 42 -98zM1378 1667q17 0 32 9
q16 10 28 25q10 15 18 33q7 17 7 35t-7 35q-8 19 -18 32q-12 15 -28 24q-14 10 -32 10t-34 -10q-16 -9 -28 -24q-10 -13 -18 -32q-7 -17 -7 -35t7 -35q8 -18 18 -33q12 -15 28 -25q16 -9 34 -9zM1378 1966q34 0 70 -17q34 -17 60 -48q51 -59 51 -132q0 -37 -13 -69
q-13 -35 -38 -63q-27 -33 -60 -49q-36 -17 -70 -17q-35 0 -71 17q-32 15 -61 49q-23 28 -38 63q-13 36 -13 69q0 32 13 69q16 37 38 63q27 32 61 48q36 17 71 17z" />
    <glyph glyph-name="uni06AC.init" unicode="&#x6ac;" horiz-adv-x="1095" 
d="M-76 75q0 30 22 54q23 22 53 22h146q39 -1 110 -1q65 2 96 4q34 2 80 10q39 10 62 22q35 18 55 50q21 30 32 66q11 38 14 72q4 31 4 62q0 50 -23 110q-22 55 -59 114q-40 60 -83 112q-57 66 -93 101q-39 40 -88 84l-72 60l-37 30l36 150l844 365l60 -139l-760 -329
l75 -67q51 -48 92 -91q37 -41 94 -110q49 -64 82 -124q38 -63 60 -132q23 -67 23 -134q0 -138 -47 -237q-49 -99 -139 -146q-41 -20 -73 -27q-35 -11 -82 -16q-29 -4 -92 -8q-15 0 -49.5 -0.5t-52.5 -0.5h-209h-6q-29 0 -53 21q-22 22 -22 53zM414 1545l-136 -136l-136 137
l135 135z" />
    <glyph glyph-name="uni06AC.medi" unicode="&#x6ac;" horiz-adv-x="1251" 
d="M-74 75q0 30 22 54q23 22 54 22q79 0 151 3q72 2 129 6t96 9q38 4 53 11q129 59 129 209q0 62 -20 121q-17 58 -52 120q-37 66 -76 114q-40 55 -88 107q-48 54 -90 95l-85 80l-30 29l28 137l852 378l60 -137l-763 -339q100 -96 167 -174q67 -77 115 -150q46 -68 72 -128
q28 -60 41 -109q35 -99 88 -168q56 -73 121 -118q70 -48 144 -71q73 -23 155 -25h65v-150h-66q-167 0 -292 61q-129 61 -223 178q-25 -66 -75 -117q-49 -52 -117 -80q-17 -9 -56 -17q-44 -8 -78 -10q-31 -4 -91 -8q-64 -4 -95 -4q-31 -2 -89 -2q-29 -1 -75 -1h-5
q-30 0 -54 21q-22 22 -22 53zM482 1530l-136 -136l-136 137l135 135z" />
    <glyph glyph-name="uni06AC.fina" unicode="&#x6ac;" horiz-adv-x="2039" 
d="M2042 149v-149h-28q-41 0 -80 6q-36 7 -76 20q-37 15 -67 34t-55 48q-21 -15 -53 -33q-29 -16 -65 -30q-27 -10 -74 -25q-48 -12 -77 -16q-157 -26 -327 -36q-168 -12 -332 0q-161 13 -315 56q-155 46 -273 129q-50 36 -76 95q-28 56 -36 136q-7 73 8 162q15 86 54 173
l134 -22q-39 -94 -52 -157q-16 -72 -10 -120q3 -51 28 -92q21 -38 62 -74q47 -39 115 -66q77 -29 151 -42q83 -18 172 -24q60 -6 180 -10q117 0 172 2q78 4 152 9q61 4 114 11q58 9 64 11q73 18 119 41q44 22 69 44t32 38q9 18 10 21q2 16 2 55q0 22 -2 102q-1 33 -5 124
q-4 94 -5 128q-3 58 -6 106q-2 62 -2 63l-18 544l149 2l17 -467q0 -26 1 -50q0 -6 1 -34t2 -46q0 -15 1 -48t1 -52q1 -19 2 -56t2 -56q0 -19 1 -55.5t1 -54.5q1 -18 2 -51.5t2 -49.5q0 -35 2 -79q1 -23 1 -49q2 -40 25 -62q23 -23 54 -35q28 -11 60 -16q28 -3 44 -3h28z
M1110 830q-12 3 -27 6q-4 0 -14 1.5t-15 2.5q-18 3 -36 3q-15 0 -30 -3q-16 -1 -31 -9v2q-34 -15 -51 -43q-20 -26 -20 -61q0 -11 1 -17q2 -10 6 -20v2q14 -35 49 -58q36 -24 78 -24q14 0 22 1q11 2 21 6q25 7 51 21q39 22 44 25q24 14 43 29l60 -78q-40 -29 -98 -62
q-25 -15 -145 -80l-226 -126l-48 87l179 100q-40 17 -73 49q-33 33 -49 71q-13 30 -13 74q0 32 10 61q9 30 26 54q17 26 42 46q27 21 55 32q45 19 97 19q23 0 44 -3q26 -4 38 -7l38 -9zM1142 1144l-136 -136l-136 137l135 135z" />
    <glyph glyph-name="uni06AD.init" unicode="&#x6ad;" horiz-adv-x="1106" arabic-form="initial" 
d="M-76 75q0 30 22 54q23 22 53 22h146q39 -1 110 -1q65 2 96 4q34 2 80 10q39 10 62 22q35 18 55 50q21 30 32 66q11 38 14 72q4 31 4 62q0 50 -23 110q-22 55 -59 114q-40 60 -83 112q-57 66 -93 101q-39 40 -88 84l-72 60l-37 30l36 150l844 365l60 -139l-760 -329
l75 -67q51 -48 92 -91q37 -41 94 -110q49 -64 82 -124q38 -63 60 -132q23 -67 23 -134q0 -138 -47 -237q-49 -99 -139 -146q-41 -20 -73 -27q-35 -11 -82 -16q-29 -4 -92 -8q-15 0 -49.5 -0.5t-52.5 -0.5h-209h-6q-29 0 -53 21q-22 22 -22 53zM373 1550l-91 -92l-93 93
l92 91zM483 1745l-91 -92l-92 93l91 91zM503 1458l-91 93l90 91l93 -92z" />
    <glyph glyph-name="uni06AD.medi" unicode="&#x6ad;" horiz-adv-x="1246" arabic-form="medial" 
d="M-77 75q0 32 23 54q21 22 53 22q79 0 151 3q72 2 129 6t96 9q38 4 53 11q129 59 129 209q0 56 -19 121q-23 66 -53 120q-36 64 -75 114q-41 54 -88 107q-55 61 -92 95l-84 80l-30 29l28 137l852 378l60 -137l-763 -339q100 -96 167 -174q67 -77 115 -150q44 -66 73 -128
q27 -63 40 -109q35 -99 88 -168q56 -73 121 -118q68 -47 143 -71q76 -23 156 -25h65v-150h-66q-165 0 -293 61q-129 63 -222 178q-25 -65 -74 -117q-51 -52 -118 -80q-17 -9 -56 -17q-44 -8 -78 -10q-31 -4 -91 -8q-64 -4 -95 -4q-31 -2 -90 -2q-28 -1 -74 -1h-5
q-32 0 -53 21q-23 20 -23 53zM324 1525l-91 -92l-93 93l92 91zM434 1720l-91 -92l-92 93l91 91zM454 1433l-91 93l90 91l93 -92z" />
    <glyph glyph-name="uni06AD.fina" unicode="&#x6ad;" horiz-adv-x="2106" arabic-form="final" 
d="M2110 151v-149h-28q-41 0 -80 6q-36 7 -76 20q-37 15 -67 34t-55 48q-21 -15 -53 -33q-29 -16 -65 -30q-27 -10 -74 -25q-48 -12 -77 -16q-157 -26 -327 -36q-168 -12 -332 0q-161 13 -315 56q-155 46 -273 129q-50 36 -76 95q-28 56 -36 136q-7 73 8 162q15 86 54 173
l134 -22q-39 -94 -52 -157q-16 -72 -10 -120q3 -51 28 -92q21 -38 62 -74q47 -39 115 -66q77 -29 151 -42q83 -18 172 -24q60 -6 180 -10q117 0 172 2q78 4 152 9q61 4 114 11q58 9 64 11q73 18 119 41q44 22 69 44t32 38q9 18 10 21q2 16 2 55q0 22 -2 102q-1 33 -5 124
q-4 94 -5 128q-3 58 -6 106q-2 62 -2 63l-18 544l149 2l17 -467q0 -26 1 -50q0 -6 1 -34t2 -46q0 -15 1 -48t1 -52q1 -19 2 -56t2 -56q0 -19 1 -55.5t1 -54.5q1 -18 2 -51.5t2 -49.5q0 -35 2 -79q1 -23 1 -49q2 -40 25 -62q23 -23 54 -35q28 -11 60 -16q28 -3 44 -3h28z
M1178 832q-12 3 -27 6q-4 0 -14 1.5t-15 2.5q-18 3 -36 3q-15 0 -30 -3q-16 -1 -31 -9v2q-34 -15 -51 -43q-20 -26 -20 -61q0 -11 1 -17q2 -10 6 -20v2q14 -35 49 -58q36 -24 78 -24q14 0 22 1q11 2 21 6q25 7 51 21q39 22 44 25q24 14 43 29l60 -78q-40 -29 -98 -62
q-25 -15 -145 -80l-226 -126l-48 87l179 100q-41 16 -73 49q-33 33 -49 71q-13 30 -13 74q0 32 10 61q9 30 26 54q17 26 42 46q27 21 55 32q45 19 97 19q23 0 44 -3q26 -4 38 -7l38 -9zM1005 1140l-127 -129l-130 130l129 128zM1187 1413l-127 -129l-129 130l128 128z
M1233 1011l-127 130l126 128l130 -129z" />
    <glyph glyph-name="uni06AE.init" unicode="&#x6ae;" horiz-adv-x="1111" 
d="M-76 75q0 30 22 54q23 22 53 22h146q39 -1 110 -1q65 2 96 4q34 2 80 10q39 10 62 22q35 18 55 50q21 30 32 66q11 38 14 72q4 31 4 62q0 50 -23 110q-22 55 -59 114q-40 60 -83 112q-57 66 -93 101q-39 40 -88 84l-72 60l-37 30l36 150l844 365l60 -139l-760 -329
l75 -67q51 -48 92 -91q37 -41 94 -110q49 -64 82 -124q38 -63 60 -132q23 -67 23 -134q0 -138 -47 -237q-49 -99 -139 -146q-41 -20 -73 -27q-35 -11 -82 -16q-29 -4 -92 -8q-15 0 -49.5 -0.5t-52.5 -0.5h-209h-6q-29 0 -53 21q-22 22 -22 53zM200 -183l137 -136l-136 -134
l-136 135zM440 -318l134 135l138 -136l-136 -134zM251 -599l136 134l136 -135l-134 -135z" />
    <glyph glyph-name="uni06AE.medi" unicode="&#x6ae;" horiz-adv-x="1251" 
d="M-77 75q0 32 23 54q21 22 53 22q79 0 151 3q72 2 129 6t96 9q38 4 53 11q129 59 129 209q0 56 -19 121q-23 66 -53 120q-36 64 -75 114q-41 54 -88 107q-55 61 -92 95l-84 80l-30 29l28 137l852 378l60 -137l-763 -339q100 -96 167 -174q67 -77 115 -150q44 -66 73 -128
q27 -63 40 -109q35 -99 88 -168q56 -73 121 -118q68 -47 143 -71q76 -23 156 -25h65v-150h-66q-165 0 -293 61q-129 63 -222 178q-25 -65 -74 -117q-51 -52 -118 -80q-17 -9 -56 -17q-44 -8 -78 -10q-31 -4 -91 -8q-64 -4 -95 -4q-31 -2 -90 -2q-28 -1 -74 -1h-5
q-32 0 -53 21q-23 20 -23 53zM436 -184l137 -136l-136 -134l-136 135zM676 -319l134 135l138 -136l-136 -134zM487 -600l136 134l136 -135l-134 -135z" />
    <glyph glyph-name="uni06AE.fina" unicode="&#x6ae;" horiz-adv-x="2073" 
d="M2084 149v-149h-28q-41 0 -80 6q-36 7 -76 20q-37 15 -67 34t-55 48q-21 -15 -53 -33q-29 -16 -65 -30q-27 -10 -74 -25q-48 -12 -77 -16q-157 -26 -327 -36q-168 -12 -332 0q-161 13 -315 56q-155 46 -273 129q-50 36 -76 95q-28 56 -36 136q-7 73 8 162q15 86 54 173
l134 -22q-39 -94 -52 -157q-16 -72 -10 -120q3 -51 28 -92q21 -38 62 -74q47 -39 115 -66q77 -29 151 -42q83 -18 172 -24q60 -6 180 -10q117 0 172 2q78 4 152 9q61 4 114 11q58 9 64 11q73 18 119 41q44 22 69 44t32 38q9 18 10 21q2 16 2 55q0 22 -2 102q-1 33 -5 124
q-4 94 -5 128q-3 58 -6 106q-2 62 -2 63l-18 544l149 2l17 -467q0 -26 1 -50q0 -6 1 -34t2 -46q0 -15 1 -48t1 -52q1 -19 2 -56t2 -56q0 -19 1 -55.5t1 -54.5q1 -18 2 -51.5t2 -49.5q0 -35 2 -79q1 -23 1 -49q2 -40 25 -62q23 -23 54 -35q28 -11 60 -16q29 -3 44 -3h28z
M1152 830q-12 3 -27 6q-4 0 -14 1.5t-15 2.5q-18 3 -36 3q-15 0 -30 -3q-16 -1 -31 -9v2q-34 -15 -51 -43q-20 -26 -20 -61q0 -11 1 -17q2 -10 6 -20v2q14 -35 49 -58q36 -24 78 -24q14 0 22 1q11 2 21 6q25 7 51 21q39 22 44 25q24 14 43 29l60 -78q-40 -29 -98 -62
q-25 -15 -145 -80l-226 -126l-48 87l179 100q-41 17 -73 49q-33 33 -49 71q-13 30 -13 74q0 32 10 61q9 30 26 54q17 26 42 46q27 21 55 32q45 19 97 19q23 0 44 -3q26 -4 38 -7l38 -9zM856 -184l137 -136l-136 -134l-136 135zM1096 -319l134 135l138 -136l-136 -134z
M907 -600l136 134l136 -135l-134 -135z" />
    <glyph glyph-name="uni06AF" unicode="&#x6af;" horiz-adv-x="2380" arabic-form="isolated" 
d="M1541 1050l77 -68l89 -90q53 -58 90 -108q46 -61 79 -119q35 -62 56 -127q22 -63 22 -130q0 -90 -37 -154q-38 -66 -103 -110q-66 -44 -158 -73q-91 -28 -200 -43q-114 -16 -230 -20q-123 -6 -249 -6q-132 0 -245 11q-107 10 -190 35q-85 24 -142 61q-62 39 -101 88
q-34 43 -59 105q-22 58 -28 132t3 164q9 93 34 197l147 -34q-40 -175 -34 -291q4 -113 55 -179q55 -70 191 -105q135 -34 369 -34q188 0 314 10q138 11 223 28q91 18 149 42q59 26 88 54q32 27 41 59q11 29 11 63q0 51 -23 108q-23 58 -60 113q-40 61 -82 109
q-52 63 -92 100q-31 33 -88 84l-71 59l-41 31l40 134l851 373l60 -138zM2172 1670l-816 -347l5 96l777 331z" />
    <glyph glyph-name="uni06B0.init" unicode="&#x6b0;" horiz-adv-x="1117" 
d="M-64 75q0 30 22 54q23 22 53 22h146q39 -1 110 -1q65 2 96 4q34 2 80 10q39 10 62 22q35 18 55 50q21 30 32 66q11 38 14 72q4 31 4 62q0 50 -23 110q-22 55 -59 114q-40 60 -83 112q-57 66 -93 101q-39 40 -88 84l-72 60l-37 30l36 150l844 365l60 -139l-760 -329
l75 -67q51 -48 92 -91q37 -41 94 -110q49 -64 82 -124q38 -63 60 -132q23 -67 23 -134q0 -138 -47 -237q-49 -99 -139 -146q-41 -20 -73 -27q-35 -11 -82 -16q-29 -4 -92 -8q-16 0 -50 -0.5t-52 -0.5h-209h-6q-29 0 -53 21q-22 22 -22 53zM275 1863q17 0 33 9q17 12 26 25
q11 14 19 33q7 17 7 35t-7 35q-8 20 -19 32q-10 14 -26 24t-33 10q-18 0 -34 -10q-17 -9 -27 -24q-11 -12 -19 -32q-7 -17 -7 -35t7 -35q8 -19 19 -33q10 -14 27 -25q17 -9 34 -9zM275 2162q34 0 70 -17q35 -17 60 -48q51 -59 51 -132q0 -37 -13 -69q-13 -35 -38 -63
q-27 -33 -60 -49q-36 -17 -70 -17q-35 0 -71 17q-32 15 -61 49q-26 31 -37 63q-14 31 -14 69q0 37 14 69q11 32 37 63q27 32 61 48q36 17 71 17zM983 1709l-816 -347l5 96l777 331z" />
    <glyph glyph-name="uni06B0.medi" unicode="&#x6b0;" horiz-adv-x="1240" 
d="M-74 75q0 30 22 54q23 22 54 22q79 0 151 3q72 2 129 6t96 9q38 4 53 11q129 59 129 209q0 62 -20 121q-17 58 -52 120q-37 66 -76 114q-40 55 -88 107q-48 54 -90 95l-85 80l-30 29l28 137l852 378l60 -137l-763 -339q100 -96 167 -174q67 -77 115 -150q46 -68 72 -128
q28 -60 41 -109q35 -99 88 -168q56 -73 121 -118q70 -48 144 -71q73 -23 155 -25h65v-150h-66q-167 0 -292 61q-129 61 -223 178q-25 -66 -75 -117q-49 -52 -117 -80q-17 -9 -56 -17q-44 -8 -78 -10q-31 -4 -91 -8q-64 -4 -95 -4q-31 -2 -89 -2q-29 -1 -75 -1h-5
q-30 0 -54 21q-22 22 -22 53zM196 1861q17 0 32 9q16 10 28 25q10 15 18 33q7 17 7 35t-7 35q-8 19 -18 32q-12 15 -28 24q-14 10 -32 10t-34 -10q-16 -9 -28 -24q-10 -13 -18 -32q-7 -17 -7 -35t7 -35q8 -18 18 -33q12 -15 28 -25q17 -9 34 -9zM196 2160q34 0 70 -17
q34 -17 60 -48q51 -59 51 -132q0 -37 -13 -69q-13 -35 -38 -63q-27 -33 -60 -49q-36 -17 -70 -17q-35 0 -71 17q-32 15 -61 49q-23 28 -38 63q-13 36 -13 69q0 32 13 69q16 37 38 63q27 32 61 48q36 17 71 17zM938 1698l-816 -347l5 96l777 331z" />
    <glyph glyph-name="uni06B0.fina" unicode="&#x6b0;" horiz-adv-x="2440" 
d="M1997 518q21 -72 69 -140q47 -66 110 -116q62 -52 134 -80q72 -30 141 -29v-152q-88 0 -157 19q-73 21 -127 54q-54 30 -107 82q-48 47 -92 104q-14 -20 -16 -22q-5 -11 -17 -24q-46 -54 -130 -95q-88 -43 -205 -71q-116 -29 -272 -46q-152 -15 -331 -15q-258 0 -432 65
q-173 66 -258 196q-40 61 -55 122q-18 61 -18 122q-3 52 6 114q8 48 20 96q10 35 22 66q12 27 13 29l135 -65q0 -3 -8 -20q-14 -42 -16 -49q-8 -28 -16 -71q-8 -40 -6 -84q0 -42 11 -91q10 -45 38 -88q66 -99 225 -149q160 -48 398 -41q633 18 765 173q24 26 35 67
q11 38 0 89q-5 28 -28 72q-30 53 -58 90q-30 45 -78 101q-35 44 -89 103l-93 100l-88 89l-28 30l29 152l823 362l60 -138l-747 -329l67 -68l84 -92l90 -106q27 -31 86 -110q39 -57 69 -108q31 -55 42 -98zM1405 1705q17 0 33 9q17 12 26 25q11 14 19 33q7 17 7 35t-7 35
q-8 20 -19 32q-10 14 -26 24t-33 10q-18 0 -34 -10q-17 -9 -27 -24q-11 -12 -19 -32q-7 -17 -7 -35t7 -35q8 -19 19 -33q10 -14 27 -25q16 -9 34 -9zM1405 2004q34 0 70 -17q35 -17 60 -48q51 -59 51 -132q0 -37 -13 -69q-13 -35 -38 -63q-27 -33 -60 -49q-36 -17 -70 -17
q-35 0 -71 17q-32 15 -61 49q-26 31 -37 63q-14 31 -14 69q0 37 14 69q11 32 37 63q27 32 61 48q36 17 71 17zM2188 1713l-816 -347l5 96l777 331z" />
    <glyph glyph-name="uni06B1.init" unicode="&#x6b1;" horiz-adv-x="1067" arabic-form="initial" 
d="M-76 75q0 30 22 54q23 22 53 22h146q39 -1 110 -1q65 2 96 4q34 2 80 10q39 10 62 22q35 18 55 50q21 30 32 66q11 38 14 72q4 31 4 62q0 50 -23 110q-22 55 -59 114q-40 60 -83 112q-57 66 -93 101q-39 40 -88 84l-72 60l-37 30l36 150l844 365l60 -139l-760 -329
l75 -67q51 -48 92 -91q37 -41 94 -110q49 -64 82 -124q38 -63 60 -132q23 -67 23 -134q0 -138 -47 -237q-49 -99 -139 -146q-41 -20 -73 -27q-35 -11 -82 -16q-29 -4 -92 -8q-15 0 -49.5 -0.5t-52.5 -0.5h-209h-6q-29 0 -53 21q-22 22 -22 53zM92 1795l95 -95l-93 -94
l-97 95zM222 1701l95 94l95 -95l-94 -94zM970 1679l-816 -347l5 96l777 331z" />
    <glyph glyph-name="uni06B1.medi" unicode="&#x6b1;" horiz-adv-x="1240" arabic-form="medial" 
d="M-74 75q0 30 22 54q23 22 54 22q79 0 151 3q72 2 129 6t96 9q38 4 53 11q129 59 129 209q0 62 -20 121q-17 58 -52 120q-37 66 -76 114q-40 55 -88 107q-48 54 -90 95l-85 80l-30 29l28 137l852 378l60 -137l-763 -339q100 -96 167 -174q67 -77 115 -150q46 -68 72 -128
q28 -60 41 -109q35 -99 88 -168q56 -73 121 -118q70 -48 144 -71q73 -23 155 -25h65v-150h-66q-167 0 -292 61q-129 61 -223 178q-25 -66 -75 -117q-49 -52 -117 -80q-17 -9 -56 -17q-44 -8 -78 -10q-31 -4 -91 -8q-64 -4 -95 -4q-31 -2 -89 -2q-29 -1 -75 -1h-5
q-30 0 -54 21q-22 22 -22 53zM97 1801l95 -95l-93 -94l-97 95zM227 1707l95 94l95 -95l-94 -94zM938 1683l-816 -347l5 96l777 331z" />
    <glyph glyph-name="uni06B1.fina" unicode="&#x6b1;" horiz-adv-x="2345" arabic-form="final" 
d="M1896 518q20 -71 68 -140q48 -66 110 -116q64 -52 134 -80q73 -30 142 -29v-152q-89 0 -156 19q-73 20 -128 54q-55 31 -106 82q-48 45 -93 104q-12 -17 -15 -22l-18 -24q-46 -54 -130 -95q-88 -43 -205 -71q-116 -29 -272 -46q-151 -15 -331 -15q-258 0 -432 65
q-173 66 -258 196q-37 56 -56 122q-15 61 -18 122q0 66 8 114q7 51 20 96q12 46 22 66q5 15 12 29l135 -65l-1 -2l-2.5 -7.5l-3.5 -10.5q-7 -14 -17 -49q-8 -28 -16 -71q-7 -38 -7 -84q1 -44 12 -91q10 -45 38 -88q67 -99 226 -149q158 -48 397 -41q633 18 765 173
q24 26 35 67q11 38 0 89q-6 34 -29 72q-16 31 -56 90l-78 101l-90 103l-93 100q-15 16 -88 89l-28 30l29 152l823 362l60 -138l-747 -329l66 -68q36 -37 84 -92l91 -106q34 -40 85 -110q38 -53 70 -108q31 -55 42 -98zM947 1724l95 -95l-93 -94l-97 95zM1077 1630l95 94
l95 -95l-94 -94zM2096 1714l-816 -347l5 96l777 331z" />
    <glyph glyph-name="uni06B2.init" unicode="&#x6b2;" horiz-adv-x="1101" 
d="M-76 75q0 30 22 54q23 22 53 22h146q39 -1 110 -1q65 2 96 4q34 2 80 10q39 10 62 22q35 18 55 50q21 30 32 66q11 38 14 72q4 31 4 62q0 50 -23 110q-22 55 -59 114q-40 60 -83 112q-57 66 -93 101q-39 40 -88 84l-72 60l-37 30l36 150l844 365l60 -139l-760 -329
l75 -67q51 -48 92 -91q37 -41 94 -110q49 -64 82 -124q38 -63 60 -132q23 -67 23 -134q0 -138 -47 -237q-49 -99 -139 -146q-41 -20 -73 -27q-35 -11 -82 -16q-29 -4 -92 -8q-15 0 -49.5 -0.5t-52.5 -0.5h-209h-6q-29 0 -53 21q-22 22 -22 53zM973 1685l-816 -347l5 96
l777 331zM415 -324l-136 -135l-135 136l134 135zM757 -325l-134 -135l-136 136l135 135z" />
    <glyph glyph-name="uni06B2.medi" unicode="&#x6b2;" horiz-adv-x="1251" 
d="M-77 75q0 32 23 54q21 22 53 22q79 0 151 3q72 2 129 6t96 9q38 4 53 11q129 59 129 209q0 56 -19 121q-23 66 -53 120q-36 64 -75 114q-41 54 -88 107q-55 61 -92 95l-84 80l-30 29l28 137l852 378l60 -137l-763 -339q100 -96 167 -174q67 -77 115 -150q44 -66 73 -128
q27 -63 40 -109q35 -99 88 -168q56 -73 121 -118q68 -47 143 -71q76 -23 156 -25h65v-150h-66q-165 0 -293 61q-129 63 -222 178q-25 -65 -74 -117q-51 -52 -118 -80q-17 -9 -56 -17q-44 -8 -78 -10q-31 -4 -91 -8q-64 -4 -95 -4q-31 -2 -90 -2q-28 -1 -74 -1h-5
q-32 0 -53 21q-23 20 -23 53zM947 1685l-816 -347l5 96l777 331zM504 -315l-136 -135l-135 136l134 135zM846 -316l-134 -135l-136 136l135 135z" />
    <glyph glyph-name="uni06B2.fina" unicode="&#x6b2;" horiz-adv-x="2330" 
d="M1894 518q20 -71 68 -140q48 -66 110 -116q64 -52 134 -80q73 -30 142 -29v-152q-89 0 -156 19q-73 20 -128 54q-55 31 -106 82q-48 45 -93 104q-12 -17 -15 -22l-18 -24q-46 -54 -130 -95q-88 -43 -205 -71q-116 -29 -272 -46q-151 -15 -331 -15q-258 0 -432 65
q-173 66 -258 196q-37 56 -56 122q-15 61 -18 122q0 66 8 114q7 51 20 96q12 46 22 66q5 15 12 29l135 -65l-1 -2l-2.5 -7.5l-3.5 -10.5q-7 -14 -17 -49q-8 -28 -16 -71q-7 -38 -7 -84q1 -44 12 -91q10 -45 38 -88q67 -99 226 -149q158 -48 397 -41q633 18 765 173
q24 26 35 67q11 38 0 89q-6 34 -29 72q-16 31 -56 90l-78 101l-90 103l-93 100q-15 16 -88 89l-28 30l29 152l823 362l60 -138l-747 -329l66 -68q36 -37 84 -92l91 -106q34 -40 85 -110q38 -53 70 -108q31 -55 42 -98zM2087 1680l-816 -347l5 96l777 331zM902 -334
l-136 -135l-135 136l134 135zM1244 -335l-134 -135l-136 136l135 135z" />
    <glyph glyph-name="uni06B3.init" unicode="&#x6b3;" horiz-adv-x="1106" arabic-form="initial" 
d="M-76 75q0 30 22 54q23 22 53 22h146q39 -1 110 -1q65 2 96 4q34 2 80 10q39 10 62 22q35 18 55 50q21 30 32 66q11 38 14 72q4 31 4 62q0 50 -23 110q-22 55 -59 114q-40 60 -83 112q-57 66 -93 101q-39 40 -88 84l-72 60l-37 30l36 150l844 365l60 -139l-760 -329
l75 -67q51 -48 92 -91q37 -41 94 -110q49 -64 82 -124q38 -63 60 -132q23 -67 23 -134q0 -138 -47 -237q-49 -99 -139 -146q-41 -20 -73 -27q-35 -11 -82 -16q-29 -4 -92 -8q-15 0 -49.5 -0.5t-52.5 -0.5h-209h-6q-29 0 -53 21q-22 22 -22 53zM949 1695l-816 -347l5 96
l777 331zM165 -302l143 142l142 -143l-142 -143zM168 -658l143 142l142 -143l-142 -143z" />
    <glyph glyph-name="uni06B3.medi" unicode="&#x6b3;" horiz-adv-x="1251" arabic-form="medial" 
d="M-77 75q0 32 23 54q21 22 53 22q79 0 151 3q72 2 129 6t96 9q38 4 53 11q129 59 129 209q0 56 -19 121q-23 66 -53 120q-36 64 -75 114q-41 54 -88 107q-55 61 -92 95l-84 80l-30 29l28 137l852 378l60 -137l-763 -339q100 -96 167 -174q67 -77 115 -150q44 -66 73 -128
q27 -63 40 -109q35 -99 88 -168q56 -73 121 -118q68 -47 143 -71q76 -23 156 -25h65v-150h-66q-165 0 -293 61q-129 63 -222 178q-25 -65 -74 -117q-51 -52 -118 -80q-17 -9 -56 -17q-44 -8 -78 -10q-31 -4 -91 -8q-64 -4 -95 -4q-31 -2 -90 -2q-28 -1 -74 -1h-5
q-32 0 -53 21q-23 20 -23 53zM938 1689l-816 -347l5 96l777 331zM444 -311l143 142l142 -143l-142 -143zM447 -667l143 142l142 -143l-142 -143z" />
    <glyph glyph-name="uni06B3.fina" unicode="&#x6b3;" horiz-adv-x="2355" arabic-form="final" 
d="M1908 522q20 -71 68 -140q48 -66 110 -116q64 -52 134 -80q73 -30 142 -29v-152q-89 0 -156 19q-73 20 -128 54q-55 31 -106 82q-48 45 -93 104q-12 -17 -15 -22l-18 -24q-46 -54 -130 -95q-88 -43 -205 -71q-116 -29 -272 -46q-151 -15 -331 -15q-258 0 -432 65
q-173 66 -258 196q-37 55 -56 122q-15 61 -18 122q0 66 8 114q7 51 20 96q12 46 22 66q5 15 12 29l135 -65l-1 -2l-2.5 -7.5l-3.5 -10.5q-7 -14 -17 -49q-8 -28 -16 -71q-7 -38 -7 -84q1 -44 12 -91q10 -45 38 -88q67 -99 226 -149q158 -48 397 -41q633 18 765 173
q24 26 35 67q11 38 0 89q-6 34 -29 72q-16 31 -56 90q-28 39 -78 101l-90 103l-93 100q-16 17 -88 89l-28 30l29 152l823 362l60 -138l-747 -329l66 -68q36 -37 84 -92l91 -106q34 -40 85 -110q38 -53 70 -108q31 -55 42 -98zM2116 1684l-816 -347l5 96l777 331zM853 -312
l143 142l142 -143l-142 -143zM856 -668l143 142l142 -143l-142 -143z" />
    <glyph glyph-name="uni06B4.init" unicode="&#x6b4;" horiz-adv-x="1101" 
d="M-76 75q0 30 22 54q23 22 53 22h146q39 -1 110 -1q65 2 96 4q34 2 80 10q39 10 62 22q35 18 55 50q21 30 32 66q11 38 14 72q4 31 4 62q0 50 -23 110q-22 55 -59 114q-40 60 -83 112q-57 66 -93 101q-39 40 -88 84l-72 60l-37 30l36 150l844 365l60 -139l-760 -329
l75 -67q51 -48 92 -91q37 -41 94 -110q49 -64 82 -124q38 -63 60 -132q23 -67 23 -134q0 -138 -47 -237q-49 -99 -139 -146q-41 -20 -73 -27q-35 -11 -82 -16q-29 -4 -92 -8q-15 0 -49.5 -0.5t-52.5 -0.5h-209h-6q-29 0 -53 21q-22 22 -22 53zM942 1671l-816 -347l5 96
l777 331zM110 1657l-91 -92l-93 93l92 91zM220 1852l-91 -92l-92 93l91 91zM240 1565l-91 93l90 91l93 -92z" />
    <glyph glyph-name="uni06B4.medi" unicode="&#x6b4;" horiz-adv-x="1251" 
d="M-77 75q0 32 23 54q21 22 53 22q79 0 151 3q72 2 129 6t96 9q38 4 53 11q129 59 129 209q0 56 -19 121q-23 66 -53 120q-36 64 -75 114q-41 54 -88 107q-55 61 -92 95l-84 80l-30 29l28 137l852 378l60 -137l-763 -339q100 -96 167 -174q67 -77 115 -150q44 -66 73 -128
q27 -63 40 -109q35 -99 88 -168q56 -73 121 -118q68 -47 143 -71q76 -23 156 -25h65v-150h-66q-165 0 -293 61q-129 63 -222 178q-25 -65 -74 -117q-51 -52 -118 -80q-17 -9 -56 -17q-44 -8 -78 -10q-31 -4 -91 -8q-64 -4 -95 -4q-31 -2 -90 -2q-28 -1 -74 -1h-5
q-32 0 -53 21q-23 20 -23 53zM955 1671l-816 -347l5 96l777 331zM175 1625l-91 -92l-93 93l92 91zM285 1820l-91 -92l-92 93l91 91zM305 1533l-91 93l90 91l93 -92z" />
    <glyph glyph-name="uni06B4.fina" unicode="&#x6b4;" horiz-adv-x="2345" 
d="M1900 516q20 -71 68 -140q48 -66 110 -116q64 -52 134 -80q73 -30 142 -29v-152q-89 0 -156 19q-73 20 -128 54q-55 31 -106 82q-48 45 -93 104q-12 -17 -15 -22l-18 -24q-46 -54 -130 -95q-88 -43 -205 -71q-116 -29 -272 -46q-151 -15 -331 -15q-258 0 -432 65
q-173 66 -258 196q-37 56 -56 122q-15 61 -18 122q0 66 8 114q7 51 20 96q12 46 22 66q5 15 12 29l135 -65l-1 -2l-2.5 -7.5l-3.5 -10.5q-7 -14 -17 -49q-8 -28 -16 -71q-7 -38 -7 -84q1 -44 12 -91q10 -45 38 -88q67 -99 226 -149q158 -48 397 -41q633 18 765 173
q24 26 35 67q11 38 0 89q-6 34 -29 72q-16 31 -56 90l-78 101l-90 103l-93 100q-15 17 -88 89l-28 30l29 152l823 362l60 -138l-747 -329l66 -68q36 -37 84 -92l91 -106q34 -40 85 -110q38 -53 70 -108q31 -55 42 -98zM2109 1668l-816 -347l5 96l777 331zM1008 1607l-91 -92
l-93 93l92 91zM1118 1802l-91 -92l-92 93l91 91zM1138 1515l-91 93l90 91l93 -92z" />
    <glyph glyph-name="uni06B5.init" unicode="&#x6b5;" horiz-adv-x="673" 
d="M-77 74q0 32 23 54q21 22 52 22h3h1h83q58 2 85 5q30 3 76 11q36 10 55 22q15 12 23 20q14 12 28 44q16 36 26 86q11 58 11 142q0 74 -2 222q-1 80 -5 214q-3 104 -6 192q-3 92 -6 154q-1 21 -2.5 56t-2.5 48q0 11 -0.5 21t-0.5 15l-1 4l151 8v-4q1 -5 1.5 -15t0.5 -21
q1 -13 2.5 -48t2.5 -56q3 -66 6 -156q3 -79 6 -192q4 -138 5 -217q2 -150 2 -225q0 -160 -38 -262q-37 -100 -118 -155q-34 -23 -82 -37q-44 -12 -97 -18q-45 -5 -103 -7q-36 -1 -100 -1h-1h-3q-31 0 -52 21q-23 20 -23 53zM355 1536l-105 6q-9 27 -40 114q-24 58 -48 108
q-29 55 -52 90q-27 38 -53 57l52 76q20 -11 44 -38q20 -22 43 -59q21 -30 40 -69l34 -67q17 -37 24 -55q7 -15 13 -30q4 12 9 29q2 7 5 16l7.5 22.5t7.5 21.5q15 47 28 80q18 50 34 84q17 37 39 74q18 30 40 49l66 -70q-15 -14 -35 -43q-20 -36 -28 -57q-12 -26 -26 -67
q-1 -1 -26 -75l-32 -96q-17 -46 -41 -101z" />
    <glyph glyph-name="uni06B5.medi" unicode="&#x6b5;" horiz-adv-x="748" 
d="M-62 74q0 30 22 54q23 22 54 22q99 0 162 15q65 15 100 37q37 21 52 46q14 24 15 42q0 26 1 55v101v126q-1 44 -1 126q0 76 -1 106v64l-13 543l150 3l10 -468q0 -38 1 -73q1 -19 1.5 -60t0.5 -62q0 -95 1 -146q0 -25 0.5 -73.5t1.5 -72.5q1 -46 1 -121q0 -13 0.5 -30
t1 -26.5t0.5 -15.5q1 -25 14 -45q15 -19 34 -31q21 -14 46 -21q23 -7 47 -12q25 -5 42 -5q13 -2 28 -2h61v-150h-61q-41 0 -84 6q-42 7 -85 20q-45 16 -78 34q-36 22 -59 49q-29 -35 -66 -57q-39 -22 -86 -32q-46 -11 -107 -16q-51 -4 -125 -4h-5q-30 0 -54 21
q-22 22 -22 53zM348 1531l-105 6q-22 67 -41 114q-20 57 -48 109q-22 46 -52 89q-25 38 -52 57l52 76q20 -11 44 -38q17 -19 44 -59q18 -28 40 -69q23 -46 33 -68q6 -12 15 -32.5t10 -21.5l12 -30l9 28q3 10 10.5 32t9.5 30l28 80q22 56 35 84q18 40 38 73q18 30 40 49
l66 -70q-20 -18 -34 -44q-11 -16 -30 -56l-26 -67l-25 -75q-15 -46 -33 -96q-14 -42 -40 -101z" />
    <glyph glyph-name="uni06B5.fina" unicode="&#x6b5;" horiz-adv-x="1516" 
d="M1531 150v-150q-10 0 -23 1q-7 1 -45 5l-57 14q-30 8 -57 24q-1 1 -3 1v-53q-5 -122 -46 -224q-42 -103 -117 -181q-180 -182 -513 -182q-26 0 -84 5q-50 4 -111 23q-63 19 -119 53q-59 32 -107 93q-140 171 -74 475q7 36 21 76q16 52 26 76q4 14 27 72q5 13 25 58
q13 29 20 42q6 15 8 17l134 -66l-7 -14q-1 -2 -6.5 -15l-9.5 -22l-6.5 -15.5t-8.5 -19.5t-8 -19l-26 -65q-16 -46 -23 -69q-11 -36 -18 -69q-51 -233 42 -348q34 -42 78 -64q47 -23 89 -35q46 -11 82 -14q37 -3 56 -3q269 0 406 137q37 37 60 80q24 43 37 86q13 42 18 81
t6 69q0 26 -2 144l-5 198q-1 107 -6 229l-6 239q-3 71 -7 226q-3 112 -6 190q-4 123 -5 133v18v14.5t-0.5 10t-0.5 6.5v3l151 5q0 -27 2 -62q0 -26 4 -136q2 -85 6 -191l6 -223q3 -77 7 -235q3 -128 6 -226q0 -132 82 -178q16 -10 33 -14q27 -6 36 -7q2 0 27 -4h12z
M1179 1531l-105 6q-9 27 -40 114q-22 55 -48 109q-31 57 -52 89q-27 38 -53 57l52 76q20 -11 44 -38q20 -22 43 -59q21 -30 40 -69q19 -35 34 -68q12 -24 24 -54q7 -15 13 -30l9 28q3 10 10.5 32t9.5 30l28 80q22 56 34 84q23 46 39 73q18 30 40 49l66 -70q-19 -17 -35 -44
q-17 -27 -28 -56q-12 -26 -26 -67q0 -1 -26 -75l-32 -96q-17 -46 -41 -101z" />
    <glyph glyph-name="uni06B6.init" unicode="&#x6b6;" horiz-adv-x="643" 
d="M-79 74q0 32 23 54q21 22 52 22h3h1h83q58 2 85 5q30 3 76 11q36 10 55 22q15 12 23 20q14 12 28 44q16 36 26 86q11 58 11 142q0 74 -2 222q-1 80 -5 214q-3 104 -6 192q-3 92 -6 154q-1 21 -2.5 56t-2.5 48q0 11 -0.5 21t-0.5 15l-1 4l151 8v-4q1 -5 1.5 -15t0.5 -21
q1 -13 2.5 -48t2.5 -56q3 -66 6 -156q3 -79 6 -192q4 -138 5 -217q2 -150 2 -225q0 -160 -38 -262q-37 -100 -118 -155q-34 -23 -82 -37q-44 -12 -97 -18q-45 -5 -103 -7q-36 -1 -100 -1h-1h-3q-31 0 -52 21q-23 20 -23 53zM523 1672l-136 -136l-136 137l135 135z" />
    <glyph glyph-name="uni06B6.medi" unicode="&#x6b6;" horiz-adv-x="748" 
d="M-74 74q0 30 22 54q23 22 54 22q99 0 162 15q65 15 100 37q37 21 52 46q14 24 15 42q0 26 1 55v101v126q-1 44 -1 126q0 76 -1 106v64l-13 543l150 3l10 -468q0 -38 1 -73q1 -19 1.5 -60t0.5 -62q0 -95 1 -146q0 -25 0.5 -73.5t1.5 -72.5q1 -46 1 -121q0 -13 0.5 -30
t1 -26.5t0.5 -15.5q1 -25 14 -45q15 -19 34 -31q21 -14 46 -21q23 -7 47 -12q25 -5 42 -5q13 -2 28 -2h61v-150h-61q-41 0 -84 6q-42 7 -85 20q-45 16 -78 34q-36 22 -59 49q-29 -35 -66 -57q-39 -22 -86 -32q-46 -11 -107 -16q-51 -4 -125 -4h-5q-30 0 -54 21
q-22 22 -22 53zM542 1667l-136 -136l-136 137l135 135z" />
    <glyph glyph-name="uni06B6.fina" unicode="&#x6b6;" horiz-adv-x="1516" 
d="M1531 150v-150q-10 0 -23 1q-7 1 -45 5l-57 14q-30 8 -57 24q-1 1 -3 1v-53q-5 -122 -46 -224q-42 -103 -117 -181q-180 -182 -513 -182q-26 0 -84 5q-50 4 -111 23q-63 19 -119 53q-59 32 -107 93q-140 171 -74 475q7 36 21 76q16 52 26 76q4 14 27 72q5 13 25 58
q13 29 20 42q6 15 8 17l134 -66l-7 -14q-1 -2 -6.5 -15l-9.5 -22l-6.5 -15.5t-8.5 -19.5t-8 -19l-26 -65q-16 -46 -23 -69q-11 -36 -18 -69q-51 -233 42 -348q34 -42 78 -64q47 -23 89 -35q46 -11 82 -14q37 -3 56 -3q269 0 406 137q37 37 60 80q24 43 37 86q13 42 18 81
t6 69q0 26 -2 144l-5 198q-1 107 -6 229l-6 239q-3 71 -7 226q-3 112 -6 190q-4 123 -5 133v18v14.5t-0.5 10t-0.5 6.5v3l151 5q0 -27 2 -62q0 -26 4 -136q2 -85 6 -191l6 -223q3 -77 7 -235q3 -128 6 -226q0 -132 82 -178q16 -10 33 -14q27 -6 36 -7q2 0 27 -4h12z
M1380 1701l-136 -136l-136 137l135 135z" />
    <glyph glyph-name="uni06B7.init" unicode="&#x6b7;" horiz-adv-x="653" 
d="M-77 74q0 32 23 54q21 22 52 22h3h1h83q58 2 85 5q30 3 76 11q36 10 55 22q15 12 23 20q14 12 28 44q16 36 26 86q11 58 11 142q0 74 -2 222q-1 80 -5 214q-3 104 -6 192q-3 92 -6 154q-1 21 -2.5 56t-2.5 48q0 11 -0.5 21t-0.5 15l-1 4l151 8v-4q1 -5 1.5 -15t0.5 -21
q1 -13 2.5 -48t2.5 -56q3 -66 6 -156q3 -79 6 -192q4 -138 5 -217q2 -150 2 -225q0 -160 -38 -262q-37 -100 -118 -155q-34 -23 -82 -37q-44 -12 -97 -18q-45 -5 -103 -7q-36 -1 -100 -1h-1h-3q-31 0 -52 21q-23 20 -23 53zM387 1660l-91 -92l-93 93l92 91zM497 1855
l-91 -92l-92 93l91 91zM517 1568l-91 93l90 91l93 -92z" />
    <glyph glyph-name="uni06B7.medi" unicode="&#x6b7;" horiz-adv-x="758" 
d="M-62 74q0 30 22 54q23 22 54 22q99 0 162 15q65 15 100 37q37 21 52 46q14 24 15 42q0 26 1 55v101v126q-1 44 -1 126q0 76 -1 106v64l-13 543l150 3l10 -468q0 -38 1 -73q1 -19 1.5 -60t0.5 -62q0 -95 1 -146q0 -25 0.5 -73.5t1.5 -72.5q1 -46 1 -121q0 -13 0.5 -30
t1 -26.5t0.5 -15.5q1 -25 14 -45q15 -19 34 -31q21 -14 46 -21q23 -7 47 -12q25 -5 42 -5q13 -2 28 -2h61v-150h-61q-41 0 -84 6q-42 7 -85 20q-45 16 -78 34q-36 22 -59 49q-29 -35 -66 -57q-39 -22 -86 -32q-46 -11 -107 -16q-51 -4 -125 -4h-5q-30 0 -54 21
q-22 22 -22 53zM374 1660l-91 -92l-93 93l92 91zM484 1855l-91 -92l-92 93l91 91zM504 1568l-91 93l90 91l93 -92z" />
    <glyph glyph-name="uni06B7.fina" unicode="&#x6b7;" horiz-adv-x="1521" 
d="M1531 150v-150q-10 0 -23 1q-7 1 -45 5l-57 14q-30 8 -57 24q-1 1 -3 1v-53q-5 -122 -46 -224q-42 -103 -117 -181q-180 -182 -513 -182q-26 0 -84 5q-50 4 -111 23q-63 19 -119 53q-59 32 -107 93q-140 171 -74 475q7 36 21 76q16 52 26 76q4 14 27 72q5 13 25 58
q13 29 20 42q6 15 8 17l134 -66l-7 -14q-1 -2 -6.5 -15l-9.5 -22l-6.5 -15.5t-8.5 -19.5t-8 -19l-26 -65q-16 -46 -23 -69q-11 -36 -18 -69q-51 -233 42 -348q34 -42 78 -64q47 -23 89 -35q46 -11 82 -14q37 -3 56 -3q269 0 406 137q37 37 60 80q24 43 37 86q13 42 18 81
t6 69q0 26 -2 144l-5 198q-1 107 -6 229l-6 239q-3 71 -7 226q-3 112 -6 190q-4 123 -5 133v18v14.5t-0.5 10t-0.5 6.5v3l151 5q0 -27 2 -62q0 -26 4 -136q2 -85 6 -191l6 -223q3 -77 7 -235q3 -128 6 -226q0 -132 82 -178q16 -10 33 -14q27 -6 36 -7q2 0 27 -4h12z
M1197 1655l-91 -92l-93 93l92 91zM1307 1850l-91 -92l-92 93l91 91zM1327 1563l-91 93l90 91l93 -92z" />
    <glyph glyph-name="uni06B8.init" unicode="&#x6b8;" horiz-adv-x="659" 
d="M-79 74q0 32 23 54q21 22 52 22h3h1h76q47 2 68 5q27 4 59 11q29 10 48 22q15 12 23 20q14 12 28 44q16 36 26 86q11 58 11 142q0 74 -2 222q-1 80 -5 214q-3 104 -6 192q-3 92 -6 154q-1 21 -2.5 56t-2.5 48q0 11 -0.5 21t-0.5 15l-1 4l151 8v-4q1 -5 1.5 -15t0.5 -21
q1 -13 2.5 -48t2.5 -56q3 -66 6 -156q3 -79 6 -192q4 -138 5 -217q2 -150 2 -225q0 -160 -38 -262q-37 -100 -118 -155q-33 -23 -74 -37q-39 -12 -81 -18q-37 -5 -87 -7q-30 -1 -92 -1h-1h-3q-31 0 -52 21q-23 20 -23 53zM152 -199l137 -136l-136 -134l-136 135zM338 -334
l134 135l138 -136l-136 -134zM178 -615l136 134l136 -135l-134 -135z" />
    <glyph glyph-name="uni06B8.medi" unicode="&#x6b8;" horiz-adv-x="818" 
d="M3 74q0 32 23 54q21 22 53 22q99 0 163 15t100 37q37 22 50 46q14 23 16 42v55q1 29 1 101q0 81 -1 126v126v106q-1 32 -1 64l-13 543l150 3l10 -468q0 -38 1 -73t1 -122q1 -24 1.5 -72.5t0.5 -73.5t0.5 -73.5t1.5 -72.5q0 -21 0.5 -61.5t1.5 -59.5q0 -59 1 -72
q2 -28 15 -45q11 -18 34 -31q19 -13 44 -21q26 -7 48 -12q25 -5 42 -5q13 -2 28 -2h61v-150h-61q-40 0 -84 6q-40 7 -86 20q-46 17 -76 34q-37 21 -60 49q-28 -35 -66 -57q-39 -22 -86 -32q-45 -11 -106 -16q-53 -4 -126 -4h-5q-32 0 -53 21q-23 20 -23 53zM235 -183
l137 -136l-136 -134l-136 135zM475 -318l134 135l138 -136l-136 -134zM286 -599l136 134l136 -135l-134 -135z" />
    <glyph glyph-name="uni06B8.fina" unicode="&#x6b8;" horiz-adv-x="1521" 
d="M1531 150v-150q-10 0 -23 1q-7 1 -45 5l-57 14q-30 8 -57 24q-1 1 -3 1v-53q-5 -122 -46 -224q-42 -103 -117 -181q-180 -182 -513 -182q-26 0 -84 5q-50 4 -111 23q-63 19 -119 53q-59 32 -107 93q-140 171 -74 475q7 36 21 76q16 52 26 76q4 14 27 72q5 13 25 58
q13 29 20 42q6 15 8 17l134 -66l-7 -14q-1 -2 -6.5 -15l-9.5 -22l-6.5 -15.5t-8.5 -19.5t-8 -19l-26 -65q-16 -46 -23 -69q-11 -36 -18 -69q-51 -233 42 -348q34 -42 78 -64q47 -23 89 -35q46 -11 82 -14q37 -3 56 -3q269 0 406 137q37 37 60 80q24 43 37 86q13 42 18 81
t6 69q0 26 -2 144l-5 198q-1 107 -6 229l-6 239q-3 71 -7 226q-3 112 -6 190q-4 123 -5 133v18v14.5t-0.5 10t-0.5 6.5v3l151 5q0 -27 2 -62q0 -26 4 -136q2 -85 6 -191l6 -223q3 -77 7 -235q3 -128 6 -226q0 -132 82 -178q16 -10 33 -14q27 -6 36 -7q2 0 27 -4h12z
M541 -683l110 -109l-109 -107l-109 108zM690 -791l107 108l111 -109l-109 -107zM562 -1016l109 107l109 -108l-108 -108z" />
    <glyph glyph-name="uni06B9.init" unicode="&#x6b9;" horiz-adv-x="673" 
d="M-76 74q0 32 22 54q23 23 54 23h199q53 -1 114 1q43 1 70 11t39 27q13 17 24 52q6 21 5 54q-2 45 -9 78q-3 22 -18 93q-8 33 -26 99q-18 61 -31 99l-31 88l141 53l21 -60l32 -95q29 -104 32 -117q12 -42 28 -124q9 -61 12 -116q0 -59 -11 -95q-20 -66 -55 -109
q-37 -40 -80 -60q-46 -21 -98 -25q-58 -5 -112 -5h-240h-6q-30 0 -54 21q-22 22 -22 53zM150 -317l135 135l137 -136l-136 -135zM396 1152l-136 -136l-136 137l135 135z" />
    <glyph glyph-name="uni06B9.medi" unicode="&#x6b9;" horiz-adv-x="823" 
d="M-78 75q0 31 22 53q23 22 53 22q131 0 213 25q85 25 120 75q26 39 32 86q7 46 4 95q-4 45 -14 87q-13 46 -20 62l140 55q0 -1 1.5 -4t4 -10l4.5 -13q9 -26 18 -64q10 -45 14 -91q6 -49 1 -105h1q-2 -65 41 -108q24 -26 55 -42q35 -20 66 -28q26 -9 76 -16q52 -4 79 -4
v-150q-58 0 -107 7q-60 8 -104 23q-57 19 -94 42q-42 23 -80 63l-9 10q-26 -39 -68 -67q-44 -29 -100 -45q-62 -18 -125 -25q-72 -8 -143 -8h-6q-30 0 -53 22q-22 22 -22 53zM220 -322l135 135l137 -136l-136 -135zM483 1000l-136 -136l-136 137l135 135z" />
    <glyph glyph-name="uni06B9.fina" unicode="&#x6b9;" horiz-adv-x="1762" 
d="M1479 353q17 -42 43 -79q25 -37 64 -64q34 -25 85 -43q47 -16 106 -16v-151h-68q-37 2 -71 6q-35 6 -66 20q-30 12 -54 41q-5 -337 -182 -510q-178 -174 -518 -174q-8 0 -56 2q-35 2 -80 9q-45 8 -95 21q-45 12 -102 37q-53 23 -99 58q-48 32 -88 83q-152 191 -83 508
q9 43 24 89l32 94q16 44 35 88q13 34 32 76q14 33 24 54q1 3 2.5 6l2.5 5l2 4t1.5 3.5t1.5 2.5v1l134 -66l-8 -19q-14 -28 -22 -49q-8 -16 -30 -70q-8 -18 -32 -83q-19 -49 -30 -87q-15 -48 -22 -81q-54 -247 53 -381q30 -38 68 -62q35 -25 79 -43q39 -16 82 -27
q41 -11 76 -15q32 -4 60 -6q17 -1 38 -1q279 0 414 137q137 136 137 415q0 52 -9 107q-10 52 -24 107q-11 40 -32 98q-16 44 -32 80q-12 32 -24 56q-10 19 -10 21l135 68q0 -1 1.5 -4t4 -9.5t5.5 -13.5l25 -62l33 -86q13 -31 37 -95zM750 -963l135 135l137 -136l-136 -135z
M1031 501l-136 -136l-136 137l135 135z" />
    <glyph glyph-name="uni06BA" unicode="&#x6ba;" horiz-adv-x="1617" arabic-form="isolated" 
d="M1365 624q0 -1 1.5 -4l5 -10t6.5 -14q17 -33 28 -64q13 -28 36 -92q15 -39 35 -112q12 -41 27 -122q10 -72 10 -126q0 -347 -178 -524q-178 -179 -521 -179q-9 0 -57 2q-35 2 -80 9q-45 8 -96 21q-43 12 -102 37q-53 23 -99 58q-46 32 -88 83q-152 191 -83 508
q9 43 24 89l32 94l36 88q13 34 32 76l24 54l12 23l136 -66q-1 0 -10 -19q-2 -6 -9.5 -22l-12.5 -27q-2 -6 -13.5 -30.5t-17.5 -40.5q-29 -70 -33 -83q-18 -43 -31 -87q-15 -48 -22 -81q-55 -247 54 -381q30 -38 68 -62q35 -25 79 -43q39 -16 82 -27q39 -10 76 -15
q34 -4 61 -6q17 -1 38 -1q277 0 413 136t136 416q0 57 -10 108q-10 57 -24 108q-13 45 -32 100q-16 46 -32 82q-20 46 -25 56q-10 20 -10 22z" />
    <glyph glyph-name="uni06BB.fina" unicode="&#x6bb;" horiz-adv-x="1752" arabic-form="final" 
d="M1463 353q17 -42 43 -79q25 -37 64 -64q34 -25 85 -43q47 -16 106 -16v-151h-68q-37 2 -71 6q-35 6 -66 20q-30 12 -54 41q-5 -337 -182 -510q-178 -174 -518 -174q-8 0 -56 2q-35 2 -80 9q-45 8 -95 21q-45 12 -102 37q-53 23 -99 58q-48 32 -88 83q-152 191 -83 508
q9 43 24 89l32 94q16 44 35 88q13 34 32 76q14 33 24 54q1 3 2.5 6l2.5 5l2 4t1.5 3.5t1.5 2.5v1l134 -66l-8 -19q-14 -28 -22 -49q-8 -16 -30 -70l-32 -83q-19 -49 -30 -87q-15 -48 -22 -81q-54 -247 53 -381q30 -38 68 -62q35 -25 79 -43q39 -16 82 -27q41 -11 76 -15
q32 -4 60 -6q17 -1 38 -1q279 0 414 137q137 136 137 415q0 52 -9 107q-10 52 -24 107q-11 40 -32 98q-16 44 -32 80q-12 32 -24 56q-10 19 -10 21l135 68q0 -1 1.5 -4t4 -9.5t5.5 -13.5l25 -62l33 -86q13 -31 37 -95zM1154 927q41 -28 60 -75q19 -46 11 -101
q-11 -64 -49 -111q-41 -47 -98 -66l-62 -18q-13 -3 -51 -10q-16 -3 -46 -5q-15 -1 -43 -1h-38h-23q-8 1 -25 1q-75 0 -138 5q-57 6 -88 12q-35 8 -50 13q-10 4 -18 8l19 33l17 33q2 0 22 -7q15 -6 73 -14l12.5 17.5l15.5 22.5q15 21 49 62q5 21 8 51q2 45 1 77q-1 37 -3 94
q-4 71 -7 104l-9 107l-5.5 55.5t-4.5 44.5l75 7q5 -40 8 -74q2 -18 5.5 -56t5.5 -55q6 -78 8 -131q3 -76 2 -132l14 14q2 3 7 7.5t8 6.5q52 45 93 67q42 24 90 37q46 10 83 4q40 -5 71 -27zM1151 762q5 32 -6 59q-10 27 -34 44q-41 29 -107 9q-67 -21 -137 -84
q-48 -42 -87 -90q-35 -42 -65 -82q11 -1 36 -1h39q18 0 26 -1h23h49q14 0 48 2q22 3 54 9q29 6 65 18q37 12 63 44q25 31 33 73z" />
    <glyph glyph-name="uni06BC.init" unicode="&#x6bc;" horiz-adv-x="678" 
d="M-76 74q0 32 22 54q23 23 54 23h199q53 -1 114 1q43 1 70 11t39 27q13 17 24 52q6 21 5 54q-2 45 -9 78q-3 22 -18 93q-8 33 -26 99q-18 61 -31 99l-31 88l141 53l21 -60l32 -95q29 -104 32 -117q12 -42 28 -124q9 -61 12 -116q0 -59 -11 -95q-20 -66 -55 -109
q-37 -40 -80 -60q-46 -21 -98 -25q-58 -5 -112 -5h-240h-6q-30 0 -54 21q-22 22 -22 53zM287 1662q17 0 33 10t26 24q11 14 19 33q7 17 7 35t-7 35q-8 19 -19 33q-10 13 -26 24q-16 9 -33 9t-34 -9q-17 -10 -27 -24q-11 -14 -19 -33q-7 -17 -7 -35t7 -35q8 -19 19 -33
q10 -15 27 -24q16 -10 34 -10zM287 1961q34 0 70 -17q35 -16 60 -48q51 -58 51 -132q0 -35 -13 -70q-15 -36 -38 -62q-27 -33 -60 -49q-36 -17 -70 -17q-35 0 -71 17q-32 15 -61 49q-25 30 -37 62q-14 34 -14 70q0 37 14 69q11 32 37 63q27 32 61 48q36 17 71 17zM423 1143
l-136 -136l-136 137l135 135z" />
    <glyph glyph-name="uni06BC.medi" unicode="&#x6bc;" horiz-adv-x="818" 
d="M-78 75q0 31 22 53q23 22 53 22q131 0 213 25q85 25 120 75q26 39 32 86q7 46 4 95q-4 45 -14 87q-13 46 -20 62l140 55q0 -1 1.5 -4t4 -10l4.5 -13q9 -26 18 -64q10 -45 14 -91q6 -49 1 -105h1q-2 -65 41 -108q24 -26 55 -42q35 -20 66 -28q26 -9 76 -16q52 -4 79 -4
v-150q-58 0 -107 7q-60 8 -104 23q-57 19 -94 42q-42 23 -80 63l-9 10q-26 -39 -68 -67q-44 -29 -100 -45q-62 -18 -125 -25q-72 -8 -143 -8h-6q-30 0 -53 22q-22 22 -22 53zM363 1466q17 0 33 10t26 24q11 14 19 33q7 17 7 35t-7 35q-8 19 -19 33q-10 13 -26 24
q-16 9 -33 9t-34 -9q-17 -10 -27 -24q-11 -14 -19 -33q-7 -17 -7 -35t7 -35q8 -19 19 -33q10 -15 27 -24q16 -10 34 -10zM363 1765q34 0 70 -17q35 -16 60 -48q51 -58 51 -132q0 -35 -13 -70q-15 -36 -38 -62q-27 -33 -60 -49q-36 -17 -70 -17q-35 0 -71 17q-32 15 -61 49
q-25 30 -37 62q-14 34 -14 70q0 37 14 69q11 32 37 63q27 32 61 48q36 17 71 17zM496 940l-136 -136l-136 137l135 135z" />
    <glyph glyph-name="uni06BC.fina" unicode="&#x6bc;" horiz-adv-x="1742" 
d="M1452 353q16 -41 42 -79q25 -35 64 -64q39 -27 86 -43t106 -16v-151h-68q-37 2 -71 6q-32 5 -67 20q-30 14 -53 41q-5 -337 -182 -510q-179 -174 -518 -174q-9 0 -55 2q-37 2 -80 9q-45 8 -96 21q-45 12 -102 37q-51 23 -100 58q-47 32 -87 83q-152 191 -83 508
q9 43 24 89l32 94q8 22 34 88l32 76l24 54l5.5 11t4.5 8l1 3l134 -66l-9 -19q-9 -22 -22 -49l-29 -70q-8 -18 -32 -83q-19 -49 -30 -87q-15 -48 -22 -81q-54 -247 53 -381q30 -38 68 -62q35 -25 79 -43q39 -16 82 -27q39 -10 75 -15t61 -6q17 -1 38 -1q276 0 415 137
q136 138 136 415q0 54 -10 107q-9 53 -24 107q-10 39 -31 98q-11 32 -31 80q-15 36 -25 56q-10 19 -10 21l135 68q0 -1 1.5 -4t4 -9.5t5.5 -13.5l25 -62l34 -86zM736 819q17 0 32 9q16 10 28 25q10 15 18 33q7 17 7 35t-7 35q-8 19 -18 32q-12 15 -28 24q-14 10 -32 10
t-34 -10q-16 -9 -28 -24q-10 -13 -18 -32q-7 -17 -7 -35t7 -35q8 -18 18 -33q12 -15 28 -25q16 -9 34 -9zM736 1118q34 0 70 -17q34 -17 60 -48q51 -59 51 -132q0 -37 -13 -69q-13 -35 -38 -63q-27 -33 -60 -49q-36 -17 -70 -17q-35 0 -71 17q-32 15 -61 49q-23 28 -38 63
q-13 36 -13 69q0 32 13 69q16 37 38 63q27 32 61 48q36 17 71 17zM993 296l-136 -136l-136 137l135 135z" />
    <glyph glyph-name="uni06BD.fina" unicode="&#x6bd;" horiz-adv-x="1752" 
d="M1463 358q17 -42 43 -79q25 -37 64 -64q34 -25 85 -43q47 -16 106 -16v-151q-44 0 -68 1q-36 0 -71 6q-33 4 -66 19q-30 12 -54 41q-5 -337 -182 -510q-178 -174 -518 -174q-8 0 -56 2q-35 2 -80 9q-45 8 -95 21q-45 12 -102 37q-45 20 -99 57q-51 37 -88 84
q-152 191 -83 508q9 43 24 89q15 48 32 93q11 32 35 90q13 34 32 75q14 35 24 53l10 23l134 -66l-8 -19q-14 -28 -22 -48l-30 -71l-32 -83l-30 -86q-17 -56 -22 -82q-54 -247 53 -381q26 -33 68 -63q42 -27 79 -42q39 -16 82 -27q41 -11 76 -15q32 -4 60 -6q17 -1 38 -1
q279 0 414 137q137 136 137 415q0 52 -9 107q-10 52 -24 107q-11 40 -32 98q-10 28 -32 81q-16 39 -24 54q-10 20 -10 22l135 68q0 -1 1.5 -4t4 -9.5t5.5 -13.5l25 -62l33 -85q13 -32 37 -96zM803 292l-127 -129l-130 130l129 128zM985 565l-127 -129l-129 130l128 128z
M1031 163l-127 130l126 128l130 -129z" />
    <glyph glyph-name="uni06BE" unicode="&#x6be;" horiz-adv-x="1407" arabic-form="isolated" 
d="M47 136q4 23 18 37t29 17q14 6 30 4q15 0 24 -3q22 -8 52 -15q37 -9 68 -14q36 -4 79 -6q37 -1 85 7l-16 13q-36 37 -63 82q-26 46 -43 87q-16 47 -23 82q-8 39 -6 71q1 35 13 78q10 34 32 78q20 37 47 70q26 33 60 61l-46 12l38 147q1 0 22.5 -6.5t40.5 -11.5l110 -36
q72 -26 142 -55q75 -31 155 -74q76 -41 151 -93q75 -53 128 -112q54 -59 90 -130q34 -71 34 -151q0 -67 -24 -115q-27 -47 -64 -76q-35 -30 -86 -47q-50 -17 -96 -23q-30 -6 -89 -10q-15 0 -38 -0.5t-31 -0.5q-76 0 -147 13q-73 17 -119 35q-57 -24 -129 -38
q-62 -12 -133 -14q-58 -1 -125 9q-63 13 -102 33q-14 7 -29 17q-12 8 -24 20q-11 11 -14 26q-6 13 -1 32zM619 707q-33 0 -66 -21q-32 -21 -59 -52q-29 -35 -44 -70q-16 -38 -18 -72q-2 -18 4 -40q2 -17 15 -54q11 -27 29 -58q19 -30 46 -59q31 -35 81 -65q128 71 168 203
q20 65 12 125q-8 61 -37 101q-16 20 -38 36l-45 18q-13 4 -23 5q-12 3 -25 3zM785 159q39 -3 41 -3q15 -2 44 -2q70 0 118 6q49 6 78 16q33 11 48 22q19 15 24 26q6 11 10 27q0 5 0.5 13t0.5 11q0 41 -16 77q-19 42 -45 74q-26 33 -67 68q-34 30 -84 65q9 -87 -18 -183
q-37 -129 -134 -217z" />
    <glyph glyph-name="uni06BF.init" unicode="&#x6bf;" horiz-adv-x="1536" 
d="M-76 74q0 30 22 54q23 22 54 22q138 0 274 24q139 23 266 60q129 36 242 81q108 43 204 89q20 11 66 34l72 35q-84 18 -143 37q-48 14 -119 39l-57 22t-45 17q-33 15 -86 37q-68 31 -115 48q-50 18 -94 18q-37 0 -69 -19q-34 -22 -58 -50q-29 -34 -50 -70
q-27 -43 -44 -78l-133 69l49 87q29 52 72 98q44 49 100 81q58 33 133 33q34 0 67 -6q24 -5 64 -16q44 -16 67 -26l72 -30l56 -24.5l55 -23.5q65 -26 137 -50q81 -26 173 -47q105 -25 218 -40l22 -141l-124 -61l-112 -55l-108 -52q-92 -45 -214 -94q-118 -48 -252 -87
q-129 -38 -282 -64q-146 -25 -304 -25q-30 0 -54 21q-22 22 -22 53zM405 -76l137 -136l-136 -134l-136 135zM645 -211l134 135l138 -136l-136 -134zM456 -492l136 134l136 -135l-134 -135zM615 1234l-136 -136l-136 137l135 135z" />
    <glyph glyph-name="uni06BF.medi" unicode="&#x6bf;" horiz-adv-x="1642" 
d="M-73 75q0 32 23 54q21 22 53 22q138 0 274 23q125 21 252 58q124 38 219 78q105 45 178 82l67 32l139 67q-73 17 -143 38q-44 13 -120 40q-29 10 -101 39l-87 37q-76 33 -115 47q-48 19 -93 19q-40 0 -69 -19q-33 -19 -59 -50q-29 -34 -50 -70l-44 -78l-133 68l30 56
q14 27 40 65q25 37 52 65q24 29 63 58q33 24 77 40q42 16 93 16q34 0 67 -6q24 -5 64 -16q44 -16 67 -26l72 -30l56 -24.5l55 -23.5q65 -26 137 -50q81 -26 173 -47q107 -25 217 -40l23 -143q-57 -27 -61 -29l-63 -31l-74 -35q0 -78 40 -121q38 -41 103 -62q69 -19 143 -22
q71 -4 159 -4v-151q-11 0 -42.5 0.5t-52.5 0.5q-66 3 -124 10q-62 7 -131 26q-64 16 -119 49q-53 31 -87 82q-33 49 -33 122l-3 -3q-11 -5 -33 -16q-10 -4 -34 -16q-88 -44 -186 -86q-101 -41 -231 -82q-127 -37 -268 -62q-140 -25 -299 -25h-5q-32 0 -53 21q-23 20 -23 53z
M504 -69l137 -136l-136 -134l-136 135zM744 -204l134 135l138 -136l-136 -134zM555 -485l136 134l136 -135l-134 -135zM618 1186l-136 -136l-136 137l135 135z" />
    <glyph glyph-name="uni06BF.fina" unicode="&#x6bf;" horiz-adv-x="1508" 
d="M1258 228q35 -35 80 -50q42 -16 86 -23q44 -6 69 -5l28 1v-150q-3 0 -9 -1h-24q-31 0 -68 4q-43 5 -86 16q-46 14 -93 36q-50 26 -88 64q-118 111 -122 310q-91 -17 -169 -37q-94 -23 -174 -55q-82 -30 -162 -76q-73 -41 -136 -102q-59 -60 -92 -131q-34 -72 -34 -164
q0 -254 196 -375q81 -50 184 -74q104 -23 218 -20q118 5 237 34q117 28 237 85l66 -135q-137 -67 -283 -100q-145 -33 -284 -33q-133 0 -246 28q-118 29 -209 88q-130 81 -200 209q-67 131 -67 293q0 109 37 205q41 95 102 163q62 71 147 127q78 52 178 96q100 41 193 68
q90 26 190 46q-65 24 -139 58l-112 56q-63 33 -111 54q-46 21 -92 21q-38 0 -86 -17q-46 -18 -78 -46q-33 -27 -56 -57q-26 -31 -42 -57q-13 -19 -28 -44q-9 -18 -9 -19l-136 65l1 3q2 3 5.5 9t6.5 12q10 21 34 57q21 32 54 73q32 39 74 74q22 19 58 40q36 19 66 30
q27 11 68 20q34 6 68 6q38 0 69 -7q37 -8 66 -19q35 -13 67 -28l70 -35l104 -53q56 -27 130 -55q71 -26 164 -52q88 -25 205 -43l-10 -150q-1 0 -7 -0.5t-19.5 -1t-28.5 -0.5q-41 -1 -135 -13q0 -76 19 -130q20 -56 58 -93zM628 103l137 -136l-136 -134l-136 135zM868 -32
l134 135l138 -136l-136 -134zM679 -313l136 134l136 -135l-134 -135zM949 1035l-136 -136l-136 137l135 135z" />
    <glyph glyph-name="uni06C0" unicode="&#x6c0;" horiz-adv-x="970" arabic-form="isolated" 
d="M493 1q-67 0 -136 20q-66 19 -121 59q-53 40 -86 96q-33 57 -33 132q0 69 17 139q17 62 44 125q25 56 56 104q28 45 53 80q-3 1 -9 2.5t-8 2.5q-1 0 -3 1t-3 1l40 146l31 -9q38 -13 68 -26q42 -16 92 -42q54 -25 103 -60q51 -31 102 -79q50 -44 89 -101q38 -52 63 -122
q23 -71 23 -148q0 -55 -15 -112q-16 -56 -58 -104q-43 -46 -116 -76q-76 -29 -193 -29zM432 694q-7 -8 -44 -57q-26 -36 -54 -89q-29 -54 -46 -112q-20 -60 -20 -128q0 -41 23 -72q22 -29 57 -49q33 -19 72 -27q41 -9 73 -9q63 0 107 9t72 30q26 19 40 52q12 33 12 80
q0 69 -27 126q-26 56 -69 104q-44 47 -95 82q-56 37 -101 60zM687 1171q-82 -32 -150 -37q-17 -3 -64 -18q-70 -28 -79 -32q-45 -18 -83 -36l-72 -35l-49 95l56 28q40 20 91 41l-19 13q-4 6 -13 12q-42 37 -57 88q-16 48 -2 96q51 165 218 165q35 0 70 -11q19 -6 60 -24
l20 -12t22 -14q11 -10 20 -16l-71 -82q-8 8 -19 14q-8 6 -28 18q-27 11 -36 14q-20 6 -38 6q-22 0 -37 -4q-19 -3 -31 -13q-15 -11 -27 -27q-12 -18 -21 -46q-5 -14 3 -34q8 -21 27 -40q12 -10 19 -14q14 -9 30 -14q16 -7 42 -10q20 -4 55 -2q8 2 11 2q7 0 10 1q48 6 102 28
z" />
    <glyph glyph-name="uni06C1" unicode="&#x6c1;" horiz-adv-x="1056" arabic-form="final" 
d="M671 289q29 -13 77 -39q32 -20 88 -46q41 -19 104 -38q56 -15 124 -15q1 -28 1 -77q0 -48 -1 -73q-74 0 -140 17q-64 16 -122 41q-53 23 -104 50q-57 30 -87 43q-78 34 -115 46q-49 18 -94 18q-38 0 -70 -19q-34 -22 -58 -50q-25 -29 -50 -70l-43 -78l-134 69l29 56
q14 25 41 66q18 27 51 65q31 33 64 57q33 25 78 40q41 16 92 16q66 0 132 -23q60 -21 137 -56z" />
    </font>
</defs>
</svg>
